<?xml version="1.0" encoding="UTF-8"?>
<svg width="16px" height="16px" viewBox="0 0 16 16" version="1.1" xmlns="http://www.w3.org/2000/svg" xmlns:xlink="http://www.w3.org/1999/xlink">
    <!-- Generator: Sketch 55.2 (78181) - https://sketchapp.com -->
    <title>accountsettings</title>
    <desc>Created with Sketch.</desc>
    <g id="页面1" stroke="none" stroke-width="1" fill="none" fill-rule="evenodd">
        <g id="切图画板" transform="translate(-1637.000000, -129.000000)">
            <g id="编组-8" transform="translate(1637.000000, 129.000000)">
                <g id="tabicon/账号配置">
                    <g id="角色管理">
                        <circle id="椭圆形-copy-4" fill="#232323" cx="8" cy="8" r="8"></circle>
                        <path d="M11.4,13.6 C9.96405965,13.6 8.8,12.4359403 8.8,11 C8.8,9.56405965 9.96405965,8.4 11.4,8.4 C12.8359403,8.4 14,9.56405965 14,11 C14,12.4359403 12.8359403,13.6 11.4,13.6 Z M11.4,11.7 L12.2228994,12.1326238 L12.0657396,11.2163119 L12.7314791,10.5673762 L11.8114497,10.4336881 L11.4,9.6 L10.9885503,10.4336881 L10.0685209,10.5673762 L10.7342604,11.2163119 L10.5771006,12.1326238 L11.4,11.7 Z" id="合并形状" fill="#006064"></path>
                        <circle id="椭圆形" fill="#006064" cx="8" cy="4.8" r="2.8"></circle>
                        <path d="M9.94460732,8.37604965 C9.02336305,8.88811764 8.4,9.8712617 8.4,11 C8.4,11.5056367 8.52509262,11.9820564 8.74601864,12.4 L3.2,12.4 C3.2,9.9699471 5.3490332,8 8,8 C8.69219798,8 9.35017452,8.13430947 9.94460732,8.37604965 Z" id="合并形状" fill="#006064"></path>
                    </g>
                </g>
            </g>
        </g>
    </g>
</svg>