<?xml version="1.0" encoding="UTF-8"?>
<svg width="180px" height="180px" viewBox="0 0 180 180" version="1.1" xmlns="http://www.w3.org/2000/svg" xmlns:xlink="http://www.w3.org/1999/xlink">
    <!-- Generator: Sketch 55.2 (78181) - https://sketchapp.com -->
    <title>account-synchronization</title>
    <desc>Created with Sketch.</desc>
    <defs>
        <circle id="path-1" cx="90" cy="90" r="90"></circle>
        <path d="M6.50523586,27.9846163 L94.0286082,27.9846163 C95.297688,27.9846163 96.3264805,29.0134088 96.3264805,30.2824887 L96.3264805,164.677005 C96.3264805,165.946085 95.297688,166.974878 94.0286082,166.974878 L6.50523586,166.974878 C5.23615601,166.974878 4.20736352,165.946085 4.20736352,164.677005 L4.20736352,30.2824887 C4.20736352,29.0134088 5.23615601,27.9846163 6.50523586,27.9846163 Z" id="path-3"></path>
        <path d="M3.82978723,0 L19.3764581,0 L19.3764581,24.7907032 L0,24.7907032 L0,3.82978723 C-7.03118306e-16,1.71465415 1.71465415,-4.99634775e-16 3.82978723,0 Z" id="path-5"></path>
        <path d="M0,0 L19.3764581,0 L19.3764581,24.7907032 L4.59574468,24.7907032 C2.05758498,24.7907032 -5.77343504e-16,22.7331182 0,20.1949585 L0,0 Z" id="path-7"></path>
        <path d="M0,0 L19.3764581,0 L19.3764581,20.1949585 C19.3764581,22.7331182 17.3188731,24.7907032 14.7807134,24.7907032 L0,24.7907032 L0,0 Z" id="path-9"></path>
        <ellipse id="path-11" cx="11.7980533" cy="11.7968022" rx="11.7980533" ry="11.7968022"></ellipse>
        <ellipse id="path-13" cx="11.7980533" cy="11.7968022" rx="11.7980533" ry="11.7968022"></ellipse>
        <ellipse id="path-15" cx="11.7980533" cy="11.7968022" rx="11.7980533" ry="11.7968022"></ellipse>
        <ellipse id="path-17" cx="11.8040694" cy="11.7968022" rx="11.8040694" ry="11.7968022"></ellipse>
        <filter x="-38.7%" y="-38.7%" width="177.9%" height="177.9%" filterUnits="objectBoundingBox" id="filter-19">
            <feOffset dx="7" dy="7" in="SourceAlpha" result="shadowOffsetOuter1"></feOffset>
            <feColorMatrix values="0 0 0 0 0.409278759   0 0 0 0 0.409278759   0 0 0 0 0.409278759  0 0 0 0.320142663 0" type="matrix" in="shadowOffsetOuter1" result="shadowMatrixOuter1"></feColorMatrix>
            <feMerge>
                <feMergeNode in="shadowMatrixOuter1"></feMergeNode>
                <feMergeNode in="SourceGraphic"></feMergeNode>
            </feMerge>
        </filter>
        <ellipse id="path-20" cx="17.2568541" cy="17.2550241" rx="17.2568541" ry="17.2550241"></ellipse>
        <path d="M30.3173424,84.0506321 C26.2883438,73.152722 18.1130544,47.5528692 5.79147421,7.25107352 C4.89561506,4.32076471 6.54483108,1.21902611 9.47513085,0.323137405 C9.50015646,0.315486256 9.52523588,0.30801226 9.55036725,0.300715977 C12.7082389,-0.616095708 16.0796164,0.779761877 17.665179,3.66050631 L36.9193376,38.6426071 C37.2149852,32.9707602 42.0525952,28.6124895 47.7244421,28.9081371 C50.6401158,29.0601179 53.3537567,30.4442733 55.1885278,32.715367 L59.9770263,38.6426071 C63.2241344,34.1506265 69.4979053,33.141458 73.9898858,36.3885661 C74.5583715,36.7995061 75.0822072,37.2689146 75.5527785,37.7891169 C77.2319919,39.6452583 78.2701994,41.3097401 78.6674009,42.7825622 C78.6674009,42.7825622 78.6674009,42.7825622 78.6674009,42.7825622 C78.6674009,39.3168359 81.4769272,36.5073096 84.9426536,36.5073096 C86.4416645,36.5073096 87.8911579,37.0439081 89.0288229,38.0199983 C92.4852581,40.9855385 94.8164842,44.0086942 96.0225017,47.0894651 C100.074669,57.4407238 102.989205,69.7611128 104.766109,84.0506321 L104.766109,131.804651 L52.3610837,141.444286 L41.1586591,127.627423 C28.8267378,116.571366 20.0914127,106.973736 14.952684,98.8345347 C11.6522583,92.5869097 6.84224185,80.7097904 0.522634782,63.2031768 C-0.498403765,60.3747483 0.473259793,57.2119581 2.90617665,55.4446316 C5.16666246,53.802563 8.33030789,54.3038892 9.97237651,56.564375 C9.97296718,56.5651881 9.97355761,56.5660014 9.97416227,56.5668044 C20.8116003,71.5044296 27.5926604,80.6657055 30.3173424,84.0506321 Z" id="path-22"></path>
    </defs>
    <g id="页面1" stroke="none" stroke-width="1" fill="none" fill-rule="evenodd">
        <g id="切图画板" transform="translate(-733.000000, -374.000000)">
            <g id="编组-16" transform="translate(733.000000, 374.000000)">
                <g id="Artwork">
                    <mask id="mask-2" fill="white">
                        <use xlink:href="#path-1"></use>
                    </mask>
                    <use id="Mask" fill="#0F0F0F" opacity="0.801283482" xlink:href="#path-1"></use>
                    <g id="phone" mask="url(#mask-2)">
                        <g transform="translate(24.345048, 52.005236)">
                            <path d="M22.5075585,0.191693291 L92.1816645,0.191693291 C101.699763,0.191693291 109.415707,7.90763696 109.415707,17.4257358 L109.415707,181.746932 C109.415707,189.149898 103.414417,195.151187 96.0114517,195.151187 L22.5075585,195.151187 C15.1045927,195.151187 9.10330317,189.149898 9.10330317,181.746932 L9.10330317,13.5959486 C9.10330317,6.19298281 15.1045927,0.191693291 22.5075585,0.191693291 Z" id="back" stroke="none" fill="#1B1B1B" fill-rule="evenodd"></path>
                            <path d="M13.4042553,0 L86.9081485,0 C94.3111143,-6.15870038e-15 100.312404,6.00128952 100.312404,13.4042553 L100.312404,181.555239 C100.312404,188.958204 94.3111143,194.959494 86.9081485,194.959494 L13.4042553,194.959494 C6.00128952,194.959494 -8.69755003e-16,188.958204 0,181.555239 L0,13.4042553 C8.69755003e-16,6.00128952 6.00128952,4.91261643e-15 13.4042553,0 Z" id="front" stroke="none" fill="#2A2A2A" fill-rule="evenodd"></path>
                            <path d="M25.3517102,12.5930774 L75.1821338,12.5930774 C75.9753087,12.5930774 76.618304,13.2360727 76.618304,14.0292476 L76.618304,14.6549842 C76.618304,15.4481591 75.9753087,16.0911544 75.1821338,16.0911544 L25.3517102,16.0911544 C24.5585353,16.0911544 23.91554,15.4481591 23.91554,14.6549842 L23.91554,14.0292476 C23.91554,13.2360727 24.5585353,12.5930774 25.3517102,12.5930774 Z" id="front-speaker" stroke="none" fill="#111111" fill-rule="evenodd"></path>
                            <mask id="mask-4" fill="white">
                                <use xlink:href="#path-3"></use>
                            </mask>
                            <use id="screen" stroke="none" fill="#454445" fill-rule="evenodd" xlink:href="#path-3"></use>
                            <g id="screen-content" stroke="none" stroke-width="1" fill="none" fill-rule="evenodd" mask="url(#mask-4)">
                                <g transform="translate(11.884984, 35.463259)" id="my-group">
                                    <g transform="translate(0.000000, 0.135339)">
                                        <g id="user" transform="translate(0.000000, 7.191196)">
                                            <mask id="mask-6" fill="white">
                                                <use xlink:href="#path-5"></use>
                                            </mask>
                                            <use id="Mask" fill="#535353" xlink:href="#path-5"></use>
                                            <g id="avatar" mask="url(#mask-6)">
                                                <g transform="translate(3.390880, 6.439144)">
                                                    <path d="M6.5395546,7.60623847 C10.1512509,7.60623847 13.0791092,10.5340968 13.0791092,14.1457931 L13.0791092,22.139587 L0,22.139587 L0,14.1457931 C1.33405161e-15,10.5340968 2.92785832,7.60623847 6.5395546,7.60623847 Z" id="Rectangle-2" fill="#1B1B1B" opacity="0.699999988"></path>
                                                    <ellipse id="Oval" fill="#828282" cx="6.47143424" cy="4.95763757" rx="4.97278631" ry="4.95763757"></ellipse>
                                                </g>
                                            </g>
                                        </g>
                                        <g id="user" transform="translate(0.000000, 33.651740)">
                                            <mask id="mask-8" fill="white">
                                                <use xlink:href="#path-7"></use>
                                            </mask>
                                            <use id="Mask" fill="#535353" xlink:href="#path-7"></use>
                                            <g id="avatar" mask="url(#mask-8)">
                                                <g transform="translate(3.390880, 6.439144)">
                                                    <path d="M6.5395546,7.60623847 C10.1512509,7.60623847 13.0791092,10.5340968 13.0791092,14.1457931 L13.0791092,22.139587 L0,22.139587 L0,14.1457931 C1.33405161e-15,10.5340968 2.92785832,7.60623847 6.5395546,7.60623847 Z" id="Rectangle-2" fill="#1B1B1B" opacity="0.699999988"></path>
                                                    <ellipse id="Oval" fill="#828282" cx="6.47143424" cy="4.95763757" rx="4.97278631" ry="4.95763757"></ellipse>
                                                </g>
                                            </g>
                                        </g>
                                        <g id="user" transform="translate(20.916309, 33.651740)">
                                            <mask id="mask-10" fill="white">
                                                <use xlink:href="#path-9"></use>
                                            </mask>
                                            <use id="Mask" fill="#535353" xlink:href="#path-9"></use>
                                            <g id="avatar" mask="url(#mask-10)">
                                                <g transform="translate(3.390880, 6.439144)">
                                                    <path d="M6.5395546,7.60623847 C10.1512509,7.60623847 13.0791092,10.5340968 13.0791092,14.1457931 L13.0791092,22.139587 L0,22.139587 L0,14.1457931 C-4.42305228e-16,10.5340968 2.92785832,7.60623847 6.5395546,7.60623847 Z" id="Rectangle-2" fill="#1B1B1B" opacity="0.699999988"></path>
                                                    <ellipse id="Oval" fill="#828282" cx="6.47143424" cy="4.95763757" rx="4.97278631" ry="4.95763757"></ellipse>
                                                </g>
                                            </g>
                                        </g>
                                        <path d="M25.2994358,0 L42.2774769,0 C44.39261,1.49007192e-15 46.1072641,1.71465415 46.1072641,3.82978723 L46.1072641,27.7687256 C46.1072641,29.8838587 44.39261,31.5985128 42.2774769,31.5985128 L21.4696486,31.5985128 L21.4696486,3.82978723 C21.4696486,1.71465415 23.1843027,-9.43723985e-16 25.2994358,0 Z" id="empty-slot" stroke="#828282" stroke-width="1.34042553" opacity="0.325279021" stroke-linecap="round" stroke-linejoin="round" stroke-dasharray="1.531914893617021,3.829787234042553"></path>
                                        <path d="M34.7814877,14.9444439 L38.7083148,14.9444439 C39.1821046,14.9444439 39.5661872,15.3285264 39.5661872,15.8023162 L39.5661872,15.904446 C39.5661872,16.3782358 39.1821046,16.7623183 38.7083148,16.7623183 L34.7814877,16.7623183 L34.7814877,20.6891455 C34.7814877,21.1629353 34.3974051,21.5470178 33.9236153,21.5470178 L33.8214856,21.5470178 C33.3476958,21.5470178 32.9636132,21.1629353 32.9636132,20.6891455 L32.9636132,16.7623183 L29.0367861,16.7623183 C28.5629963,16.7623183 28.1789137,16.3782358 28.1789137,15.904446 L28.1789137,15.8023162 C28.1789137,15.3285264 28.5629963,14.9444439 29.0367861,14.9444439 L32.9636132,14.9444439 L32.9636132,11.0176167 C32.9636132,10.5438269 33.3476958,10.1597444 33.8214856,10.1597444 L33.9236153,10.1597444 C34.3974051,10.1597444 34.7814877,10.5438269 34.7814877,11.0176167 L34.7814877,14.9444439 Z" id="plus" fill="#585758"></path>
                                    </g>
                                </g>
                            </g>
                        </g>
                    </g>
                    <g id="my-friends" mask="url(#mask-2)">
                        <g transform="translate(39.074225, 15.910543)">
                            <path d="M14.7758867,0 L139.392228,0 L139.392228,29.5207668 L14.7758867,29.5207668 C6.63262436,29.5207668 0.0312058845,22.9193483 0.0312058845,14.7760859 L0.0312058845,14.7446809 C0.0312058845,6.60141848 6.63262436,3.27224987e-15 14.7758867,0 Z" id="base" fill="#1B1B1B"></path>
                            <g id="user" stroke-width="1" fill="none" transform="translate(3.450479, 2.875399)">
                                <ellipse id="Oval-6" fill="#454445" cx="11.8375838" cy="11.7968022" rx="11.8375838" ry="11.7968022"></ellipse>
                                <path d="M12.7255496,11.037986 L16.2360625,11.037986 C16.6907473,11.037986 17.0593421,11.4065809 17.0593421,11.8612656 C17.0593421,12.3159503 16.6907473,12.6845451 16.2360625,12.6845451 L12.7255496,12.6845451 L12.7255496,16.195058 C12.7255496,16.6497428 12.3569548,17.0183376 11.9022701,17.0183376 C11.4475853,17.0183376 11.0789905,16.6497428 11.0789905,16.195058 L11.0789905,12.6845451 L7.56847764,12.6845451 C7.1137929,12.6845451 6.74519809,12.3159503 6.74519809,11.8612656 C6.74519809,11.4065809 7.1137929,11.037986 7.56847764,11.037986 L11.0789905,11.037986 L11.0789905,7.52747315 C11.0789905,7.07278841 11.4475853,6.7041936 11.9022701,6.7041936 C12.3569548,6.7041936 12.7255496,7.07278841 12.7255496,7.52747315 L12.7255496,11.037986 Z" id="Combined-Shape" fill="#585758" opacity="0.900000036"></path>
                            </g>
                            <g id="user" stroke-width="1" fill="none" transform="translate(30.216212, 2.875399)">
                                <mask id="mask-12" fill="white">
                                    <use xlink:href="#path-11"></use>
                                </mask>
                                <use id="Oval-6" fill="#454445" xlink:href="#path-11"></use>
                                <path d="M11.8625236,13.0216068 C15.2806927,13.0216068 18.0516663,15.7925804 18.0516663,19.2107495 L18.0516663,26.8167744 L5.67338084,26.8167744 L5.67338084,19.2107495 C5.67338084,15.7925804 8.44435443,13.0216068 11.8625236,13.0216068 Z" id="Rectangle-2" fill="#1B1B1B" opacity="0.699999988" mask="url(#mask-12)"></path>
                                <ellipse id="Oval" fill="#828282" mask="url(#mask-12)" cx="11.7980533" cy="10.5075342" rx="4.70632729" ry="4.7058282"></ellipse>
                            </g>
                            <g id="user" stroke-width="1" fill="none" transform="translate(56.805855, 2.875399)">
                                <mask id="mask-14" fill="white">
                                    <use xlink:href="#path-13"></use>
                                </mask>
                                <use id="Oval-6" fill="#454445" xlink:href="#path-13"></use>
                                <path d="M11.8625236,13.0216068 C15.2806927,13.0216068 18.0516663,15.7925804 18.0516663,19.2107495 L18.0516663,26.8167744 L5.67338084,26.8167744 L5.67338084,19.2107495 C5.67338084,15.7925804 8.44435443,13.0216068 11.8625236,13.0216068 Z" id="Rectangle-2" fill="#1B1B1B" opacity="0.699999988" mask="url(#mask-14)"></path>
                                <ellipse id="Oval" fill="#828282" mask="url(#mask-14)" cx="11.7980533" cy="10.3786074" rx="4.57738682" ry="4.5769014"></ellipse>
                            </g>
                            <g id="user" opacity="0.600000024" stroke-width="1" fill="none" transform="translate(110.095739, 2.875399)">
                                <mask id="mask-16" fill="white">
                                    <use xlink:href="#path-15"></use>
                                </mask>
                                <use id="Oval-6" fill="#454445" xlink:href="#path-15"></use>
                                <path d="M11.8625236,13.0216068 C15.2806927,13.0216068 18.0516663,15.7925804 18.0516663,19.2107495 L18.0516663,26.8167744 L5.67338084,26.8167744 L5.67338084,19.2107495 C5.67338084,15.7925804 8.44435443,13.0216068 11.8625236,13.0216068 Z" id="Rectangle-2" fill="#1B1B1B" opacity="0.699999988" mask="url(#mask-16)"></path>
                                <ellipse id="Oval" fill="#828282" mask="url(#mask-16)" cx="11.7980533" cy="10.3786074" rx="4.57738682" ry="4.5769014"></ellipse>
                            </g>
                            <g id="empty-slot" stroke-width="1" fill="none" transform="translate(83.395497, 2.875399)">
                                <mask id="mask-18" fill="white">
                                    <use xlink:href="#path-17"></use>
                                </mask>
                                <use id="Oval-6" fill="#454445" xlink:href="#path-17"></use>
                            </g>
                        </g>
                    </g>
                    <g id="new-contact" filter="url(#filter-19)" mask="url(#mask-2)">
                        <g transform="translate(78.404785, 50.757113)">
                            <mask id="mask-21" fill="white">
                                <use xlink:href="#path-20"></use>
                            </mask>
                            <use id="base" stroke="none" fill="#454445" fill-rule="evenodd" xlink:href="#path-20"></use>
                            <g id="avatar" stroke="none" stroke-width="1" fill="none" fill-rule="evenodd" mask="url(#mask-21)">
                                <g transform="translate(8.242812, 8.434505)">
                                    <path d="M9.10208782,10.5812361 C14.1105665,10.5812361 18.1707408,14.6414103 18.1707408,19.649889 L18.1707408,30.8294786 L0.0334348763,30.8294786 L0.0334348763,19.649889 C0.0334348763,14.6414103 4.0936091,10.5812361 9.10208782,10.5812361 Z" id="Rectangle-2" fill="#1B1B1B" opacity="0.699999988"></path>
                                    <ellipse id="Oval" fill="#828282" cx="9.01404265" cy="6.70765922" rx="6.69143324" ry="6.69072363"></ellipse>
                                </g>
                            </g>
                        </g>
                    </g>
                    <g id="hand" mask="url(#mask-2)">
                        <g transform="translate(82.619808, 74.376997)">
                            <g id="hand" stroke-width="1" fill="none" transform="translate(1.807712, 0.114315)">
                                <mask id="mask-23" fill="white">
                                    <use xlink:href="#path-22"></use>
                                </mask>
                                <use id="Mask" fill="#828282" xlink:href="#path-22"></use>
                                <path d="M28.0233197,80.3047757 C16.6264727,51.4582986 13.6514544,41.096678 19.0982647,49.2199139 C27.3328314,61.5007395 33.569386,85.9667992 35.1593413,91.6848673 C34.7157802,90.8989731 34.0422529,89.7954691 33.1387592,88.3743553 C33.876556,89.7192522 34.4071964,90.8507883 34.7306803,91.7689636 C32.4309021,91.7689636 28.5160763,91.4334071 24.6602002,85.2276884 C20.8043241,79.0219698 12.834234,61.4636094 12.834234,59.8128332 C12.834234,58.7123157 17.1769758,64.5199268 25.8624593,77.2356666 C26.6306027,78.3079928 27.3508895,79.3310292 28.0233197,80.3047757 Z" id="形状结合" fill="#000000" style="mix-blend-mode: multiply;" opacity="0.1" mask="url(#mask-23)"></path>
                                <path d="M45.5343512,55.9300457 C45.5343512,52.2252323 41.787147,32.5228673 39.5913241,30.6061341 C38.1274421,29.328312 36.9959417,31.1354865 36.1968229,36.0276576 C41.8147166,48.317779 44.927226,54.9519083 45.5343512,55.9300457 Z" id="Path-5" fill="#000000" style="mix-blend-mode: multiply;" opacity="0.1" mask="url(#mask-23)"></path>
                                <path d="M65.0410183,49.2090451 C65.0410183,47.7919034 64.5069259,35.9076809 62.2732215,33.8283356 C60.7840851,32.4421054 59.7749085,33.4104712 59.2456916,36.7334329 C61.5335948,41.0330261 62.9830769,43.916155 63.5941377,45.3828197 C64.7938494,48.2623604 65.0410183,49.7446211 65.0410183,49.2090451 Z" id="Path-6" fill="#000000" style="mix-blend-mode: multiply;" opacity="0.1" mask="url(#mask-23)"></path>
                                <path d="M80.5631117,46.5068886 C80.5631117,45.6586357 80.9852703,41.6747721 79.8522461,39.2052619 C79.0968967,37.5589217 78.6022834,38.2077794 78.3684064,41.1518349 C79.8315433,45.2873726 80.5631117,47.0723904 80.5631117,46.5068886 Z" id="Path-7" fill="#000000" style="mix-blend-mode: multiply;" opacity="0.1" mask="url(#mask-23)"></path>
                                <path d="M8.29164644,11.0551681 C6.95208507,7.01788309 6.01005193,5.6903673 6.01005193,4.12565422 C6.01005193,2.56094115 6.15143699,0.412945877 8.58173354,-0.756523361 C11.0120301,-1.9259926 13.7917785,-0.441853883 14.7368938,1.18295888 C15.6820091,2.80777164 17.6081977,5.8097226 17.6081977,7.44433267 C17.6081977,10.512245 10.3477685,13.8578631 8.29164644,11.0551681 Z" id="Path-2" fill="#9B9B9B" mask="url(#mask-23)"></path>
                            </g>
                            <path d="M5.24922512,68.8803121 C7.51209081,68.8803121 10.3993984,66.4765362 10.3993984,65.1548876 C10.3993984,63.833239 6.84302979,58.0113047 5.84079435,56.817311 C4.8385589,55.6233173 0.0106161039,57.6366891 1.02179638,60.4907679 C2.03297665,63.3448468 3.35220456,65.5465076 5.24922512,68.8803121 Z" id="thumb-nail" fill="#9B9B9B" transform="translate(5.641399, 62.673584) rotate(8.000000) translate(-5.641399, -62.673584) "></path>
                        </g>
                    </g>
                </g>
            </g>
        </g>
    </g>
</svg>