<?xml version="1.0" encoding="UTF-8"?>
<svg width="16px" height="16px" viewBox="0 0 16 16" version="1.1" xmlns="http://www.w3.org/2000/svg" xmlns:xlink="http://www.w3.org/1999/xlink">
    <!-- Generator: Sketch 59.1 (86144) - https://sketch.com -->
    <title>admin-config</title>
    <desc>Created with Sketch.</desc>
    <g id="页面1" stroke="none" stroke-width="1" fill="none" fill-rule="evenodd">
        <g id="配置管理" transform="translate(-27.000000, -123.000000)">
            <g id="编组-5" transform="translate(27.000000, 123.000000)">
                <g id="tabicon/登录页面">
                    <circle id="椭圆形" fill="#232323" cx="8" cy="8" r="8"></circle>
                    <g id="个人信息设置" stroke-width="1" transform="translate(2.000000, 1.600000)">
                        <circle id="椭圆形" fill="#232323" cx="6.15599971" cy="5.76719973" r="1.29599994"></circle>
                        <g id="wenzi-yemian-bianji" fill-rule="nonzero">
                            <path d="M9.19147457,0.21505499 C8.89501459,-0.0814049962 8.39362461,-0.0603449972 8.07124463,0.262034988 L6.63997469,1.69249492 L10.0751845,5.12689476 L11.5056445,3.69724483 C11.8280245,3.37486484 11.8490845,2.87347487 11.5526245,2.57701488 L9.19147457,0.21505499 Z M0.607904972,7.72780464 L0.00769499964,11.7616045 L4.04392481,11.1646345 L0.607904972,7.72780464 Z" id="形状"></path>
                            <path d="M1.80103492,7.97485463 L6.96559468,2.81110487 L9.24655457,5.11150476 L4.08280481,10.2752545 L1.80103492,7.97485463 Z M9.28786457,1.40818493 C9.03352458,1.15384495 8.6034146,1.17247495 8.32801461,1.44868493 L7.53826465,2.2376249 L9.81922454,4.53802479 L10.6089745,3.74908483 C10.8851845,3.47287484 10.9030045,3.04276486 10.6494745,2.78842487 L9.28786457,1.40818493 Z M1.31017494,8.5920746 L0.954584956,11.1087445 L3.46558484,10.7661145 L1.31017494,8.5920746 Z" id="形状" fill="#006064"></path>
                        </g>
                    </g>
                </g>
            </g>
        </g>
    </g>
</svg>