<?xml version="1.0" encoding="UTF-8"?>
<svg width="175px" height="139px" viewBox="0 0 175 139" version="1.1" xmlns="http://www.w3.org/2000/svg" xmlns:xlink="http://www.w3.org/1999/xlink">
    <!-- Generator: Sketch 55.2 (78181) - https://sketchapp.com -->
    <title>apps-empty</title>
    <desc>Created with Sketch.</desc>
    <defs>
        <polygon id="path-1" points="18.0791961 0 0 29.3063188 69.8778233 48.9613924 90.1559967 17.463278"></polygon>
        <path d="M0,9.70603013 C3.7585263,7.14263327 5.72888937,3.94891816 5.91108919,0.124884797 C6.8980058,-0.0221764407 8.80438945,0.161317333 13.5875335,0.992149258 C14.0329694,1.06952145 14.0723555,1.77541085 13.7056918,3.10981744 C15.3183359,3.70058559 16.0572524,4.26332576 15.9224414,4.79803793 C14.7536316,9.43398416 13.2073397,11.5476379 10.8736305,12.5408812 C8.19666327,12.8803859 4.57211975,11.9354355 0,9.70603013 Z" id="path-3"></path>
        <filter x="-22.0%" y="-27.9%" width="143.9%" height="211.7%" filterUnits="objectBoundingBox" id="filter-4">
            <feOffset dx="0" dy="7" in="SourceAlpha" result="shadowOffsetOuter1"></feOffset>
            <feColorMatrix values="0 0 0 0 0.105882353   0 0 0 0 0.207843137   0 0 0 0 0.329411765  0 0 0 0.272192029 0" type="matrix" in="shadowOffsetOuter1"></feColorMatrix>
        </filter>
        <path d="M9.9715861,3.33116223 C10.8607744,8.7386572 7.0204382,14.2597859 2.22860863,18.1930511 C6.26072434,20.3661847 13.5799416,23.3960069 19.4966841,25.2356501 C19.7781507,25.3231642 20.6613188,25.2164127 20.935962,25.264424 C22.5963559,25.5546832 23.5328824,24.3569561 24.1649206,23.9968714 C26.7679302,21.276369 29.3296734,19.3124371 30.629685,15.4940871 C31.2962256,13.5363463 31.6726315,11.8690389 31.6881271,11.1529421 C29.5754578,9.2003067 24.5320974,9.25004354 9.9715861,3.33116223 Z" id="path-5"></path>
        <filter x="-11.9%" y="-15.9%" width="123.8%" height="163.7%" filterUnits="objectBoundingBox" id="filter-6">
            <feOffset dx="0" dy="7" in="SourceAlpha" result="shadowOffsetOuter1"></feOffset>
            <feColorMatrix values="0 0 0 0 0.105882353   0 0 0 0 0.207843137   0 0 0 0 0.329411765  0 0 0 0.270720109 0" type="matrix" in="shadowOffsetOuter1"></feColorMatrix>
        </filter>
    </defs>
    <g id="页面1" stroke="none" stroke-width="1" fill="none" fill-rule="evenodd">
        <g id="切图画板" transform="translate(-446.000000, -391.000000)">
            <g id="编组-15" transform="translate(446.000000, 385.000000)">
                <g id="编组-4" transform="translate(3.000000, 0.000000)">
                    <g id="Artwork">
                        <g id="Box" transform="translate(0.302521, 33.838806)">
                            <polygon id="side" fill="#2A2A2A" transform="translate(44.881102, 45.251043) scale(-1, 1) translate(-44.881102, -45.251043) " points="17.7858769 0.120724316 71.9763274 19.5161892 71.9763274 90.3813625 18.399183 70.9858976"></polygon>
                            <polygon id="side" fill="#454445" points="71.7568137 0.120724316 143.621776 17.5835026 143.621776 88.4486759 71.7568137 70.9858976"></polygon>
                            <polygon id="side" fill="#E8EAEC" points="17.7858769 19.4475898 89.650839 36.9103681 89.650839 110.996686 17.7858769 90.312763"></polygon>
                            <polygon id="side" fill="#2A2A2A" points="17.7858769 19.4475898 89.650839 36.9103681 89.650839 110.996686 17.7858769 90.312763"></polygon>
                            <polygon id="side" fill="#E8EAEC" transform="translate(116.944569, 64.255794) scale(-1, 1) translate(-116.944569, -64.255794) " points="89.5426906 17.5149032 144.346447 36.9103681 144.346447 110.996686 90.1559967 88.3800765"></polygon>
                            <polygon id="side" fill="#0F0F0F" style="mix-blend-mode: multiply;" transform="translate(116.944569, 64.255794) scale(-1, 1) translate(-116.944569, -64.255794) " points="89.5426906 17.5149032 144.346447 36.9103681 144.346447 110.996686 90.1559967 88.3800765"></polygon>
                            <polygon id="lid" fill="#2A2A2A" transform="translate(126.336963, 42.989247) scale(-1, 1) translate(-126.336963, -42.989247) " points="108.555139 17.4627398 89.3954938 45.519413 144.856648 68.5157537 163.278433 36.4160974"></polygon>
                            <g id="lid" transform="translate(0.000000, 18.803361)">
                                <mask id="mask-2" fill="white">
                                    <use xlink:href="#path-1"></use>
                                </mask>
                                <use id="Mask" fill="#454445" xlink:href="#path-1"></use>
                            </g>
                        </g>
                        <g id="green" transform="translate(10.337694, 12.219036) rotate(42.000000) translate(-10.337694, -12.219036) translate(2.337694, 5.719036)">
                            <path d="M13.7029707,1.04491594 C14.2167785,1.5497497 14.65477,2.03927826 15.016945,2.51350164 C15.7708974,3.50070887 15.9960054,4.86524282 15.9435822,4.89970523 C15.6575839,5.08771697 14.022399,4.00314181 13.7029707,3.12225157 C13.5114733,2.59415754 13.5114733,1.90171233 13.7029707,1.04491594 Z" id="Path-12" fill="#2A2A2A"></path>
                            <g id="Path-9">
                                <use fill="black" fill-opacity="1" filter="url(#filter-4)" xlink:href="#path-3"></use>
                                <use fill="#454445" fill-rule="evenodd" xlink:href="#path-3"></use>
                            </g>
                        </g>
                        <g id="pink-" transform="translate(157.291880, 22.402981) rotate(43.000000) translate(-157.291880, -22.402981) translate(140.291880, 7.902981)">
                            <g id="Path-10" transform="translate(16.958368, 14.320251) rotate(-14.000000) translate(-16.958368, -14.320251) ">
                                <use fill="black" fill-opacity="1" filter="url(#filter-6)" xlink:href="#path-5"></use>
                                <use fill="#2A2A2A" fill-rule="evenodd" xlink:href="#path-5"></use>
                            </g>
                            <path d="M23.6539691,20.4618602 C24.738343,21.5194497 23.7339654,24.3418146 21.6030574,24.2923848 C23.8669247,24.3226617 25.088063,23.5037729 25.9675943,22.6821803 C26.8471255,21.8605877 30.9762871,18.0468056 30.4700921,7.70202911 C30.53635,16.4473206 28.3754266,20.716531 23.6539691,20.4618602 Z" id="Path-11" fill="#0D0D0D"></path>
                        </g>
                    </g>
                </g>
            </g>
        </g>
    </g>
</svg>