<?xml version="1.0" encoding="UTF-8"?>
<svg width="167px" height="183px" viewBox="0 0 167 183" version="1.1" xmlns="http://www.w3.org/2000/svg" xmlns:xlink="http://www.w3.org/1999/xlink">
    <!-- Generator: Sketch 55.2 (78181) - https://sketchapp.com -->
    <title>bug</title>
    <desc>Created with Sketch.</desc>
    <g id="页面1" stroke="none" stroke-width="1" fill="none" fill-rule="evenodd">
        <g id="切图画板" transform="translate(-1716.000000, -371.000000)">
            <g id="编组-22" transform="translate(1716.000000, 371.000000)">
                <g id="编组-21">
                    <g id="编组-3">
                        <g id="编组">
                            <g id="phone" transform="translate(0.614495, 10.888988)">
                                <path d="M163.884009,72.7969449 L154.617795,67.4775933 L154.454341,67.5718561 L93.7474788,102.653899 C93.2657254,102.929941 92.7629216,103.167954 92.2437008,103.365746 L101.642313,108.761483 C104.872167,110.615861 110.09616,110.615861 113.306399,108.761483 L163.921604,79.5074867 C167.131843,77.6596092 167.113863,74.6513233 163.884009,72.7969449 Z" id="Path" fill="#0F0F0F"></path>
                                <path d="M160.520123,74.3100266 L109.904919,103.555897 C106.69468,105.410275 101.470686,105.410275 98.2408327,103.555897 L2.51719352,48.6055151 C0.882652274,47.6710124 0.07845798,46.445595 0.0817270625,45.2218028 L0.06538165,48.6217673 C0.06538165,49.8439343 0.872845027,51.0693517 2.49921357,52.0038544 L98.2228527,106.954236 C101.454341,108.808615 106.678335,108.808615 109.888574,106.954236 L160.503778,77.7002398 C162.097456,76.7787389 162.896746,75.5728242 162.900015,74.363659 L162.916361,70.9653197 C162.913092,72.1809858 162.113801,73.3885258 160.520123,74.3100266 Z" id="Path" fill="#454445"></path>
                                <path d="M160.482529,67.5913588 C163.712382,69.4457371 163.730362,72.4540231 160.520123,74.3100266 L109.904919,103.555897 C106.69468,105.410275 101.470686,105.410275 98.2408327,103.555897 L2.51719352,48.6055151 C-0.715929067,46.7495115 -0.73227448,43.7412256 2.47796453,41.8868472 L53.0931689,12.6328508 C56.3034079,10.7768472 61.5257672,10.7768472 64.7588897,12.6328508 L160.482529,67.5913588 Z" id="Path" fill="#2A2A2A"></path>
                                <polygon id="Path" fill="#828282" points="65.6546184 15.2559591 6.71796453 49.3108615 96.9495451 101.109938 155.887833 67.0534103"></polygon>
                                <path d="M39.9285736,26.3578508 L26.8914726,33.8419982 C26.4141866,34.1166607 25.6900848,34.1459147 25.2749113,33.9086323 L25.1572244,33.8419982 C24.7436854,33.6030906 24.7959907,33.1919094 25.2749113,32.9123712 L38.3103778,25.4363499 C38.7892984,25.1616874 39.5134002,25.1308082 39.9269391,25.3697158 L40.0446261,25.4363499 C40.4597995,25.6687567 40.4074942,26.0831883 39.9285736,26.3578508 Z" id="Path" fill="#F9FAFA"></path>
                                <path d="M138.985042,82.2931172 L125.947941,89.7691385 C125.469021,90.0454263 124.744919,90.0746803 124.33138,89.8357726 L124.213693,89.7691385 C123.800154,89.5318561 123.85246,89.1190497 124.329746,88.8411368 L137.366847,81.3651155 C137.845767,81.0904529 138.569869,81.0611989 138.983408,81.2984813 L139.101095,81.3667407 C139.514634,81.6023979 139.463963,82.0184547 138.985042,82.2931172 Z" id="Path" fill="#828282"></path>
                                <polygon id="Path" fill="#0C0C0C" opacity="0.6" points="65.6546184 9.44741563 6.71796453 43.5039432 96.9495451 95.3013943 155.887833 61.246492"></polygon>
                                <polygon id="Path" fill="#0C0C0C" opacity="0.6" points="65.6546184 0.0975133215 6.71796453 34.1540409 96.9495451 85.951492 155.887833 51.8965897"></polygon>
                            </g>
                            <g id="box_code2" transform="translate(134.483423, 9.426288)">
                                <path d="M29.4217425,8.66243339 C29.4223482,8.67596501 29.4223482,8.68953233 29.4217425,8.70306394 L29.4119352,8.73556838 L29.402128,8.77457371 L29.3874171,8.80707815 C29.3821119,8.82091251 29.376111,8.83447312 29.3694372,8.8477087 L29.3514572,8.8769627 L29.3204009,8.92084369 C29.3099927,8.93624179 29.2985234,8.95090394 29.2860756,8.96472469 L29.2860756,8.97447602 L29.2305012,9.02810835 C29.2176134,9.03982454 29.2039626,9.05068292 29.1896376,9.06061279 L29.1536777,9.08986679 C29.1385106,9.10109059 29.1226818,9.11140209 29.106276,9.120746 C29.0905723,9.13250867 29.0741998,9.14336148 29.0572398,9.15325044 L15.7063069,16.8681794 C15.6670779,16.8893073 15.6262143,16.9104352 15.5837163,16.9299378 L15.5461218,16.9445648 C15.5112516,16.9586501 15.4769262,16.9716519 15.4431457,16.9835702 L15.4055513,16.9965719 L15.3385351,17.0160746 L15.2862298,17.0290764 L15.2143099,17.0453286 L15.1652737,17.0550799 L15.0165305,17.0762078 L14.9707633,17.0762078 L14.8824981,17.0762078 L14.6928913,17.0762078 L14.6275096,17.0762078 C14.6073854,17.0778811 14.5871558,17.0778811 14.5670316,17.0762078 L14.50165,17.0762078 L14.4428065,17.0680817 L14.3741557,17.0567052 L14.3202159,17.0453286 L14.2384888,17.0258259 L14.1943562,17.0128242 C14.1465529,17.0000563 14.0996036,16.9843148 14.0537857,16.9656927 L13.9867695,16.9380639 L13.9540786,16.9234369 C13.9197533,16.9088099 13.888697,16.8909325 13.8576407,16.8746803 L0.420077101,9.15975133 C0.22971729,9.06992303 0.0899320446,8.89991592 0.03922899,8.69656306 C0.0376142067,8.67221116 0.0376142067,8.64777996 0.03922899,8.62342806 L0.0228835775,26.0360568 C0.0228835775,26.2310835 0.150377795,26.4244849 0.408635312,26.5723801 L13.8461989,34.2873091 C13.8772552,34.3051865 13.909946,34.3214387 13.9426369,34.3376909 L13.9753277,34.3506927 L14.0341712,34.3766963 L14.0341712,34.3766963 C14.0799383,34.3929485 14.1257055,34.4092007 14.1747417,34.4238277 L14.1861835,34.4238277 L14.2188743,34.4319538 C14.2466615,34.4319538 14.2728142,34.4465808 14.3006014,34.4514565 L14.3218504,34.4514565 L14.3545412,34.4514565 L14.423192,34.462833 L14.4509792,34.462833 L14.4820355,34.462833 L14.5474171,34.4709591 L14.5784734,34.4709591 L14.6078951,34.4709591 L14.6732768,34.4709591 L14.8628836,34.4709591 L14.9511488,34.4709591 L14.996916,34.4709591 C15.0468247,34.4664236 15.0964696,34.4593719 15.1456592,34.4498313 L15.1456592,34.4498313 L15.1865227,34.4400799 L15.2600771,34.4254529 L15.3107479,34.4108259 C15.3336315,34.4108259 15.356515,34.3994494 15.3777641,34.3913233 L15.3924749,34.3913233 L15.4153585,34.3831972 L15.5183346,34.3441918 L15.5559291,34.3279396 C15.5984271,34.3084369 15.6392907,34.2889343 15.6785197,34.2661812 L29.0294526,26.5512522 L29.045798,26.5415009 L29.0784888,26.520373 L29.1258905,26.4894938 L29.163485,26.4602398 L29.202714,26.4277353 L29.202714,26.4277353 C29.2193147,26.4128411 29.235136,26.39711 29.2501157,26.3806039 L29.2501157,26.3708526 L29.2762683,26.3415986 L29.2762683,26.3285968 C29.2877101,26.3139698 29.2975173,26.2977176 29.3073246,26.2830906 C29.3122442,26.2769793 29.3166195,26.2704537 29.3204009,26.2635879 L29.3204009,26.2538366 L29.3400154,26.213206 C29.3439708,26.2059326 29.3472533,26.198317 29.3498227,26.1904529 C29.3498227,26.1904529 29.3498227,26.1904529 29.3498227,26.1823268 C29.3543873,26.1695545 29.3582076,26.1565311 29.3612645,26.1433215 C29.3612645,26.1335702 29.3612645,26.125444 29.3612645,26.1173179 C29.3620364,26.1146636 29.3620364,26.1118462 29.3612645,26.1091918 L29.3612645,26.0685613 C29.3604703,26.0599114 29.3604703,26.0512076 29.3612645,26.0425577 L29.3612645,26.0311812 L29.3776099,8.61692718 C29.3938169,8.63058754 29.408602,8.64583289 29.4217425,8.66243339 Z" id="Path" fill="#2A2A2A"></path>
                                <path d="M29.4217425,8.70306394 L29.4119352,8.73556838 L29.402128,8.77457371 L29.3874171,8.80707815 C29.3821119,8.82091251 29.376111,8.83447312 29.3694372,8.8477087 L29.3514572,8.8769627 L29.3204009,8.92084369 C29.3099927,8.93624179 29.2985234,8.95090394 29.2860756,8.96472469 L29.2860756,8.97447602 L29.2305012,9.02810835 C29.2176134,9.03982454 29.2039626,9.05068292 29.1896376,9.06061279 L29.1536777,9.08986679 C29.1385106,9.10109059 29.1226818,9.11140209 29.106276,9.120746 C29.0905723,9.13250867 29.0741998,9.14336148 29.0572398,9.15325044 L15.7063069,16.8681794 C15.6670779,16.8893073 15.6262143,16.9104352 15.5837163,16.9299378 L15.5461218,16.9445648 C15.5112516,16.9586501 15.4769262,16.9716519 15.4431457,16.9835702 L15.4055513,16.9965719 L15.3385351,17.0160746 L15.2862298,17.0290764 L15.2143099,17.0453286 L15.1652737,17.0550799 L15.0165305,17.0762078 L14.9707633,17.0762078 L14.8824981,17.0762078 L14.7190439,17.0762078 L14.7190439,34.5002131 L14.8645181,34.5002131 L14.9527833,34.5002131 L14.9985505,34.5002131 C15.0484592,34.4956776 15.0981042,34.4886259 15.1472938,34.4790853 L15.1472938,34.4790853 L15.1881573,34.4693339 L15.2617116,34.4547069 L15.3123824,34.4400799 C15.335266,34.4400799 15.3581496,34.4287034 15.3793986,34.4205773 L15.3941095,34.4205773 L15.4169931,34.4124512 L15.5199692,34.3734458 L15.5575636,34.3571936 C15.6000617,34.3376909 15.6409252,34.3181883 15.6801542,34.2954352 L29.0310871,26.5805062 L29.0474325,26.5707549 L29.0801234,26.549627 L29.1275251,26.5187478 L29.1651195,26.4894938 L29.2043485,26.4569893 L29.2043485,26.4569893 C29.2209492,26.4420951 29.2367706,26.426364 29.2517502,26.4098579 L29.2517502,26.4001066 L29.2779029,26.3708526 L29.2779029,26.3578508 C29.2893446,26.3432238 29.2991519,26.3269716 29.3089591,26.3123446 C29.3138788,26.3062333 29.3182541,26.2997077 29.3220355,26.2928419 L29.3220355,26.2830906 L29.34165,26.24246 C29.3456053,26.2351866 29.3488879,26.227571 29.3514572,26.2197069 C29.3514572,26.2197069 29.3514572,26.2197069 29.3514572,26.2115808 C29.3560218,26.1988085 29.3598421,26.1857851 29.362899,26.1725755 C29.362899,26.1628242 29.362899,26.154698 29.362899,26.1465719 C29.3636709,26.1439176 29.3636709,26.1411002 29.362899,26.1384458 L29.362899,26.0978153 C29.3621048,26.0891654 29.3621048,26.0804616 29.362899,26.0718117 L29.362899,26.0604352 L29.3792444,8.64618117 C29.380054,8.65917049 29.380054,8.67219719 29.3792444,8.6851865 C29.3937959,8.69019563 29.4079937,8.69616814 29.4217425,8.70306394 L29.4217425,8.70306394 Z" id="Path" fill="#2A2A2A"></path>
                                <path d="M15.730825,24.99754 C15.6891428,25.0217842 15.6460208,25.0434936 15.6016962,25.0625488 L15.5624672,25.0804263 L15.4545875,25.1210568 L15.4300694,25.1291829 L15.4153585,25.1291829 L15.3450732,25.1486856 L15.2911334,25.1633126 L15.2143099,25.1795648 L15.1701773,25.1893162 L15.1701773,25.1893162 C15.117872,25.1990675 15.0655667,25.2055684 15.0067232,25.2120693 L14.957687,25.2120693 L14.8661527,25.2120693 L14.6683732,25.2120693 L14.5997224,25.2120693 L14.5686662,25.2120693 L14.5359753,25.2120693 L14.4673246,25.2120693 L14.4346338,25.2120693 L14.405212,25.2120693 L14.3332922,25.1990675 L14.2989668,25.1990675 L14.2760833,25.1990675 L14.1910871,25.1779396 L14.1567618,25.1779396 L14.1436854,25.1779396 C14.0946492,25.1633126 14.045613,25.1470604 13.9982113,25.1291829 L13.9900386,25.1291829 L13.927926,25.1031794 L13.8919661,25.0885524 C13.8576407,25.0723002 13.8249499,25.0544227 13.7922591,25.0349201 L0.01307633,17.1249645 L0.01307633,18.6689254 C0.01307633,18.8623268 0.140570547,19.0573535 0.398828065,19.2052487 L13.8363917,26.9185524 C13.867448,26.9364298 13.9001388,26.9526821 13.9328296,26.9689343 L13.9655204,26.9835613 L14.0243639,27.0095648 L14.0243639,27.0095648 C14.0702724,27.0279441 14.1172069,27.0436806 14.1649345,27.0566963 L14.1763763,27.0566963 L14.2090671,27.0648224 L14.2907941,27.0859503 L14.3120432,27.0859503 L14.344734,27.0859503 L14.4133847,27.098952 L14.4411719,27.098952 L14.4722282,27.098952 L14.5376099,27.098952 L14.5686662,27.098952 L14.5980879,27.098952 L14.6634695,27.098952 L14.6977949,27.098952 L14.861249,27.098952 L14.9495143,27.098952 L14.9854742,27.098952 L14.9952814,27.098952 C15.0459522,27.098952 15.0949884,27.0875755 15.1440247,27.0794494 L15.1440247,27.0794494 L15.1848882,27.0713233 L15.2584426,27.055071 L15.3091133,27.0420693 L15.3761295,27.0225666 L15.3908404,27.0225666 L15.413724,27.0225666 C15.4487725,27.0115371 15.4831546,26.9985138 15.5167001,26.9835613 L15.5542945,26.9673091 C15.5964385,26.9493384 15.6373853,26.9287103 15.6768851,26.9055506 L29.027818,19.1922469 L29.0441635,19.1824956 L29.0768543,19.1597425 C29.0932601,19.1503985 29.1090889,19.140087 29.124256,19.1288632 L29.1618504,19.0996092 C29.1756495,19.089667 29.1887558,19.0788074 29.2010794,19.0671048 L29.2010794,19.0671048 C29.2174248,19.0508526 29.2337702,19.0362256 29.2484811,19.0199734 L29.2484811,19.010222 L29.2746338,18.980968 L29.2746338,18.966341 C29.2859155,18.9518205 29.2962872,18.936623 29.3056901,18.9208348 C29.3105775,18.9152762 29.3149537,18.9092931 29.3187664,18.9029574 L29.3187664,18.893206 L29.3383809,18.8525755 C29.3423475,18.8447443 29.3456287,18.8365881 29.3481881,18.8281972 C29.3481881,18.8281972 29.3481881,18.8281972 29.3481881,18.8281972 C29.3527528,18.8154248 29.356573,18.8024014 29.3596299,18.7891918 C29.3596299,18.7810657 29.3596299,18.7729396 29.3596299,18.7631883 L29.3596299,18.7225577 C29.3588412,18.7133648 29.3588412,18.7041218 29.3596299,18.694929 L29.3596299,17.136341 L15.730825,24.99754 Z" id="Path" fill="#828282"></path>
                                <path d="M29.045798,8.08873002 C29.5590439,8.38126998 29.5606785,8.85908526 29.045798,9.15325044 L15.6948651,16.8681794 C15.113756,17.1606954 14.4273079,17.1606954 13.8461989,16.8681794 L0.408635312,9.15325044 C-0.10461064,8.85908526 -0.106245181,8.3828952 0.408635312,8.08873002 L13.7595682,0.373801066 C14.3402969,0.0797048614 15.0275058,0.0797048614 15.6082344,0.373801066 L29.045798,8.08873002 Z" id="Path" fill="#828282"></path>
                                <path d="M10.8647957,6.72679396 L11.412367,6.41312611 C12.1005089,6.68453819 12.6235621,6.62440497 13.0076793,6.40337478 C13.6075559,6.05882771 14.2924287,5.48837478 14.9462452,5.11294849 C15.6547299,4.70528701 16.5290649,4.70839184 17.2346029,5.1210746 L17.6841018,5.3794849 L17.0760524,5.72890764 L16.7589514,5.54688277 C16.4044879,5.31249407 15.944343,5.30803356 15.5853508,5.53550622 C15.0018196,5.87030195 14.3022359,6.44075488 13.6631303,6.80805506 C13.0882365,7.13452692 12.39398,7.17890752 11.7817733,6.92832149 L11.7654279,6.9364476 C12.2230995,7.349254 12.0710871,7.72142984 11.5480339,8.02209591 C10.9089283,8.38777087 9.91349268,8.78920071 9.33159599,9.12562167 C8.91642251,9.36452931 8.96382421,9.57580817 9.35121049,9.79846359 L9.66831149,9.98048845 L9.06026214,10.3299112 L8.61403238,10.0763766 C7.93406322,9.68632327 7.845798,9.19388099 8.59932151,8.76157194 C9.25313801,8.38614565 10.2469391,7.99284192 10.8468157,7.64829485 C11.2309329,7.42401421 11.3388126,7.12172291 10.8647957,6.72679396 Z" id="Path" fill="#2A2A2A"></path>
                                <path d="M16.4189668,10.8304796 C15.8190902,11.1750266 15.1342174,11.7438544 14.4804009,12.1192806 C13.7738567,12.5311669 12.8985874,12.5311669 12.1920432,12.1192806 L11.7441789,11.8624956 L12.3505937,11.5130728 L12.6775019,11.6950977 C13.0313283,11.9296182 13.4911041,11.9340814 13.849468,11.7064742 C14.4346338,11.3700533 15.1342174,10.8012256 15.7716885,10.4339254 C16.3490638,10.106835 17.045313,10.060723 17.6612182,10.3087833 L17.6775636,10.3087833 C17.2117194,9.89922735 17.3637317,9.52867673 17.8867849,9.22801066 C18.5258905,8.86071048 19.5213261,8.45928064 20.1032228,8.1244849 C20.5183963,7.88557726 20.4709946,7.67267318 20.0852429,7.45164298 L19.7583346,7.2679929 L20.366384,6.92019538 L20.8158828,7.17698046 C21.495852,7.56865897 21.5841172,8.06110124 20.8305937,8.4934103 C20.1767772,8.86883659 19.1829761,9.2605151 18.5830995,9.60506217 C18.1989823,9.82609236 18.0927371,10.1267584 18.5651195,10.5216874 L18.0191827,10.8353552 C17.3261372,10.5476909 16.803084,10.6094494 16.4189668,10.8304796 Z" id="Path" fill="#2A2A2A"></path>
                            </g>
                            <g id="box_code" transform="translate(16.959907, 0.000000)">
                                <path d="M21.9894834,6.52201599 C21.9894834,6.53176732 21.9894834,6.54151865 21.9894834,6.5528952 C21.9894834,6.56427176 21.9894834,6.56914742 21.9894834,6.57727353 C21.9894834,6.58539964 21.9894834,6.5967762 21.9813107,6.60652753 L21.9715035,6.62928064 L21.9567926,6.66015986 L21.9437163,6.68128774 L21.9208327,6.71541741 L21.89468,6.74792185 L21.89468,6.74792185 L21.8538165,6.7885524 L21.8227602,6.81293073 L21.7966076,6.83405861 L21.7606476,6.85843694 C21.7489555,6.8673144 21.7363544,6.87494096 21.7230532,6.88119005 L11.7523516,12.6474778 L11.6608173,12.692984 L11.6330301,12.7059858 L11.5562066,12.7336146 L11.5284194,12.7433659 L11.4777487,12.7579929 L11.4401542,12.7677442 L11.3845798,12.7791208 L11.3486199,12.7791208 C11.31266,12.7791208 11.2750655,12.7904973 11.2374711,12.7937478 L11.2031457,12.7937478 L11.1361295,12.7937478 L10.995559,12.7937478 L10.9465227,12.7937478 L10.9007556,12.7937478 L10.8533539,12.7937478 L10.8092213,12.7937478 L10.756916,12.7839964 L10.7160524,12.7839964 C10.6955471,12.7806628 10.6753287,12.7757729 10.6555744,12.7693694 L10.6228836,12.7693694 C10.5869237,12.7579929 10.5509638,12.7466163 10.5182729,12.7336146 L10.4676022,12.7124867 L10.443084,12.7027353 L10.3711642,12.6653552 L0.305659214,6.88931616 C0.163483394,6.82129651 0.0592135622,6.69378775 0.0212490362,6.54151865 C0.019633449,6.52367729 0.019633449,6.50572768 0.0212490362,6.48788632 L0,13.1187922 C0.0161075642,13.2948601 0.126810493,13.4484631 0.289313801,13.520222 L10.3319352,19.2848845 C10.3550349,19.2989402 10.3790628,19.3114286 10.4038551,19.3222647 L10.4283732,19.3336412 L10.4725058,19.3531439 L10.4725058,19.3531439 L10.578751,19.3888988 L10.5869237,19.3888988 L10.6114418,19.3888988 L10.6719198,19.4035258 L10.6882652,19.4035258 L10.7127833,19.4035258 L10.7650887,19.4132771 L10.7847032,19.4132771 L10.8075867,19.4132771 L10.856623,19.4132771 L10.9023901,19.4132771 L10.9514264,19.4132771 L10.9759445,19.4132771 C10.9830043,19.4140828 10.9901337,19.4140828 10.9971935,19.4132771 C11.0151735,19.4132771 11.0315189,19.4132771 11.0494988,19.4132771 L11.0919969,19.4132771 L11.1590131,19.4132771 L11.1933385,19.4132771 C11.2309329,19.4132771 11.2685274,19.405151 11.3044873,19.3986501 L11.3044873,19.3986501 L11.3355436,19.3986501 L11.3894834,19.3872735 L11.4287124,19.3775222 L11.4793832,19.3628952 L11.4891904,19.3628952 L11.5071704,19.3628952 C11.5404267,19.3579628 11.5732253,19.3503534 11.6052429,19.3401421 L11.6330301,19.3287655 C11.6643607,19.3146805 11.6949153,19.2989477 11.7245644,19.2816341 L21.695266,13.5169716 L21.7083423,13.5169716 L21.7328604,13.5007194 L21.7688204,13.476341 L21.794973,13.4552131 L21.8260293,13.4308348 L21.8260293,13.4308348 L21.8619892,13.3950799 L21.8619892,13.3869538 L21.8816037,13.3658259 C21.8811343,13.3625922 21.8811343,13.3593083 21.8816037,13.3560746 L21.9044873,13.3219449 L21.9142945,13.3073179 C21.9142945,13.2959414 21.9241018,13.2861901 21.9273709,13.2764387 L21.9371781,13.2585613 C21.9371781,13.2488099 21.9371781,13.2390586 21.9453508,13.2309325 L21.9453508,13.2098046 C21.9453508,13.2000533 21.9453508,13.190302 21.9453508,13.1789254 C21.9453508,13.1675488 21.9453508,13.1659236 21.9453508,13.1594227 L21.9453508,13.1594227 L21.991118,6.5008881 C21.991118,6.5008881 21.9894834,6.51226465 21.9894834,6.52201599 Z" id="Path" fill="#2A2A2A"></path>
                                <path d="M21.9894834,11.0141297 L21.9894834,9.81146536 C21.9894834,9.8212167 21.9894834,9.83096803 21.9894834,9.84071936 C21.9894834,9.85047069 21.9894834,9.86022202 21.9894834,9.86997336 C21.9894834,9.87972469 21.9894834,9.8878508 21.9894834,9.89597691 C21.9894834,9.90410302 21.9894834,9.91547957 21.9813107,9.92523091 L21.9715035,9.94798401 L21.9567926,9.97886323 L21.9437163,9.99999112 L21.9208327,10.0341208 L21.89468,10.0666252 L21.89468,10.0666252 L21.8538165,10.1072558 L21.8227602,10.1316341 L21.7966076,10.152762 L21.7606476,10.1771403 C21.7489555,10.1860178 21.7363544,10.1936443 21.7230532,10.1998934 L11.7523516,15.9661812 L11.6608173,16.0116874 L11.6330301,16.0230639 C11.6081006,16.0344926 11.5824365,16.0442653 11.5562066,16.0523179 L11.5284194,16.0620693 L11.4777487,16.0766963 L11.4401542,16.0864476 L11.3845798,16.0978242 L11.3486199,16.0978242 C11.31266,16.0978242 11.2750655,16.1092007 11.2374711,16.1124512 L11.2031457,16.1124512 L11.1361295,16.1124512 L10.995559,16.1124512 L10.9465227,16.1124512 L10.9007556,16.1124512 L10.8533539,16.1124512 L10.8092213,16.1124512 L10.756916,16.1026998 L10.7160524,16.1026998 C10.6955471,16.0993662 10.6753287,16.0944763 10.6555744,16.0880728 L10.6228836,16.0880728 C10.5869237,16.0766963 10.5509638,16.0653197 10.5182729,16.0523179 L10.4676022,16.0311901 L10.443084,16.0214387 L10.3711642,15.9840586 L0.305659214,10.2063943 C0.16327438,10.1394633 0.0588011517,10.0123028 0.0212490362,9.86022202 C0.019633449,9.84238067 0.019633449,9.82443106 0.0212490362,9.8065897 L0.0212490362,11.0076288 L10.3188589,16.9234369 C10.3432507,16.9371892 10.3683478,16.9496662 10.3940478,16.9608171 L10.4202005,16.9721936 L10.4708712,16.9949467 L10.5803855,17.0323268 L10.6163454,17.0323268 L10.6800925,17.048579 L10.7225906,17.048579 L10.7765305,17.0583304 L10.8222976,17.0583304 L10.8729684,17.0583304 L10.9203701,17.0583304 L11.1148805,17.0583304 C11.137736,17.059925 11.1606757,17.059925 11.1835312,17.0583304 L11.2194911,17.0583304 L11.3355436,17.0420782 L11.3747726,17.0420782 L11.430347,17.0307016 L11.4712105,17.019325 L11.5235158,17.004698 L11.5529375,16.9949467 L11.6330301,16.9640675 L11.6624518,16.9510657 L11.7588897,16.9039343" id="Path" fill="#828282"></path>
                                <path d="M21.7034387,6.09295737 C22.0859214,6.31236234 22.0875559,6.66828597 21.7034387,6.88769094 L11.7327371,12.6539787 C11.2987904,12.8734199 10.7854964,12.8734199 10.3515497,12.6539787 L0.305659214,6.88931616 C-0.0768234387,6.66828597 -0.0800925212,6.31236234 0.305659214,6.09295737 L10.2779954,0.325044405 C10.7125126,0.10558015 11.2263001,0.10558015 11.6608173,0.325044405 L21.7034387,6.09295737 Z" id="Path" fill="#828282"></path>
                                <polygon id="Path" fill="#2A2A2A" points="8.00925212 6.44888099 7.34235929 6.06695382 7.27043948 4.50674067 9.98377795 4.55062167 10.6506708 4.93254885 7.93079414 4.88541741"></polygon>
                                <polygon id="Path" fill="#2A2A2A" points="15.2012336 5.25434281 15.7275559 5.5566341 7.74118736 8.31951155 7.2197687 8.02047069"></polygon>
                                <polygon id="Path" fill="#2A2A2A" points="14.7108712 8.77619893 14.6258751 7.21598579 15.2927679 7.59791297 15.3761295 9.15812611 12.6513493 9.11424512 11.9844564 8.73231794"></polygon>
                            </g>
                            <g id="magnifier" transform="translate(39.000000, 8.938721)">
                                <g id="Group" opacity="0.2" transform="translate(0.000000, 21.452931)" fill="#000000" fill-rule="nonzero">
                                    <path d="M80.1971318,29.8829574 C80.5354819,46.5853641 62.8709946,60.2957371 40.7442097,60.5053908 C29.68,60.6110302 19.596515,57.3215808 12.2361758,51.9177176 C4.87583655,46.5138544 0.238643022,38.9955773 0.0702852737,30.6451865 C-0.266430224,13.9427798 17.3964225,0.23240675 39.5248419,0.0227531083 C50.5874171,-0.0828863233 60.6725366,3.20656306 68.0328759,8.61042629 C75.3932151,14.0142895 80.0287741,21.5325666 80.1971318,29.8829574 Z M40.6510409,56.0701599 C59.4482652,55.8913854 74.4631611,44.241794 74.1754819,30.04873 C74.0332768,22.9530107 70.0891288,16.5593872 63.8402776,11.9730107 C57.5914264,7.3866341 49.016623,4.58637655 39.6147417,4.67576377 C20.8175173,4.85453819 5.80425598,16.5057549 6.09030069,30.6955684 C6.23414032,37.792913 10.1766538,44.1849112 16.4287741,48.7712877 C22.6808944,53.3576643 31.2507941,56.1546714 40.6510409,56.0701599 L40.6510409,56.0701599 Z" id="Shape"></path>
                                </g>
                                <path d="M39.5379183,10.3737922 C48.9512413,10.2681528 57.5325829,13.564103 63.7945104,18.9777176 C70.0564379,24.3913321 74.0022205,31.9209858 74.1444256,40.2860036 C74.1444256,40.5509147 74.1444256,40.8158259 74.1444256,41.0791119 L74.2277872,33.9655151 C74.2277872,33.7022291 74.2277872,33.4373179 74.2277872,33.1724067 C74.0855821,24.807389 70.1414341,17.2761101 63.877872,11.8641208 C57.6143099,6.45213144 49.0362375,3.15455595 39.6212799,3.26019538 C21.0855821,3.4682238 6.24067849,16.7739165 6.04780262,33.1431528 L5.96444102,40.2567496 C6.15731689,23.8907638 21.0087587,10.5818206 39.5379183,10.3737922 Z" id="Path" fill="#2A2A2A"></path>
                                <path d="M40.7442097,71.3618739 C29.68,71.4853908 19.596515,67.6124867 12.2361758,61.2513677 C4.87583655,54.8902487 0.238643022,46.0376643 0.0702852737,36.2066963 C0.0702852737,35.8962789 0.0702852737,35.5858615 0.0702852737,35.2770693 L0,41.2985169 C0,41.6089343 0,41.9177265 0,42.2297691 C0.163454125,52.0607371 4.80555127,60.9198224 12.1658905,67.2728153 C19.5262298,73.6258082 29.6097147,77.511714 40.6722899,77.3849467 C62.449283,77.1411634 79.9012799,61.5032771 80.1301157,42.2638988 L80.2004009,36.2408259 C79.9748342,55.4802043 62.5212028,71.1180906 40.7442097,71.3618739 Z" id="Path" fill="#454445"></path>
                                <ellipse id="Oval" fill="#828282" opacity="0.2" cx="40.2522128" cy="37.6628952" rx="34.5868928" ry="29.4717762"></ellipse>
                                <ellipse id="Oval" fill="#111111" opacity="0.5" transform="translate(28.864707, 21.456620) rotate(-18.615692) translate(-28.864707, -21.456620) " cx="28.8647072" cy="21.45662" rx="9.71254567" ry="5.72185479"></ellipse>
                                <path d="M80.1971318,35.3111989 C80.5354819,54.9763854 62.8709946,71.1148401 40.7442097,71.3618739 C29.68,71.4853908 19.596515,67.6124867 12.2361758,61.2513677 C4.87583655,54.8902487 0.238643022,46.0392895 0.0702852737,36.2066963 C-0.266430224,16.5415098 17.3964225,0.403055062 39.5248419,0.156021314 C50.5874171,0.0325044405 60.6725366,3.90053286 68.0328759,10.2665275 C75.3932151,16.6325222 80.0287741,25.4786057 80.1971318,35.3111989 Z M40.6510409,66.1351599 C59.4482652,65.9271314 74.4631611,52.2102575 74.1754819,35.5013499 C74.0332768,27.1477087 70.0891288,19.6278064 63.8402776,14.2223179 C57.5914264,8.81682948 49.016623,5.52575488 39.6147417,5.62976909 C20.8175173,5.84104796 5.80425598,19.5562966 6.09030069,36.263579 C6.23414032,44.6172202 10.1766538,52.1387478 16.4287741,57.5442362 C22.6808944,62.9497247 31.2507941,66.2407993 40.6510409,66.1351599 L40.6510409,66.1351599 Z" id="Shape" fill="#2A2A2A" fill-rule="nonzero"></path>
                                <path d="M40.0985659,73.112238 C37.8102082,73.112238 35.9582729,73.7476998 35.9582729,74.5343073 L35.9582729,118.090258 L44.2388589,118.090258 L44.2388589,74.5343073 C44.2388589,73.7476998 42.3852891,73.112238 40.0985659,73.112238 Z" id="Path" fill="#2A2A2A"></path>
                                <path d="M40.0985659,100.276199 C35.9909638,100.276199 32.6614032,101.413854 32.6614032,102.831048 L32.6614032,171.501554 L47.5357286,171.501554 L47.5357286,102.824547 C47.5357286,101.413854 44.2061681,100.276199 40.0985659,100.276199 Z" id="Path" fill="#2A2A2A"></path>
                                <ellipse id="Oval" fill="#454445" cx="40.0985659" cy="171.495053" rx="7.43716268" ry="2.5532238"></ellipse>
                                <path d="M68.0328759,10.2665275 C60.6725366,3.90053286 50.5874171,0.0325044405 39.5248419,0.162522202 C33.4999882,0.209126343 27.5499111,1.49394748 22.0483269,3.93628774 L25.3827911,8.5746714 C29.8858783,6.67212382 34.7221596,5.67139129 39.6147417,5.62976909 C49.016623,5.52575488 57.5865227,8.81520426 63.8402776,14.2223179 C70.0940324,19.6294316 74.0332768,27.1412078 74.1754819,35.5013499 C74.338936,45.0495293 69.5072321,53.6176998 61.8297918,59.2490941 L65.0367618,63.7087034 C74.438643,57.0924245 80.4014495,46.8063943 80.1971318,35.3095737 C80.0287741,25.4786057 75.3932151,16.6276465 68.0328759,10.2665275 Z" id="Path" fill="#828282" opacity="0.4"></path>
                            </g>
                        </g>
                    </g>
                    <g id="bug" transform="translate(59.131072, 39.005329)">
                        <path d="M22.2003392,0.732975133 L19.0947109,2.52071936 L19.0832691,6.19697158 L22.1888975,4.40922735 C22.296279,4.36112216 22.3693347,4.2593031 22.3801388,4.14269094 L22.3915806,0.468063943 C22.3802147,0.58407407 22.3072457,0.685152181 22.2003392,0.732975133 L22.2003392,0.732975133 Z" id="Path" fill="#2A2A2A"></path>
                        <path d="M31.0039784,2.33219361 C31.1102236,2.39395204 31.1576253,2.48333925 31.1167618,2.57272647 L30.3877564,4.16219361 C30.1198082,4.0877559 29.8466166,4.0334291 29.5704857,3.9996714 L30.2847803,2.44433393 C30.3452583,2.31106572 30.5806322,2.23305506 30.8111025,2.26880995 C30.8787565,2.27801227 30.944134,2.29949689 31.0039784,2.33219361 L31.0039784,2.33219361 Z" id="Path" fill="#828282"></path>
                        <path d="M31.1167618,2.57272647 L30.3877564,4.16219361 L30.3763146,7.8368206 L31.1069545,6.24897869 C31.116477,6.22918027 31.1214994,6.20754033 31.1216654,6.18559503 L31.1314726,2.50934281 C31.1313067,2.53128811 31.1262842,2.55292805 31.1167618,2.57272647 Z" id="Path" fill="#2A2A2A"></path>
                        <path d="M30.3763146,7.8368206 C30.1082114,7.7630285 29.8350681,7.70871131 29.5590439,7.6742984 L29.5704857,3.9996714 C29.8466166,4.0334291 30.1198082,4.0877559 30.3877564,4.16219361 C30.3844873,5.26409414 30.3795837,6.73492007 30.3763146,7.8368206 Z" id="Path" fill="#A1ADC6"></path>
                        <polygon id="Path" fill="#EAF0FE" points="26.1853508 4.60750444 26.173909 8.28375666 26.1216037 8.25450266 26.1330455 4.57825044"></polygon>
                        <path d="M22.1970702,0.196651865 C22.4553277,0.346172291 22.4553277,0.585079929 22.1970702,0.732975133 L19.0914418,2.52071936 L19.1077872,5.30797513 C18.6435775,5.37298401 18.1875405,5.45912078 17.7429453,5.56638544 L17.7233308,2.23468028 L21.2588435,0.191776199 C21.5541439,0.043149172 21.9033484,0.0449638769 22.1970702,0.196651865 L22.1970702,0.196651865 Z" id="Path" fill="#828282"></path>
                        <path d="M19.1028836,8.98910302 C18.6386739,9.0541119 18.1826369,9.14024867 17.7380416,9.24751332 L17.7494834,5.5712611 C18.1940786,5.46399645 18.6501157,5.37785968 19.1143254,5.3128508 C19.1110563,6.41637655 19.1061527,7.88557726 19.1028836,8.98910302 Z" id="Path" fill="#EAF0FE"></path>
                        <polygon id="Path" fill="#EAF0FE" points="17.7494834 5.5712611 17.7380416 9.24751332 17.7184271 5.91580817 17.7298689 2.23955595"></polygon>
                        <path d="M35.1148497,5.2169627 L32.4162221,5.63301954 L32.4064148,9.30927176 L35.1034079,8.89321492 C35.2946492,8.8623357 35.4205089,8.76319716 35.4303161,8.65430728 L35.4401234,4.97805506 C35.4319507,5.08694494 35.306091,5.18608348 35.1148497,5.2169627 Z" id="Path" fill="#2A2A2A"></path>
                        <path d="M32.4064148,9.30927176 C32.3372442,9.13786159 32.240649,8.97870214 32.1203701,8.83795737 L32.1318119,5.16333037 C32.2521519,5.30313047 32.3482669,5.46185957 32.4162221,5.63301954 C32.412953,6.73654529 32.4096839,8.205746 32.4064148,9.30927176 Z" id="Path" fill="#2A2A2A"></path>
                        <path d="M35.306091,4.80090586 C35.3539573,4.82644642 35.3931873,4.86545281 35.4188743,4.91304618 C35.4809869,5.04468917 35.34532,5.18120782 35.1164842,5.2169627 L32.4178566,5.63301954 C32.3499014,5.46185957 32.2537865,5.30313047 32.1334464,5.16333037 L34.889283,4.7375222 C35.0314464,4.71230259 35.1780074,4.73459001 35.306091,4.80090586 Z" id="Path" fill="#828282"></path>
                        <path d="M29.480586,9.35965364 C28.4559381,8.79899227 27.334083,8.43562728 26.173909,8.28863233 L26.1853508,4.61238011 C27.3456302,4.76187891 28.4673211,5.12684467 29.4920278,5.68827709 C29.4887587,6.91044405 29.4849447,8.13423623 29.480586,9.35965364 Z" id="Path" fill="#EAF0FE"></path>
                        <path d="M16.0969622,9.76595915 C15.7478231,9.90452616 15.40676,10.0624198 15.0753739,10.2388988 L15.0851812,6.56427176 C15.416871,6.38791469 15.757897,6.22949576 16.1067695,6.08970693 C16.1035004,7.19323268 16.1002313,8.66405861 16.0969622,9.76595915 Z" id="Path" fill="#EAF0FE"></path>
                        <path d="M11.1786276,4.32146536 L5.37110254,4.32146536 C5.22135355,4.32450413 5.07332952,4.28924807 4.9412182,4.21907638 C4.84192307,4.17403348 4.77410681,4.0800032 4.7630532,3.97204263 L4.75161141,7.64829485 C4.76330351,7.75649355 4.83169922,7.85046513 4.93141095,7.8953286 C5.06336501,7.96419606 5.21065928,7.99885322 5.35966076,7.99609236 L11.1688204,7.99609236 L15.0753739,10.2388988 L15.0851812,6.56427176 L11.1786276,4.32146536 Z" id="Path" fill="#2A2A2A"></path>
                        <path d="M16.1067695,6.08970693 C15.757897,6.22949576 15.416871,6.38791469 15.0851812,6.56427176 L11.1786276,4.32146536 L5.37110254,4.32146536 C5.22135355,4.32450413 5.07332952,4.28924807 4.9412182,4.21907638 C4.84192307,4.17403348 4.77410681,4.0800032 4.7630532,3.97204263 C4.7630532,3.77864121 5.03275251,3.62261989 5.36619892,3.62261989 L11.8095605,3.62261989 L16.1067695,6.08970693 Z" id="Path" fill="#828282"></path>
                        <path d="M27.720185,10.3770426 C25.739121,9.23938721 23.0846261,8.73394316 20.5069545,8.85746004 L20.5167618,5.18283304 C23.0960678,5.05931616 25.7472938,5.56476021 27.7299923,6.70241563 L27.720185,10.3770426 Z" id="Path" fill="#A1ADC6"></path>
                        <path d="M31.3586739,11.2595382 C31.0546492,10.5639432 30.4286199,9.90410302 29.480586,9.35965364 C29.480586,8.13423623 29.4843999,6.90881883 29.4920278,5.68340142 C30.4400617,6.2278508 31.066091,6.88769094 31.3701157,7.58491119 C31.3668466,8.68681172 31.3619429,10.1576377 31.3586739,11.2595382 Z" id="Path" fill="#EAF0FE"></path>
                        <path d="M32.5061218,6.10595915 L32.4963146,9.78221137 C32.4963146,10.328286 32.1334464,10.8743606 31.4126137,11.2904174 L31.422421,7.61416519 C32.1432537,7.19810835 32.5044873,6.65203375 32.5061218,6.10595915 Z" id="Path" fill="#2A2A2A"></path>
                        <path d="M31.4060756,4.57825044 C31.6803605,4.7298384 31.9259526,4.92783185 32.1318119,5.16333037 C32.2521519,5.30313047 32.3482669,5.46185957 32.4162221,5.63301954 C32.6842868,6.32536412 32.3524749,7.0762167 31.422421,7.61416519 L31.3701157,7.58491119 C31.066091,6.88769094 30.4400617,6.2278508 29.4920278,5.68340142 C28.4673211,5.121969 27.3456302,4.75700324 26.1853508,4.60750444 L26.1314109,4.57825044 C27.0630995,4.04030195 28.3674634,3.84690053 29.5639476,3.9996714 C29.8400784,4.0334291 30.11327,4.0877559 30.3812182,4.16219361 C30.7392536,4.25694577 31.0836572,4.39676177 31.4060756,4.57825044 L31.4060756,4.57825044 Z" id="Path" fill="#828282"></path>
                        <polygon id="Path" fill="#EAF0FE" points="31.422421 7.61416519 31.4126137 11.2904174 31.3586739 11.2595382 31.3701157 7.58491119"></polygon>
                        <path d="M12.1822359,11.9307549 C11.7506134,12.2189263 11.3573823,12.5602227 11.0119044,12.9465187 L11.0233462,9.27026643 C11.3688241,8.88397047 11.7620552,8.54267405 12.1936777,8.25450266 C12.1904086,9.35802842 12.185505,10.8272291 12.1822359,11.9307549 Z" id="Path" fill="#EAF0FE"></path>
                        <path d="M30.4106399,14.1150533 C30.4106399,12.7628686 29.5165459,11.4090586 27.720185,10.3770426 L27.7299923,6.70241563 C29.5279877,7.73280639 30.4253508,9.08824156 30.4204672,10.4404263 C30.4171781,11.5390764 30.413909,13.0131528 30.4106399,14.1150533 Z" id="Path" fill="#A1ADC6"></path>
                        <path d="M31.5744333,12.2671758 C31.5744333,13.0570337 31.1739707,13.8452664 30.3812182,14.5262345 L30.3910254,10.8499822 C31.1854125,10.1690142 31.582606,9.38728242 31.5842406,8.59092362 C31.5809715,9.69444938 31.5760678,11.1636501 31.5744333,12.2671758 Z" id="Path" fill="#2A2A2A"></path>
                        <path d="M29.4920278,5.68827709 C30.4400617,6.23272647 31.1085891,6.87306394 31.4126137,7.57028419 C31.8915343,8.6705595 31.5237625,9.88297513 30.3910254,10.8548579 C30.5969776,9.36940497 29.7094217,7.84332149 27.7299923,6.7072913 C25.7505628,5.5712611 23.0960678,5.06419183 20.5167618,5.1877087 C22.2019738,4.53761989 24.2762066,4.33934281 26.1853508,4.61238011 C27.3456302,4.76187891 28.4673211,5.12684467 29.4920278,5.68827709 L29.4920278,5.68827709 Z" id="Path" fill="#2A2A2A"></path>
                        <path d="M5.55744025,9.26376554 L1.55444873,11.5780817 C1.17621219,11.7681078 0.729662908,11.7681078 0.351426369,11.5780817 C0.210396101,11.5154493 0.1146464,11.3816662 0.101341557,11.228659 L0.0898997687,14.9049112 C0.104083321,15.0576835 0.200433491,15.1908093 0.341619121,15.2527087 C0.718839815,15.4445595 1.16578624,15.4445595 1.54300694,15.2527087 L5.55744025,12.9465187 L11.016808,12.9465187 L11.0282498,9.27026643 L5.55744025,9.26376554 Z" id="Path" fill="#2A2A2A"></path>
                        <path d="M12.1936777,8.25450266 C11.7620552,8.54267405 11.3688241,8.88397047 11.0233462,9.27026643 L5.55744025,9.27026643 L1.55444873,11.5845826 C1.17621219,11.7746087 0.729662908,11.7746087 0.351426369,11.5845826 C0.0245181187,11.3928064 0.0163454125,11.082389 0.351426369,10.892238 L4.91343099,8.25450266 L12.1936777,8.25450266 Z" id="Path" fill="#828282"></path>
                        <path d="M38.9020817,9.78708703 C39.1603392,9.93660746 39.1603392,10.1771403 38.9020817,10.3250355 L35.3714726,12.3679396 L29.779707,12.3679396 C29.9503473,12.1224907 30.0913427,11.8579269 30.1997841,11.5797069 L34.8696685,11.5797069 L37.9752968,9.7919627 C38.2659269,9.64413132 38.6098947,9.64232176 38.9020817,9.78708703 L38.9020817,9.78708703 Z" id="Path" fill="#828282"></path>
                        <path d="M38.9020817,10.3250355 L35.3714726,12.3679396 L29.779707,12.3679396 L29.7682652,16.0425666 L35.3600308,16.0425666 L38.9020817,13.9996625 C39.0094633,13.9515573 39.082519,13.8497383 39.0933231,13.7331261 L39.1047648,10.0584991 C39.0918201,10.1777153 39.0139156,10.2801629 38.9020817,10.3250355 Z" id="Path" fill="#2A2A2A"></path>
                        <path d="M30.3910254,9.44416519 C30.3569965,9.69469001 30.2927883,9.94023642 30.1997841,10.1755151 C30.0909677,10.4530535 29.949991,10.7170368 29.779707,10.9621226 C29.5102746,11.3448167 29.1903061,11.6897462 28.828404,11.9876377 C28.5707336,12.2037405 28.2975887,12.400913 28.0111334,12.5775933 C27.9343099,12.6263499 27.8476793,12.6734813 27.7724904,12.7206128 L25.6312413,13.959032 C25.4122128,14.0857993 25.183377,14.2044405 24.9480031,14.3149556 C24.3807975,14.579545 23.7925325,14.7969841 23.1892367,14.9650444 C19.7942945,15.9190497 15.573909,15.584254 12.7396145,13.9574067 C10.9416191,12.9253908 10.0458905,11.5715808 10.0491596,10.2193961 L10.0393524,15.2998401 C10.0393524,16.6520249 10.9318119,18.0058348 12.7298072,19.0378508 C15.5641018,20.6630728 19.7828527,21.001119 23.1777949,20.0454885 C23.7815372,19.8771751 24.3703246,19.659745 24.9381958,19.3953996 C25.1735698,19.2870515 25.4013159,19.1678686 25.6214341,19.0378508 L27.7626831,17.8010568 C27.8444102,17.7539254 27.9261372,17.7051687 28.0013261,17.6580373 C28.2868766,17.4800213 28.5599292,17.2829153 28.8185968,17.0680817 C29.1804468,16.7700145 29.4999207,16.4244786 29.7682652,16.0409414 C29.9396618,15.7962648 30.0812239,15.5322128 30.1899769,15.2543339 C30.2816606,15.0191903 30.3458297,14.7743386 30.3812182,14.5246092 C30.4000172,14.3883318 30.4098453,14.2509791 30.4106399,14.1134281 L30.4204473,9.03298401 C30.4204473,9.17056567 30.4106539,9.30797481 30.3910254,9.44416519 L30.3910254,9.44416519 Z" id="Path" fill="#2A2A2A"></path>
                        <path d="M27.7299923,5.34535524 C29.7094217,6.48301066 30.5969776,8.00909414 30.3910254,9.49454707 C30.3571971,9.74458425 30.2929807,9.98961647 30.1997841,10.2242718 C30.0909677,10.5018102 29.949991,10.7657934 29.779707,11.0108792 C29.5107494,11.3944334 29.1907339,11.7399603 28.828404,12.0380195 C28.5706938,12.2535812 28.297549,12.4502105 28.0111334,12.6263499 C27.9343099,12.6751066 27.8476793,12.7238632 27.7724904,12.7709947 L25.6312413,14.0077886 C25.4122128,14.134556 25.183377,14.2531972 24.9480031,14.3653375 C24.3808033,14.6299407 23.7925371,14.8473802 23.1892367,15.0154263 C19.7942945,15.9710568 15.573909,15.6346359 12.7396145,14.0077886 C9.86772552,12.3581883 9.29400154,9.88622558 11.0249807,7.91483126 C11.3704586,7.5285353 11.7636898,7.18723888 12.1953123,6.8990675 C12.3587664,6.79017762 12.5222205,6.68616341 12.698751,6.58377442 L14.84,5.34535524 L15.0868157,5.20721137 C15.4182018,5.03073237 15.7592649,4.87283877 16.108404,4.73427176 C16.6429008,4.52289532 17.1918612,4.34964166 17.751118,4.21582593 C18.1957132,4.10856128 18.6517502,4.02242451 19.1159599,3.95741563 C19.5801696,3.89240675 20.0476484,3.84852575 20.5183963,3.82577265 C23.0960678,3.70225577 25.7505628,4.20932504 27.7299923,5.34535524 Z" id="Path" fill="#828282"></path>
                        <polygon id="Path" fill="#EAF0FE" points="31.7983655 19.492913 31.7885582 23.16754 31.7689437 19.822833 31.7803855 16.1465808"></polygon>
                        <path d="M32.989946,15.7825311 L33.0111951,19.4912877 C33.0111951,19.6846892 32.7414958,19.8407105 32.4064148,19.8407105 C32.2571851,19.843762 32.1096857,19.8084968 31.978165,19.7383215 C31.8782651,19.694549 31.8096382,19.6008801 31.7983655,19.492913 L31.7803855,16.1465808 L28.0094988,13.9769094 C28.2955837,13.7996816 28.5686901,13.6025368 28.8267695,13.3869538 L32.989946,15.7825311 Z" id="Path" fill="#828282"></path>
                        <polygon id="Path" fill="#2A2A2A" points="27.9996916 17.6580373 31.7689437 19.822833 31.7803855 16.1465808 28.0094988 13.9834103"></polygon>
                        <path d="M32.4064148,19.8407105 C32.2571851,19.843762 32.1096857,19.8084968 31.978165,19.7383215 C31.8782651,19.694549 31.8096382,19.6008801 31.7983655,19.492913 L31.7885582,23.16754 C31.7989581,23.2757454 31.8669852,23.3700679 31.9667232,23.4145737 C32.0987555,23.4849522 32.2468348,23.5202215 32.3966076,23.5169627 C32.7235158,23.5169627 33.0013878,23.3544405 32.9997533,23.16754 L33.0111951,19.4912877 C33.0177332,19.6846892 32.7414958,19.8407105 32.4064148,19.8407105 Z" id="Path" fill="#2A2A2A"></path>
                        <path d="M23.2006785,20.7898401 L23.2006785,19.3970249 L23.1843331,16.3708615 L23.1728913,20.0471137 L23.1728913,20.8012167 L20.3941712,22.4036856 C20.016379,22.5955569 19.568941,22.5955569 19.1911488,22.4036856 C19.0575002,22.3360245 18.9698301,22.2031053 18.9606785,22.0542629 L18.9492367,25.7305151 C18.9635276,25.8836394 19.0597462,26.0172046 19.2009561,26.0799378 C19.5789403,26.2710137 20.0259942,26.2710137 20.4039784,26.0799378 L24.965983,23.4438277 L24.9774248,19.7675755 L23.2006785,20.7898401 Z" id="Path" fill="#2A2A2A"></path>
                        <path d="M24.9463685,15.7207726 L24.9708867,19.7675755 L20.4072475,22.4036856 C20.0294553,22.5955569 19.5820173,22.5955569 19.2042251,22.4036856 C18.8773169,22.2119094 18.8773169,21.901492 19.2042251,21.711341 L23.2104857,19.3970249 L23.1941403,16.3708615 C23.7954493,16.2031971 24.381575,15.9857404 24.9463685,15.7207726 L24.9463685,15.7207726 Z" id="Path" fill="#828282"></path>
                    </g>
                </g>
            </g>
        </g>
    </g>
</svg>