<?xml version="1.0" encoding="UTF-8"?>
<svg width="1024px" height="1024px" viewBox="0 0 1024 1024" version="1.1" xmlns="http://www.w3.org/2000/svg" xmlns:xlink="http://www.w3.org/1999/xlink">
    <!-- Generator: Sketch 55.2 (78181) - https://sketchapp.com -->
    <title>completed</title>
    <desc>Created with Sketch.</desc>
    <g id="completed" stroke="none" stroke-width="1" fill="none" fill-rule="evenodd">
        <path d="M512,0 C229.257143,0 0,229.257143 0,512 C0,794.742857 229.257143,1024 512,1024 C794.742857,1024 1024,794.742857 1024,512 C1024,229.257143 794.742857,0 512,0 Z M770.628571,382.742857 L460.342857,693.028571 C453.257143,700.114286 443.885714,703.657143 434.514286,703.657143 C425.142857,703.657143 415.771429,700.114286 408.571429,693.028571 L253.371429,537.828571 C239.2,523.657143 239.2,500.342857 253.371429,486.057143 C267.542857,471.885714 290.857143,471.885714 305.142857,486.057143 L434.514286,615.314286 L718.857143,330.971429 C733.028571,316.8 756.342857,316.8 770.628571,330.971429 C784.8,345.257143 784.8,368.457143 770.628571,382.742857 Z" id="形状" fill="#52C41A" fill-rule="nonzero"></path>
    </g>
</svg>