<?xml version="1.0" encoding="UTF-8"?>
<svg width="50px" height="50px" viewBox="0 0 50 50" version="1.1" xmlns="http://www.w3.org/2000/svg" xmlns:xlink="http://www.w3.org/1999/xlink">
    <!-- Generator: Sketch 55.2 (78181) - https://sketchapp.com -->
    <title>defaultcompany</title>
    <desc>Created with Sketch.</desc>
    <g id="页面1" stroke="none" stroke-width="1" fill="none" fill-rule="evenodd">
        <g id="切图画板" transform="translate(-2116.000000, -735.000000)">
            <g id="编组-34" transform="translate(2116.000000, 735.000000)">
                <g id="编组-2">
                    <rect id="矩形" fill="#FFFFFF" x="0" y="0" width="50" height="50"></rect>
                    <g id="gongsi-2" transform="translate(9.000000, 5.000000)" fill="#006064" fill-rule="nonzero">
                        <path d="M29.640943,33.6303191 L29.640943,4.06914894 L24.9643441,0 L9.37568132,5.8643617 L9.37568132,7.30053191 L23.5253906,2.51329787 L23.5253906,35.7845745 L32.9985011,35.7845745 L32.9985011,33.6303191 L29.640943,33.6303191 Z M4.33934411,24.5345745 L11.6540243,23.0984043 L11.6540243,19.268617 L4.33934411,21.1835106 L4.33934411,24.5345745 Z M4.33934411,35.7845745 L11.6540243,35.7845745 L11.6540243,31.8351064 L4.33934411,32.4335106 L4.33934411,35.7845745 Z M4.33934411,30.1595745 L11.6540243,29.4414894 L11.6540243,25.731383 L4.33934411,26.9281915 L4.33934411,30.1595745 Z M4.33934411,18.7898936 L11.6540243,16.7553191 L11.6540243,12.8058511 L4.33934411,15.3191489 L4.33934411,18.7898936 Z" id="形状" opacity="0.5"></path>
                        <polygon id="路径" points="19.9280069 9.09574468 15.7310592 6.58244681 0.0224836483 12.2074468 0.0224836483 35.9042553 2.06100109 35.9042553 2.06100109 13.4042553 13.8124546 9.57446809 13.8124546 35.9042553 19.9280069 35.9042553"></polygon>
                    </g>
                </g>
            </g>
        </g>
    </g>
</svg>