<?xml version="1.0" encoding="UTF-8"?>
<svg width="198px" height="229px" viewBox="0 0 198 229" version="1.1" xmlns="http://www.w3.org/2000/svg" xmlns:xlink="http://www.w3.org/1999/xlink">
    <!-- Generator: Sketch 55.2 (78181) - https://sketchapp.com -->
    <title>developing</title>
    <desc>Created with Sketch.</desc>
    <g id="页面1" stroke="none" stroke-width="1" fill="none" fill-rule="evenodd">
        <g id="切图画板" transform="translate(-2364.000000, -342.000000)">
            <g id="编组-19" transform="translate(2364.000000, 342.000000)">
                <g id="编组-9">
                    <g id="computer" transform="translate(103.029070, 34.158101)">
                        <path d="M51.378314,72.8622989 L31.0411047,61.0374553 L31.1178488,88.7515726 C31.1178488,91.1349637 29.4505814,94.0364832 27.3765698,95.2339358 L16.7954651,101.342095 L37.1326744,113.16502 L47.7118605,107.05686 C49.7839535,105.859408 51.4588953,102.957888 51.4531543,100.574497 L51.378314,72.8622989 Z" id="Path" fill="#828282"></path>
                        <path d="M53.2892442,71.7588771 L32.9520349,59.9340335 L31.0334302,61.0374553 L51.3706395,72.8622989 L51.4493023,100.574497 C51.4493023,102.957888 49.7801163,105.859408 47.7080233,107.05686 L37.1288372,113.16502 L37.1288372,114.483369 L37.1288372,113.16502 L16.7916279,101.342095 L16.7916279,103.539344 L37.1288372,115.362268 L37.1288372,115.362268 L48.2318023,108.950908 C51.0713372,107.312087 53.3640698,103.33593 53.3564146,100.07364 L53.2892442,71.7588771 Z" id="Path" fill="#454445"></path>
                        <path d="M93.2134884,51.9778827 L3.77773256,0.331986034 C3.32877907,0.0729217877 2.92203488,0.0479748603 2.62656977,0.218765363 L0.775116279,1.32986313 C1.06866279,1.15907263 1.47540698,1.18401955 1.92627907,1.4430838 L91.3601163,53.0889804 C92.2522674,53.6032709 92.9717442,54.8525363 92.9698256,55.8753603 L92.7952326,117.501947 C92.7952326,118.012399 92.6129651,118.369332 92.3232558,118.538204 L94.1766279,117.427106 C94.4663372,117.258235 94.6447674,116.901302 94.646686,116.390849 L94.8212943,54.7642626 C94.8251163,53.7414385 94.1037209,52.4921732 93.2134884,51.9778827 Z" id="Path" fill="#828282"></path>
                        <path d="M91.3601163,53.0889804 C92.2522674,53.6032709 92.9717442,54.8525363 92.9698294,55.8753603 L92.7952326,117.501947 C92.7952326,118.528609 92.0680814,118.941193 91.1759302,118.424983 L1.74017442,66.7810056 C0.848023256,66.2647961 0.128546512,65.0174497 0.132368443,63.9927067 L0.306976744,2.36612011 C0.306976744,1.34137709 1.03412791,0.928793296 1.92627907,1.4430838 L91.3601163,53.0889804 Z" id="Path" fill="#454445"></path>
                        <polygon id="Path" fill="#828282" points="89.2803488 112.424288 3.82186047 63.0735084 3.82186047 6.89686592 89.2803488 56.2457263"></polygon>
                        <path d="M53.5770349,72.7106983 L9.37046512,47.1880726 C8.42283353,46.6408499 7.83807285,45.6304706 7.8355814,44.5360223 L7.8355814,16.844933 C7.83613755,16.5512912 7.99302655,16.280176 8.24731707,16.1334249 C8.50160758,15.9866738 8.81479717,15.9865066 9.06924419,16.132986 L53.275814,41.6556117 C54.2234455,42.2028344 54.8082062,43.2132137 54.8106977,44.307662 L54.8106977,71.9987514 C54.8101415,72.2923932 54.6532525,72.5635084 54.398962,72.7102595 C54.1446715,72.8570106 53.8314819,72.8571778 53.5770349,72.7106983 Z" id="Path" fill="#454445"></path>
                        <path d="M19.9362209,66.5564832 L8.4552907,59.9244385 C8.20851752,59.7828507 8.05629653,59.5200698 8.05622093,59.2355196 L8.05622093,52.0450475 C8.05327286,51.9673275 8.09291029,51.8941788 8.15962423,51.8542222 C8.22633817,51.8142656 8.30952185,51.8138539 8.37662791,51.853148 L19.8594767,58.4832737 C20.1052216,58.6256399 20.2565517,58.8881449 20.2567312,59.1721927 L20.2567312,66.3626648 C20.2590281,66.4402288 20.2194389,66.5130637 20.1530508,66.5532228 C20.0866626,66.5933819 20.0037861,66.5946281 19.9362209,66.5564832 Z" id="Path" fill="#454445"></path>
                        <path d="M36.9293023,76.3280028 L25.4464535,69.6978771 C25.2007087,69.555511 25.0493786,69.2930059 25.0493023,69.0089581 L25.0493023,61.818486 C25.0463543,61.7407661 25.0859917,61.6676173 25.1527056,61.6276607 C25.2194196,61.5877041 25.3026032,61.5872924 25.3697093,61.6265866 L36.8525581,68.2586313 C37.0982887,68.4000751 37.2497975,68.6620569 37.2497975,68.9456313 L37.2497975,76.1380223 C37.2519324,76.215402 37.2120088,76.2878968 37.1454323,76.3273723 C37.0788557,76.3668478 36.9961079,76.3670892 36.9293023,76.3280028 Z" id="Path" fill="#454445"></path>
                        <path d="M54.1487791,86.1359832 L42.6659302,79.5039385 C42.4201854,79.3615724 42.2688553,79.0990674 42.2687791,78.8150196 L42.2687791,71.6245475 C42.2649643,71.5469197 42.3041072,71.4734747 42.3706684,71.4333694 C42.4372297,71.3932641 42.5204406,71.392987 42.5872674,71.432648 L54.0701163,78.0627737 C54.3158611,78.2051399 54.4671912,78.4676449 54.4672674,78.7516927 L54.4672674,85.9421648 C54.4705076,86.019631 54.4314079,86.09274 54.3651842,86.1330409 C54.2989606,86.1733417 54.2160735,86.1744687 54.1487791,86.1359832 Z" id="Path" fill="#454445"></path>
                        <path d="M24.7998837,35.0062961 L24.7998837,46.3897709 C24.7998837,47.1247458 25.4925,47.9825363 26.0469767,47.9364804 L34.6653488,47.2226145 C35.2217442,47.1765587 35.2217442,46.2631173 34.6653488,45.5684413 L26.0469767,34.8988324 C25.4925,34.2118324 24.7998837,34.2713212 24.7998837,35.0062961 Z" id="Path" fill="#828282"></path>
                    </g>
                    <g id="computer_dialog" transform="translate(164.616279, 56.034637)">
                        <polygon id="Path" fill="#828282" points="0.0134302326 0.936469274 1.55982558 0.0594888268 24.1763372 12.9647263 24.1763372 80.0969078 22.5512791 81.0276201 22.5512791 13.9510894"></polygon>
                        <polygon id="Path" fill="#454445" points="22.5512791 81.0276201 0.0134302326 68.013 0.0134302326 0.936469274 22.5512791 13.9510894"></polygon>
                        <path d="M19.377907,18.7562514 L3.18680233,9.40307263 C2.87737185,9.18083411 2.69215328,8.82457218 2.68796512,8.44357542 L2.68796512,8.44357542 C2.68796512,8.07704749 2.91244186,7.90817598 3.18680233,8.05977654 L19.377907,17.4283073 C19.6868522,17.6507493 19.8713917,18.0070754 19.8748256,18.3878045 L19.8748256,18.3878045 C19.8748256,18.7466564 19.6522674,18.9155279 19.377907,18.7562514 Z" id="Path" fill="#828282"></path>
                        <path d="M19.377907,26.4322291 L3.18680233,17.0790503 C2.87737185,16.8568118 2.69215328,16.5005498 2.68796512,16.1195531 L2.68796512,16.1195531 C2.68796512,15.7530251 2.91244186,15.5841536 3.18680233,15.7357542 L19.377907,25.1042849 C19.6868522,25.3267269 19.8713917,25.6830531 19.8748256,26.0637821 L19.8748256,26.0637821 C19.8748256,26.4226341 19.6522674,26.5915056 19.377907,26.4322291 Z" id="Path" fill="#828282"></path>
                        <path d="M19.377907,34.1082067 L3.18680233,24.7550279 C2.87737185,24.5327894 2.69215328,24.1765275 2.68796512,23.7955307 L2.68796512,23.7955307 C2.68796512,23.4290028 2.91244186,23.2601313 3.18680233,23.4117318 L19.377907,32.7802626 C19.6868522,33.0027046 19.8713917,33.3590307 19.8748256,33.7397598 L19.8748256,33.7397598 C19.8748256,34.0986117 19.6522674,34.2674832 19.377907,34.1082067 Z" id="Path" fill="#828282"></path>
                        <path d="M19.377907,49.460162 L3.18680233,40.1069832 C2.87737185,39.8847447 2.69215328,39.5284828 2.68796512,39.147486 L2.68796512,39.147486 C2.68796512,38.7809581 2.91244186,38.6120866 3.18680233,38.7636872 L19.377907,48.1322179 C19.6868522,48.3546599 19.8713917,48.710986 19.8748256,49.0917151 L19.8748256,49.0917151 C19.8748256,49.450567 19.6522674,49.6194385 19.377907,49.460162 Z" id="Path" fill="#828282"></path>
                        <path d="M19.377907,57.1361397 L3.18680233,47.7829609 C2.87737185,47.5607224 2.69215328,47.2044605 2.68796512,46.8234637 L2.68796512,46.8234637 C2.68796512,46.4569358 2.91244186,46.2880642 3.18680233,46.4396648 L19.377907,55.8081955 C19.6868522,56.0306375 19.8713917,56.3869637 19.8748256,56.7676927 L19.8748256,56.7676927 C19.8748256,57.1265447 19.6522674,57.2954162 19.377907,57.1361397 Z" id="Path" fill="#828282"></path>
                        <path d="M19.377907,64.8121173 L3.18680233,55.4589385 C2.87737185,55.2367 2.69215328,54.8804381 2.68796512,54.4994413 L2.68796512,54.4994413 C2.68796512,54.1329134 2.91244186,53.9640419 3.18680233,54.1156425 L19.377907,63.4841732 C19.6868522,63.7066152 19.8713917,64.0629414 19.8748256,64.4436704 L19.8748256,64.4436704 C19.8748256,64.8025223 19.6522674,64.9713939 19.377907,64.8121173 Z" id="Path" fill="#828282"></path>
                    </g>
                    <g id="paper" transform="translate(0.000000, 114.180168)">
                        <polygon id="Path" fill="#454445" points="120.43657 114.038162 3.94273256 47.2552374 68.5076163 9.69667877 185.003372 76.4796034"></polygon>
                        <path d="M68.5210465,0.562265363 C67.4005814,-0.0844357542 66.3856395,-0.143924581 65.6546512,0.282092179 L1.17610465,37.7600531 C1.90709302,37.3340363 2.92203488,37.3935251 4.0425,38.0402263 C6.26616279,39.3259525 8.07156977,42.4404804 8.05813953,44.9985 C8.05813953,46.2688743 7.60534884,47.1631257 6.88203488,47.5833855 L71.3605814,10.1054246 C72.0838953,9.6851648 72.5328488,8.79091341 72.5367105,7.52053911 C72.5443605,4.96251955 70.7447093,1.84607263 68.5210465,0.562265363 Z" id="Path" fill="#828282"></path>
                        <path d="M4.0425,38.0402263 C6.26616279,39.3259525 8.07156977,42.4404804 8.05821398,44.9985 C8.0447093,47.5565196 6.24122093,48.5870196 4.01563953,47.3012933 C1.79005814,46.015567 0,42.9029581 0,40.3449385 C0,37.786919 1.8169186,36.756419 4.0425,38.0402263 Z" id="Path" fill="#454445"></path>
                    </g>
                    <g id="pencil" transform="translate(9.401163, 123.775140)">
                        <polygon id="Path" fill="#828282" points="76.7710465 9.28601397 84.8119186 0.182304469 73.8777907 1.81536872"></polygon>
                        <polygon id="Path" fill="#828282" points="5.9380814 49.2529106 78.2330233 7.23077095 76.7710465 9.28601397 4.47610465 51.3081536"></polygon>
                        <polygon id="Path" fill="#A7A7A7" points="4.49145349 45.5166285 76.7863953 3.49448883 78.2330233 7.23077095 5.9380814 49.2529106"></polygon>
                        <polygon id="Path" fill="#828282" points="1.58284884 43.8375084 73.8777907 1.81536872 76.7863953 3.49448883 4.49145349 45.5166285"></polygon>
                        <polygon id="Path" fill="#454445" points="4.49145349 45.5166285 5.9380814 49.2529106 4.47610465 51.3081536 1.5655814 49.6290335 0.118953488 45.8927514 1.58284884 43.8375084"></polygon>
                        <polygon id="Path" fill="#A7A7A7" points="76.7863953 3.49448883 84.8119186 0.182304469 78.2330233 7.23077095"></polygon>
                        <path d="M81.2567442,0.711946927 C81.2919024,1.57467329 81.7394867,2.36792236 82.4597093,2.84394972 L84.8119186,0.191899441 L81.2567442,0.711946927 Z" id="Path" fill="#454445"></path>
                    </g>
                    <g id="rig_hand" transform="translate(3.069767, 0.000000)">
                        <polygon id="Path" fill="#828282" points="81.5253488 86.562 78.8220349 88.1336564 76.6175581 86.8613631 76.6386628 78.9608631 72.5827326 81.3193073 72.5597093 89.2178883 77.4598256 92.048405 79.4398256 90.8970084 79.428314 95.4565391 83.4842442 93.098095 83.499593 87.7018827"></polygon>
                        <polygon id="Path" fill="#828282" points="70.712093 79.2563883 73.2062791 77.8324944 75.1594186 76.6964497 77.2276744 77.8919832 77.22 80.9911592 81.2759302 78.6327151 81.2855233 75.5335391 77.2698837 73.2153939 73.2120349 75.571919 75.1402326 76.6849358 74.7680233 76.8979441"></polygon>
                        <polygon id="Path" fill="#454445" points="77.2276744 77.8919832 77.22 80.9911592 75.2035465 79.8263296 72.5827326 81.3193073 72.5597093 89.2178883 77.4598256 92.048405 77.4694186 88.9204441 79.4436628 90.0603268 79.428314 95.4565391 70.6794767 90.4038268 70.712093 79.2563883 73.2062791 77.8324944 73.2120349 75.571919"></polygon>
                        <path d="M0.101686047,106.04555 C0.100988997,106.062809 0.100988997,106.080105 0.101686047,106.097363 C0.103967243,106.111629 0.107171651,106.125731 0.11127907,106.139581 C0.114856473,106.156442 0.119339718,106.173097 0.124709302,106.189475 L0.141976744,106.229774 C0.141976744,106.247045 0.157325581,106.264316 0.166918605,106.281587 L0.191860465,106.312291 C0.205290698,106.33148 0.216802326,106.35067 0.232151163,106.36986 C0.2475,106.38905 0.259011628,106.406321 0.274360465,106.423592 L0.285872093,106.437025 C0.307466399,106.460838 0.33053509,106.48327 0.35494186,106.50419 L0.406744186,106.546408 C0.422093023,106.557922 0.435523256,106.571355 0.452790698,106.582869 L0.512267442,106.623168 L0.573662791,106.663466 L17.4286047,116.450338 C17.4784884,116.479123 17.5302907,116.50407 17.5840116,116.529017 L17.6300581,116.548207 L17.7605233,116.598101 L17.8084884,116.613453 L17.892907,116.638399 L17.9581395,116.65567 L18.0502326,116.67486 L18.1116279,116.688293 C18.1730233,116.697888 18.2363372,116.707483 18.3034884,116.71324 L18.3610465,116.71324 L18.4723256,116.71324 L18.7102326,116.71324 L18.7946512,116.71324 L18.8713953,116.71324 L18.9538953,116.71324 L19.0268023,116.701726 L19.1150581,116.686374 L19.1860465,116.67486 L19.2896512,116.649913 L19.3452907,116.634561 C19.406686,116.617291 19.4661628,116.596182 19.5237209,116.575073 L19.6062209,116.538612 L19.6484302,116.521341 L19.7693023,116.458014 L36.7336047,106.671142 C36.9742988,106.557374 37.1506199,106.340808 37.2132558,106.082011 C37.2161065,106.051373 37.2161065,106.020537 37.2132558,105.989899 L37.2362791,113.857777 C37.2362791,114.103408 37.0731977,114.350958 36.7489535,114.53902 L19.7846512,124.325891 C19.7462791,124.348919 19.7040698,124.368109 19.6637791,124.389218 L19.6215698,124.406489 L19.5467442,124.439112 L19.5371512,124.439112 C19.479593,124.46214 19.4201163,124.48133 19.3606395,124.498601 L19.3452907,124.498601 L19.3030814,124.498601 L19.2013953,124.523547 L19.1745349,124.523547 L19.1323256,124.523547 L19.0459884,124.538899 L19.0095349,124.538899 L18.9711628,124.538899 L18.8886628,124.538899 L18.8502907,124.538899 L18.8119186,124.538899 L18.7294186,124.538899 L18.4953488,124.538899 L18.3840698,124.538899 L18.3380233,124.538899 L18.324593,124.538899 C18.2612791,124.538899 18.1998837,124.525466 18.1327326,124.513953 L18.1327326,124.513953 C18.1146039,124.511234 18.0966621,124.507389 18.0790116,124.502439 L17.9888372,124.483249 L17.921686,124.465978 L17.8372674,124.441031 L17.82,124.441031 L17.7912209,124.429517 C17.747093,124.414165 17.7029651,124.398813 17.6607558,124.379623 L17.6147093,124.360433 C17.5615822,124.336911 17.5097102,124.310649 17.4593023,124.281754 L0.604360465,114.494883 L0.585174419,114.483369 L0.541046512,114.454584 L0.481569767,114.414285 L0.435523256,114.377824 C0.418171535,114.37676 0.400883004,114.374838 0.38372093,114.372067 L0.38372093,114.372067 L0.324244186,114.312578 L0.312732558,114.299145 L0.280116279,114.262684 L0.268604651,114.245413 L0.230232558,114.187844 L0.214883721,114.162897 C0.214883721,114.162897 0.214883721,114.162897 0.214883721,114.151383 C0.214883721,114.139869 0.197616279,114.116841 0.18994186,114.09957 L0.176511628,114.068866 L0.176511628,114.068866 C0.171142044,114.052488 0.166658799,114.035833 0.163081395,114.018972 C0.162232279,114.008114 0.162232279,113.997207 0.163081395,113.986349 L0.163081395,113.934536 C0.163081395,113.923022 0.163081395,113.911508 0.163081395,113.899994 L0.163081395,113.886561 L0.14005814,106.018684 C0.0978488372,106.012927 0.101686047,106.028279 0.101686047,106.04555 Z" id="Path" fill="#454445"></path>
                        <path d="M0.585174419,105.316332 C-0.0613953488,105.700131 -0.0652325581,106.29502 0.585174419,106.669223 L17.4401163,116.456095 C18.1732487,116.828403 19.0400071,116.828403 19.7731395,116.456095 L36.7374419,106.669223 C37.3840116,106.285425 37.3878488,105.690536 36.7374419,105.316332 L19.8844186,95.5294609 C19.1510655,95.1552529 18.2828298,95.1552529 17.5494767,95.5294609 L0.585174419,105.316332 Z" id="Path" fill="#828282"></path>
                        <path d="M3.31726744,103.209277 C3.31656581,103.223974 3.31656581,103.238716 3.31726744,103.253413 C3.31726744,103.264927 3.31726744,103.276441 3.31726744,103.287955 L3.32877907,103.328254 C3.33273023,103.33964 3.33787517,103.350575 3.34412791,103.360877 C3.34971237,103.375929 3.35611733,103.390663 3.36331395,103.405014 L3.3825,103.433799 C3.39160476,103.450485 3.40186222,103.466516 3.41319767,103.481774 L3.44965116,103.52783 L3.45924419,103.52783 L3.51680233,103.585399 L3.55901163,103.619941 L3.59738372,103.648726 L3.64534884,103.681349 L3.69715116,103.715891 L17.6511628,111.825561 C17.6914535,111.848589 17.7336628,111.869698 17.7797093,111.890807 L17.8180814,111.906159 L17.9255233,111.948377 L17.9638953,111.96181 L18.0348837,111.981 L18.0886047,111.996352 L18.1634302,112.011704 L18.2152326,112.011704 C18.2651163,112.020659 18.3169186,112.028335 18.3706395,112.034732 L18.4186047,112.034732 L18.5106977,112.034732 L18.7025581,112.034732 L18.7716279,112.034732 L18.8349419,112.034732 L18.902093,112.034732 L18.9634884,112.034732 L19.0344767,112.021299 C19.0536628,112.021299 19.0728488,112.021299 19.0920349,112.009785 L19.1764535,111.990595 L19.2244186,111.977162 C19.2743023,111.96181 19.3222674,111.946458 19.3702326,111.927268 L19.4393023,111.898483 L19.4738372,111.883131 C19.5083721,111.867779 19.5409884,111.848589 19.5736047,111.831318 L33.6005233,103.731243 C33.7997394,103.637134 33.9457234,103.457967 33.9976744,103.243818 C33.9996451,103.21827 33.9996451,103.192607 33.9976744,103.167059 L34.0168605,105.571559 C33.9939728,105.818019 33.8399473,106.032965 33.6139535,106.133824 L19.5870349,114.233899 L19.4872674,114.287631 L19.450814,114.302983 L19.3894186,114.329849 L19.3894186,114.329849 L19.2436047,114.379743 L19.232093,114.379743 L19.1975581,114.379743 L19.1131395,114.400852 L19.0901163,114.400852 L19.0555814,114.400852 C19.0325581,114.400852 19.0076163,114.400852 18.9826744,114.412366 L18.9538953,114.412366 L18.9231977,114.412366 L18.8541279,114.412366 L18.8215116,114.412366 L18.790814,114.412366 L18.7217442,114.412366 L18.5298837,114.412366 L18.4377907,114.412366 L18.387907,114.412366 C18.3361047,114.412366 18.2843023,114.400852 18.2325,114.391257 L18.2325,114.391257 L18.1883721,114.391257 L18.1116279,114.375905 L18.057907,114.360553 L17.9888372,114.341363 L17.9734884,114.341363 L17.9485465,114.331768 C17.912093,114.320254 17.8775581,114.306821 17.8411047,114.291469 L17.8027326,114.274198 C17.7583836,114.255542 17.7154252,114.233738 17.674186,114.208953 L3.72976744,106.120391 L3.7125,106.120391 L3.67796512,106.097363 L3.6280814,106.06474 L3.5897093,106.034036 L3.5475,105.999494 L3.5475,105.999494 L3.49761628,105.949601 L3.49761628,105.938087 C3.4876659,105.928769 3.478668,105.918484 3.47075581,105.907383 L3.47075581,105.89395 L3.43813953,105.845975 C3.43412288,105.839268 3.42963484,105.832855 3.4247093,105.826785 L3.4247093,105.815271 L3.40360465,105.773053 L3.39209302,105.748106 L3.3805814,105.705888 C3.3805814,105.705888 3.3805814,105.688617 3.3805814,105.679022 C3.37963663,105.664966 3.37963663,105.650861 3.3805814,105.636804 C3.37964478,105.627232 3.37964478,105.617592 3.3805814,105.60802 L3.3805814,105.596506 L3.36139535,103.192006 C3.31343023,103.182411 3.31726744,103.195844 3.31726744,103.209277 Z" id="Path" fill="#454445"></path>
                        <path d="M3.71633721,102.606712 C3.18296512,102.91567 3.17912791,103.416528 3.71633721,103.725486 L17.6511628,111.825561 C18.2541835,112.131252 18.9667468,112.131252 19.5697674,111.825561 L33.596686,103.725486 C34.1319767,103.416528 34.1338953,102.91567 33.596686,102.606712 L19.6599419,94.5066369 C19.0536488,94.197669 18.3361187,94.197669 17.7298256,94.5066369 L3.71633721,102.606712 Z" id="Path" fill="#828282"></path>
                        <rect id="Rectangle" fill="#454445" transform="translate(18.333227, 66.030679) rotate(-180.000000) translate(-18.333227, -66.030679) " x="17.6108721" y="21.8036145" width="1.4447093" height="88.4541285" rx="0.72192"></rect>
                        <rect id="Rectangle" fill="#454445" transform="translate(29.672180, 59.091595) rotate(-180.000000) translate(-29.672180, -59.091595) " x="28.9498256" y="14.3924581" width="1.4447093" height="89.3982737" rx="0.72192"></rect>
                        <rect id="Rectangle" fill="#454445" transform="translate(6.752529, 59.091595) rotate(180.000000) translate(-6.752529, -59.091595) " x="6.03017442" y="14.3924581" width="1.4447093" height="89.3982737" rx="0.72192"></rect>
                        <path d="M3.31726744,13.9223045 C3.31656742,13.9363616 3.31656742,13.9504652 3.31726744,13.9645223 C3.31726744,13.9760363 3.31726744,13.9875503 3.31726744,13.9990642 L3.32877907,14.0412821 L3.34412791,14.073905 C3.3497231,14.0883279 3.35612866,14.102423 3.36331395,14.1161229 C3.36901171,14.1267774 3.37542162,14.1370354 3.3825,14.1468268 C3.3825,14.1621788 3.40168605,14.1794497 3.41319767,14.1948017 L3.44965116,14.2389385 L3.45924419,14.2504525 C3.47651163,14.2696425 3.49569767,14.2869134 3.51680233,14.3061034 L3.55901163,14.3406453 L3.59738372,14.3713492 L3.64534884,14.4039721 L3.69715116,14.436595 L17.6511628,22.5366704 C17.6921901,22.5618369 17.735178,22.5836561 17.7797093,22.6019162 L17.8180814,22.6191872 L17.9255233,22.659486 L17.9638953,22.672919 L18.0348837,22.6921089 L18.0886047,22.7074609 L18.1634302,22.7228128 L18.2152326,22.7343268 C18.2651163,22.7343268 18.3169186,22.7496788 18.3706395,22.7554358 L18.4186047,22.7554358 C18.4492728,22.7573417 18.4800296,22.7573417 18.5106977,22.7554358 L18.5701744,22.7554358 C18.5951163,22.7554358 18.6200581,22.7554358 18.645,22.7554358 L18.708314,22.7554358 L18.7773837,22.7554358 L18.8406977,22.7554358 L18.9078488,22.7554358 L18.9692442,22.7554358 L19.0402326,22.7439218 L19.0977907,22.7324078 L19.1822093,22.7112989 L19.2301744,22.6997849 L19.377907,22.6441341 L19.4469767,22.6134302 L19.4815116,22.5980782 C19.515729,22.5827262 19.5490393,22.565427 19.5812791,22.5462654 L33.6081977,14.4461899 C33.8067941,14.352265 33.9526285,14.1739867 34.0053488,13.9606844 C34.0071784,13.9351305 34.0071784,13.9094785 34.0053488,13.8839246 L34.0245349,16.2865056 C34.0023119,16.5336764 33.8481832,16.7495005 33.6216279,16.8506899 L19.5947093,24.9469274 C19.5624696,24.966089 19.5291592,24.9833882 19.4949419,24.9987402 L19.4584884,25.0140922 L19.397093,25.0409581 L19.397093,25.0409581 C19.3510465,25.060148 19.3011628,25.0755 19.2512791,25.090852 L19.2397674,25.090852 L19.2052326,25.1004469 L19.120814,25.1196369 L19.0977907,25.1196369 L19.0632558,25.1196369 L18.9903488,25.1330698 L18.9615698,25.1330698 L18.9308721,25.1330698 L18.8618023,25.1330698 L18.829186,25.1330698 L18.7984884,25.1330698 L18.7294186,25.1330698 L18.5375581,25.1330698 L18.4454651,25.1330698 L18.407093,25.1330698 L18.3955814,25.1330698 L18.2267442,25.1388268 L18.2267442,25.1388268 L18.1826163,25.1292318 L18.1058721,25.1138799 L18.0521512,25.0985279 L17.9830814,25.079338 L17.9677326,25.079338 L17.9427907,25.079338 L17.8353488,25.0371201 L17.7969767,25.0217682 C17.7528488,25.0006592 17.7087209,24.9795503 17.6684302,24.9565223 L3.72976744,16.841095 L3.7125,16.8315 L3.67796512,16.8065531 L3.6280814,16.7739302 L3.5897093,16.7451453 L3.5475,16.7106034 L3.5475,16.7106034 L3.49761628,16.6607095 L3.49761628,16.6607095 L3.45348837,16.6127346 L3.45348837,16.5973827 C3.44152928,16.582158 3.43063146,16.5661286 3.42087209,16.5494078 C3.41594656,16.5433374 3.41145851,16.5369246 3.40744186,16.5302179 C3.40744186,16.5302179 3.40744186,16.5302179 3.40744186,16.5302179 L3.38633721,16.486081 L3.37482558,16.4630531 L3.36331395,16.4227542 C3.36331395,16.4227542 3.36331395,16.4035642 3.36331395,16.3939693 C3.36236797,16.3792722 3.36236797,16.3645295 3.36331395,16.3498324 C3.36238982,16.3409009 3.36238982,16.3318979 3.36331395,16.3229665 L3.36331395,16.3095335 L3.34412791,13.9069525 C3.31343023,13.8954385 3.31726744,13.9088715 3.31726744,13.9223045 Z" id="Path" fill="#454445"></path>
                        <polygon id="Path" fill="#454445" points="78.1754651 75.9576369 77.210407 76.5007123 76.2434302 75.9576369 76.2434302 40.519567 78.1754651 40.519567"></polygon>
                        <path d="M3.71633721,13.3197402 C3.18296512,13.6267793 3.17912791,14.1276369 3.71633721,14.436595 L17.6511628,22.5366704 C18.2541835,22.8423605 18.9667468,22.8423605 19.5697674,22.5366704 L33.596686,14.436595 C34.1319767,14.1276369 34.1338953,13.6267793 33.596686,13.3197402 L19.6733721,5.2196648 C19.067079,4.9106969 18.3495489,4.9106969 17.7432558,5.2196648 L3.71633721,13.3197402 Z" id="Path" fill="#828282"></path>
                        <polygon id="Path" fill="#454445" points="6.03593023 74.4243603 11.3485465 71.3942682 6.03593023 62.2272318 7.12953488 61.6035587 12.4440698 70.770595 17.756686 67.7405028 18.8502907 69.6287933 13.5376744 72.6588855 18.8502907 81.8240028 17.756686 82.447676 12.4440698 73.2825587 7.12953488 76.3126508"></polygon>
                        <polygon id="Path" fill="#454445" points="6.03593023 92.6720782 11.3485465 89.643905 6.03593023 80.4768687 7.12953488 79.8531955 12.4440698 89.0183128 17.756686 85.9882207 18.8502907 87.8784302 13.5376744 90.9085223 18.8502907 100.07364 17.756686 100.697313 12.4440698 91.5321955 7.12953488 94.5622877"></polygon>
                        <polygon id="Path" fill="#454445" points="30.3945349 74.4243603 25.0819186 71.3942682 30.3945349 62.2272318 29.2990116 61.6035587 23.9863953 70.770595 18.6737791 67.7405028 17.5782558 69.6287933 22.8908721 72.6588855 17.5782558 81.8240028 18.6737791 82.447676 23.9863953 73.2825587 29.2990116 76.3126508"></polygon>
                        <polygon id="Path" fill="#454445" points="30.3945349 92.6720782 25.0819186 89.643905 30.3945349 80.4768687 29.2990116 79.8531955 23.9863953 89.0183128 18.6737791 85.9882207 17.5782558 87.8784302 22.8908721 90.9085223 17.5782558 100.07364 18.6737791 100.697313 23.9863953 91.5321955 29.2990116 94.5622877"></polygon>
                        <polygon id="Path" fill="#454445" points="6.03593023 37.9922514 11.3485465 34.9621592 6.03593023 25.7951229 7.12953488 25.1714497 12.4440698 34.338486 17.756686 31.3083939 18.8502907 33.1966844 13.5376744 36.2267765 18.8502907 45.3918939 17.756686 46.015567 12.4440698 36.8504497 7.12953488 39.8805419"></polygon>
                        <polygon id="Path" fill="#454445" points="6.03593023 56.2399693 11.3485465 53.2117961 6.03593023 44.0447598 7.12953488 43.4210866 12.4440698 52.5862039 17.756686 49.5561117 18.8502907 51.4444022 13.5376744 54.4744944 18.8502907 63.6415307 17.756686 64.2652039 12.4440698 55.1000866 7.12953488 58.1301788"></polygon>
                        <polygon id="Path" fill="#454445" points="30.3945349 37.9922514 25.0819186 34.9621592 30.3945349 25.7951229 29.2990116 25.1714497 23.9863953 34.338486 18.6737791 31.3083939 17.5782558 33.1966844 22.8908721 36.2267765 17.5782558 45.3918939 18.6737791 46.015567 23.9863953 36.8504497 29.2990116 39.8805419"></polygon>
                        <polygon id="Path" fill="#454445" points="30.3945349 56.2399693 25.0819186 53.2117961 30.3945349 44.0447598 29.2990116 43.4210866 23.9863953 52.5862039 18.6737791 49.5561117 17.5782558 51.4444022 22.8908721 54.4744944 17.5782558 63.6415307 18.6737791 64.2652039 23.9863953 55.1000866 29.2990116 58.1301788"></polygon>
                        <path d="M18.5663372,14.0432011 L18.5548256,13.8513017 C18.5548256,13.8186788 18.5548256,13.7860559 18.5548256,13.753433 C18.5548256,13.6920251 18.543314,13.6306173 18.5356395,13.5615335 C18.5356395,13.5327486 18.5356395,13.5020447 18.5356395,13.4732598 C18.5356395,13.4444749 18.5222093,13.386905 18.5164535,13.3427682 L18.4876744,13.1508687 L18.4646512,13.0184581 C18.4531395,12.9551313 18.4397093,12.8918045 18.4281977,12.8265587 C18.416686,12.7613128 18.407093,12.7267709 18.3955814,12.6749581 L18.3668023,12.5483045 C18.3533721,12.4926536 18.3380233,12.4370028 18.324593,12.381352 C18.3111628,12.3257011 18.3034884,12.2988352 18.2919767,12.2566173 L18.2631977,12.1568296 C18.222907,12.016743 18.1806977,11.8785754 18.1365698,11.7384888 L18.1250581,11.7077849 C18.0809302,11.5715363 18.0310465,11.4372067 17.9811628,11.3028771 L17.9408721,11.2030894 C17.8961047,11.0905084 17.8500581,10.9772877 17.8027326,10.8634274 L17.7816279,10.8116145 C17.7259884,10.6868799 17.6703488,10.5621453 17.6108721,10.4393296 C17.5955233,10.4067067 17.5801744,10.3740838 17.562907,10.3414609 C17.5149419,10.2435922 17.4669767,10.1495615 17.4151744,10.0497737 L17.3691279,9.9615 C17.3038953,9.83868436 17.2367442,9.7197067 17.1772674,9.60072905 L17.1369767,9.53356425 C17.0775,9.42993855 17.014186,9.32631285 16.9451163,9.22652514 C16.9278488,9.19582123 16.9086628,9.16703631 16.8894767,9.1363324 C16.810814,9.01351676 16.728314,8.89070112 16.6438953,8.76980447 L16.6055233,8.71607263 C16.5172674,8.59325698 16.4290116,8.47044134 16.3369186,8.35146369 L16.2947093,8.29581285 C16.2659302,8.25743296 16.2352326,8.22097207 16.2064535,8.18451117 C16.1776744,8.14805028 16.1335465,8.09239944 16.0951744,8.04826257 L16.0030814,7.93887989 L15.8956395,7.81222626 C15.820814,7.7277905 15.7440698,7.64335475 15.6673256,7.56083799 L15.655814,7.54740503 C15.573314,7.45913128 15.490814,7.37661453 15.408314,7.29217877 L15.2471512,7.13865922 C15.2337209,7.12330726 15.2183721,7.1098743 15.2030233,7.09452235 C15.1320349,7.02927654 15.0610465,6.96403073 14.9881395,6.90262291 L14.9305814,6.85081006 L14.7713372,6.71648045 L14.6907558,6.65315363 L14.5468605,6.53993296 L14.4605233,6.47468715 L14.3166279,6.37106145 L14.2322093,6.31157263 C14.180407,6.27511173 14.126686,6.24056983 14.0748837,6.20794693 L14.0019767,6.15997207 C13.923314,6.11007821 13.8465698,6.06402235 13.767907,6.01796648 L13.5453488,5.89515084 L13.4877907,5.86636592 L13.2959302,5.76849721 L13.2383721,5.76657821 L13.0465116,5.68022346 C12.9755233,5.64951955 12.9026163,5.62265363 12.8316279,5.5977067 L12.7798256,5.57851676 C12.6915698,5.54781285 12.6052326,5.52094693 12.5188953,5.49791899 L12.3673256,5.45953911 L12.2963372,5.44226816 L12.0776163,5.40196927 L12.0776163,5.40196927 C12.0123837,5.39045531 11.9471512,5.38277933 11.8857558,5.37702235 L11.8205233,5.37702235 L11.6804651,5.37702235 L11.6190698,5.37702235 L11.477093,5.37702235 L11.4272093,5.37702235 C11.365814,5.37702235 11.3063372,5.38661732 11.2468605,5.3942933 L11.2084884,5.3942933 L11.0876163,5.41348324 C11.006151,5.42795803 10.9254672,5.44653189 10.8458721,5.46913408 L10.8343605,5.46913408 C10.7601027,5.4906938 10.6870856,5.51631903 10.6156395,5.54589385 L10.5542442,5.57275978 C10.4928488,5.5996257 10.4333721,5.62841061 10.375814,5.65911453 L10.3182558,5.68981844 L19.5275581,0.32622905 L19.5544186,0.310877095 L19.5851163,0.29552514 C19.6430656,0.263684354 19.7026219,0.23486098 19.7635465,0.209170391 L19.7961628,0.191899441 L19.8249419,0.182304469 C19.8964977,0.15301793 19.9694994,0.127398106 20.0436628,0.105544693 L20.0436628,0.105544693 L20.0436628,0.105544693 C20.1232579,0.0829425046 20.2039417,0.0643686467 20.285407,0.0498938547 L20.314186,0.0498938547 L20.4062791,0.0364608939 L20.4446512,0.0364608939 L20.605814,0.0211089385 L20.9262209,0.0211089385 L21.018314,0.0211089385 L21.0835465,0.0211089385 L21.275407,0.0441368715 L21.2965116,0.0441368715 L21.513314,0.0844357542 L21.5843023,0.101706704 L21.7224419,0.134329609 L21.7358721,0.134329609 C21.8222093,0.157357542 21.9085465,0.184223464 21.9968023,0.214927374 L22.0505233,0.234117318 C22.1221512,0.259703911 22.1931395,0.286569832 22.2634884,0.314715084 L22.2922674,0.32622905 L22.4668605,0.402988827 L22.4898837,0.414502793 L22.6817442,0.510452514 L22.7393023,0.541156425 C22.8141279,0.579536313 22.8870349,0.619835196 22.9618605,0.663972067 C23.036686,0.708108939 23.1172674,0.756083799 23.1959302,0.804058659 L23.2688372,0.85203352 L23.4261628,0.957578212 C23.4549419,0.976768156 23.4837209,0.995958101 23.5105814,1.01706704 L23.6544767,1.12069274 L23.740814,1.18593855 L23.8847093,1.29724022 C23.9115698,1.32026816 23.9384302,1.3394581 23.9633721,1.36248603 C24.0190116,1.40662291 24.0727326,1.45267877 24.1245349,1.49681564 L24.182093,1.5467095 C24.255,1.61003631 24.3259884,1.67528212 24.3969767,1.73860894 L24.4411047,1.78082682 L24.5811628,1.91515642 L24.6022674,1.93626536 L24.8497674,2.18957263 L24.8631977,2.20492458 C24.9399419,2.28744134 25.0147674,2.3699581 25.089593,2.45631285 L25.1106977,2.47934078 L25.1970349,2.58296648 C25.2277326,2.61942737 25.2584302,2.65396927 25.2891279,2.69234916 C25.3198256,2.73072905 25.3639535,2.7825419 25.400407,2.82859777 L25.4886628,2.93798045 L25.5040116,2.95908939 L25.5308721,2.99363128 C25.6229651,3.11452793 25.7112209,3.23542458 25.7994767,3.36015922 C25.8094928,3.37149271 25.8184817,3.38369436 25.8263372,3.39662011 L25.8378488,3.41389106 C25.9222674,3.53478771 26.0047674,3.65568436 26.0834302,3.78041899 L26.1064535,3.81496089 L26.1409884,3.86869274 C26.2043023,3.97039944 26.2676163,4.07402514 26.3328488,4.17765084 L26.3616279,4.2256257 L26.3712209,4.24289665 C26.4402907,4.3618743 26.5074419,4.48277095 26.5630814,4.6036676 C26.5689391,4.61284827 26.574071,4.62247251 26.5784302,4.63245251 C26.5899419,4.65356145 26.5995349,4.6727514 26.6091279,4.69386034 C26.6609302,4.78981006 26.7088953,4.88575978 26.7568605,4.98554749 C26.7683721,5.00473743 26.7779651,5.02584637 26.7875581,5.04503631 L26.8048256,5.08149721 C26.8643023,5.20623184 26.9199419,5.32904749 26.9755814,5.45378212 L26.9755814,5.46529609 C26.9755814,5.48064804 26.9851744,5.49408101 26.9909302,5.50751397 C27.0388953,5.61881564 27.0849419,5.73203631 27.1309884,5.84525698 C27.1309884,5.86444693 27.1463372,5.88171788 27.152093,5.90090782 L27.1693605,5.94696369 C27.2192442,6.0812933 27.2691279,6.21562291 27.3132558,6.34995251 L27.3132558,6.34995251 C27.3121704,6.35823272 27.3121704,6.36661923 27.3132558,6.37489944 C27.3593023,6.51306704 27.399593,6.65315363 27.4398837,6.79324022 C27.4458781,6.81023869 27.4510011,6.82753214 27.4552326,6.84505307 C27.4608454,6.86070454 27.4653335,6.87673694 27.4686628,6.89302793 L27.5012791,7.01776257 C27.5147093,7.07341341 27.5300581,7.12906425 27.5434884,7.18471508 L27.5722674,7.31136872 C27.5722674,7.34015363 27.5856977,7.37085754 27.5914535,7.39964246 C27.5972093,7.42842737 27.5914535,7.44186034 27.6048837,7.46296927 C27.6163953,7.52629609 27.6298256,7.58962291 27.6413372,7.65486872 L27.6643605,7.78727933 L27.6931395,7.97917877 C27.6931395,8.00988268 27.6931395,8.04058659 27.7065698,8.0712905 L27.7065698,8.11158939 C27.7065698,8.1403743 27.7065698,8.17107821 27.7065698,8.19986313 C27.7065698,8.26127095 27.72,8.32459777 27.7257558,8.39176257 C27.7315116,8.45892737 27.7257558,8.45508939 27.7257558,8.48771229 L27.7372674,8.67961173 C27.7372674,8.70647765 27.7372674,8.73526257 27.7372674,8.76404749 C27.7372674,8.85232123 27.7372674,8.94251397 27.7372674,9.02886872 L27.7142442,14.1583408 L18.4857558,19.5315251 L18.5759302,14.3924581 C18.5759302,14.3041844 18.5759302,14.2159106 18.5759302,14.1257179 C18.5682558,14.098852 18.5682558,14.071986 18.5663372,14.0432011 Z" id="Path" fill="#828282"></path>
                        <path d="M13.7448837,6.02756145 C11.0703488,4.49236592 8.89465116,5.72436034 8.88505814,8.79858939 L8.86203488,13.9261425 L18.552907,19.5219302 L18.5759506,14.3924581 C18.5836047,11.322067 16.4213372,7.57235196 13.7448837,6.02756145 Z" id="Path" fill="#454445"></path>
                        <polygon id="Path" fill="#454445" points="25.6997093 8.40519553 20.3602326 11.5101285 20.3410465 18.2573128 70.2842442 47.1439358 70.3034302 40.3967514 75.6448256 37.2937374"></polygon>
                        <polygon id="Path" fill="#828282" points="70.3034302 40.3967514 70.3034302 40.3967514 75.6448256 37.2937374 25.6997093 8.40519553 20.3602326 11.5101285 20.3602326 11.5101285"></polygon>
                        <path d="M81.6481395,35.9235754 L75.5930233,32.4310056 L67.4792442,37.1459749 L73.5286047,40.6385447 C76.1014535,42.1238464 78.1793023,45.7257989 78.1697093,48.6829693 C78.1697093,50.152919 77.6478488,51.177662 76.8113372,51.6727626 L84.9251163,46.9558743 C85.7616279,46.4703687 86.2796512,45.4360307 86.2835731,43.966081 C86.2988372,41.0108296 84.2267442,37.4088771 81.6481395,35.9235754 Z" id="Path" fill="#828282"></path>
                        <path d="M73.5343605,40.6385447 C76.1072093,42.1238464 78.1850581,45.7257989 78.1754982,48.6829693 C78.1658721,51.6401397 76.0765116,52.8337542 73.5036628,51.3484525 L67.4543023,47.8539637 L67.485,37.1459749 L73.5343605,40.6385447 Z" id="Path" fill="#454445"></path>
                        <ellipse id="Oval" fill="#828282" transform="translate(72.277827, 45.437575) rotate(-30.310000) translate(-72.277827, -45.437575) " cx="72.2778273" cy="45.437575" rx="1.08214901" ry="1.87476055"></ellipse>
                        <ellipse id="Oval" fill="#828282" transform="translate(13.707102, 11.709695) rotate(-30.310000) translate(-13.707102, -11.709695) " cx="13.7071019" cy="11.7096946" rx="1.08214901" ry="1.87476055"></ellipse>
                    </g>
                    <g id="box_gear" transform="translate(64.718447, 142.005587)">
                        <path d="M49.3081395,14.430838 C49.3081395,14.4538659 49.3081395,14.4768939 49.3081395,14.4999218 C49.3041678,14.518769 49.2990419,14.5373543 49.2927907,14.5555726 C49.2875439,14.5776428 49.2811397,14.5994215 49.2736047,14.6208184 C49.2677343,14.6391651 49.2606848,14.6571131 49.2525,14.6745503 C49.2525,14.6975782 49.2313953,14.7206061 49.2198837,14.7436341 C49.2083721,14.766662 49.2006977,14.774338 49.1911047,14.7916089 C49.1751685,14.8180696 49.1578781,14.8436902 49.1393023,14.8683687 C49.1220349,14.8913966 49.1028488,14.9163436 49.0817442,14.9393715 L49.0663953,14.9566425 C49.0381019,14.9890682 49.0073099,15.0192249 48.9743023,15.0468352 C48.9531963,15.0668759 48.9307615,15.0854684 48.9071512,15.102486 L48.8476744,15.1504609 C48.8227326,15.1696508 48.7939535,15.1869218 48.7690116,15.2041927 C48.7440698,15.2214637 48.7152907,15.2406536 48.684593,15.2579246 L26.3635465,28.2322458 C26.298314,28.2706257 26.2273256,28.3032486 26.1563372,28.3358715 L26.0949419,28.3627374 C26.0393023,28.3857654 25.9817442,28.4068743 25.9222674,28.4279832 L25.8589535,28.4490922 L25.7476744,28.4817151 L25.6613372,28.504743 L25.5404651,28.5296899 C25.5136047,28.5296899 25.4867442,28.5431229 25.4579651,28.5469609 C25.3748256,28.5623128 25.2923256,28.5738268 25.2104651,28.5815028 L25.1318023,28.5815028 L24.9840698,28.5815028 L24.6694186,28.5815028 L24.5581395,28.5815028 L24.4564535,28.5815028 C24.42,28.5815028 24.3854651,28.5815028 24.3490116,28.5699888 L24.2511628,28.5565559 L24.1341279,28.5354469 L24.0439535,28.518176 C23.997907,28.518176 23.9537791,28.497067 23.9077326,28.4836341 L23.832907,28.4644441 C23.7523256,28.4414162 23.6755814,28.4145503 23.5988372,28.3857654 C23.5604651,28.3704134 23.5240116,28.3550615 23.4894767,28.3377905 L23.4319186,28.3128436 C23.3774778,28.2880458 23.3243283,28.2605049 23.2726744,28.2303268 L0.786627907,15.2579246 C0.468411722,15.1057012 0.234808335,14.8192678 0.149651163,14.4768939 C0.146723836,14.4360077 0.146723836,14.3949644 0.149651163,14.3540782 L0.120872093,43.6417709 C0.120872093,43.968 0.335755814,44.296148 0.765523256,44.5456173 L23.2343023,57.5199385 C23.2861047,57.5487235 23.3398256,57.5775084 23.3954651,57.6024553 L23.4511047,57.6274022 C23.4837209,57.6427542 23.5163372,57.6581061 23.5489535,57.6696201 L23.5623837,57.6696201 C23.6372093,57.698405 23.7158721,57.7252709 23.7964535,57.7482989 L23.8156395,57.7482989 L23.8712791,57.7617318 C23.915407,57.7751648 23.9614535,57.7847598 24.0075,57.7962737 L24.0439535,57.7962737 L24.0976744,57.7962737 L24.2127907,57.8173827 L24.2588372,57.8173827 L24.3106395,57.8173827 L24.42,57.8288966 L24.4718023,57.8288966 L24.521686,57.8288966 L24.6310465,57.8288966 L24.9418605,57.8288966 L25.089593,57.8173827 L25.1490698,57.8173827 L25.1663372,57.8173827 C25.2507558,57.8173827 25.3332558,57.7981927 25.4157558,57.7828408 L25.4272674,57.7828408 L25.4982558,57.7674888 L25.6191279,57.7425419 L25.7054651,57.719514 L25.8167442,57.6868911 L25.841686,57.6868911 L25.8800581,57.6734581 L26.050814,57.6082123 L26.1141279,57.5813464 C26.1842563,57.5502783 26.2527736,57.5156925 26.3194186,57.4777207 L48.6423837,44.5014804 L48.6692442,44.4861285 L48.7248837,44.4496676 C48.7517442,44.4323966 48.7786047,44.4151257 48.8035465,44.3959358 C48.8248266,44.3810158 48.8453192,44.3650027 48.8649419,44.3479609 L48.932093,44.2923101 L48.9455233,44.2807961 C48.9731626,44.2560279 48.9994229,44.2297622 49.024186,44.2021173 L49.0395349,44.1848464 L49.0817442,44.1349525 C49.0863756,44.1275759 49.0915037,44.1205233 49.097093,44.1138436 L49.1469767,44.0370838 L49.17,44.0044609 C49.1689663,43.9993958 49.1689663,43.994174 49.17,43.9891089 C49.1815116,43.966081 49.1911047,43.9430531 49.2006977,43.9200251 L49.2198837,43.8797263 C49.2201287,43.875252 49.2201287,43.8707676 49.2198837,43.8662933 C49.2274188,43.8448963 49.233823,43.8231176 49.2390698,43.8010475 C49.2440308,43.7866516 49.2478794,43.7718959 49.2505814,43.7569106 C49.251479,43.7531251 49.251479,43.7491821 49.2505814,43.7453966 C49.2505814,43.7223687 49.2505814,43.6993408 49.2505814,43.6763128 C49.2515169,43.6616154 49.2515169,43.6468734 49.2505814,43.632176 L49.2505814,43.612986 L49.2793605,14.3252933 C49.3081395,14.3924581 49.3081395,14.4097291 49.3081395,14.430838 Z" id="Path" fill="#828282"></path>
                        <path d="M48.6577326,13.4655838 C49.5153488,13.9606844 49.519186,14.762824 48.6673256,15.2579246 L26.3462791,28.2322458 C25.4944186,28.7254274 24.1111047,28.7254274 23.255407,28.2322458 L0.786627907,15.2579246 C-0.0709883721,14.762824 -0.0748255814,13.9606844 0.775116279,13.4655838 L23.0980814,0.49126257 C23.9480233,-0.00383798883 25.3332558,-0.00383798883 26.1908721,0.49126257 L48.6577326,13.4655838 Z" id="Path" fill="#828282"></path>
                        <path d="M49.2908721,14.4999218 C49.2869004,14.518769 49.2817744,14.5373543 49.2755233,14.5555726 C49.2702765,14.5776428 49.2638723,14.5994215 49.2563372,14.6208184 C49.2504669,14.6391651 49.2434173,14.6571131 49.2352326,14.6745503 C49.2352326,14.6975782 49.2141279,14.7206061 49.2026163,14.7436341 C49.1911047,14.766662 49.1834302,14.774338 49.1738372,14.7916089 C49.1579011,14.8180696 49.1406107,14.8436902 49.1220349,14.8683687 C49.1047674,14.8913966 49.0855814,14.9163436 49.0644767,14.9393715 L49.0491279,14.9566425 C49.0208345,14.9890682 48.9900424,15.0192249 48.9570349,15.0468352 C48.9359288,15.0668759 48.9134941,15.0854684 48.8898837,15.102486 L48.830407,15.1504609 C48.8054651,15.1696508 48.776686,15.1869218 48.7517442,15.2041927 C48.7268023,15.2214637 48.6980233,15.2406536 48.6673256,15.2579246 L26.3462791,28.2322458 C26.2810465,28.2706257 26.2100581,28.3032486 26.1390698,28.3358715 L26.0776744,28.3627374 C26.0220349,28.3857654 25.9644767,28.4068743 25.905,28.4279832 L25.841686,28.4490922 L25.730407,28.4817151 L25.6440698,28.504743 L25.5231977,28.5296899 C25.4963372,28.5296899 25.4694767,28.5431229 25.4406977,28.5469609 C25.3575581,28.5623128 25.2750581,28.5738268 25.1931977,28.5815028 L25.1145349,28.5815028 L24.9668023,28.5930168 L24.7212209,28.5930168 L24.7212209,57.8807095 L24.9418605,57.8807095 L25.089593,57.8691955 L25.1490698,57.8691955 L25.1663372,57.8691955 C25.2507558,57.8691955 25.3332558,57.8500056 25.4157558,57.8346536 L25.4272674,57.8346536 L25.4982558,57.8193017 L25.6191279,57.7943547 L25.7054651,57.7713268 L25.8167442,57.7387039 L25.841686,57.7387039 L25.8800581,57.7252709 L26.050814,57.6600251 L26.1141279,57.6331592 C26.1842563,57.6020911 26.2527736,57.5675053 26.3194186,57.5295335 L48.6423837,44.5532933 L48.6692442,44.5379413 L48.7248837,44.5014804 C48.7517442,44.4842095 48.7786047,44.4669385 48.8035465,44.4477486 C48.8248266,44.4328287 48.8453192,44.4168156 48.8649419,44.3997737 L48.932093,44.3441229 L48.9455233,44.3326089 C48.9731626,44.3078408 48.9994229,44.2815751 49.024186,44.2539302 L49.0395349,44.2366592 L49.0817442,44.1867654 C49.0863756,44.1793888 49.0915037,44.1723362 49.097093,44.1656564 L49.1469767,44.0888966 L49.17,44.0562737 C49.1689663,44.0512086 49.1689663,44.0459869 49.17,44.0409218 C49.1815116,44.0178939 49.1911047,43.9948659 49.2006977,43.971838 L49.2198837,43.9315391 C49.2201287,43.9270648 49.2201287,43.9225804 49.2198837,43.9181061 C49.2274188,43.8967092 49.233823,43.8749305 49.2390698,43.8528603 C49.2440308,43.8384645 49.2478794,43.8237088 49.2505814,43.8087235 C49.251479,43.804938 49.251479,43.800995 49.2505814,43.7972095 C49.2505814,43.7741816 49.2505814,43.7511536 49.2505814,43.7281257 C49.2515169,43.7134283 49.2515169,43.6986862 49.2505814,43.6839888 L49.2505814,43.6647989 L49.2793605,14.3771061 C49.2793605,14.3982151 49.2793605,14.419324 49.2793605,14.440433 C49.2793605,14.4615419 49.2947093,14.4768939 49.2908721,14.4999218 Z" id="Path" fill="#828282"></path>
                        <path d="M31.9735465,16.503352 C32.3975581,16.0216844 34.0667442,15.7683771 34.2068023,15.2444916 C34.3468605,14.7206061 32.8887209,14.1717737 32.7409884,13.6402123 C32.5932558,13.1086508 33.6906977,12.3429721 33.2609302,11.8593855 C32.8311628,11.3757989 31.1255233,11.4468017 30.4463372,11.0553268 C29.7671512,10.663852 29.8707558,9.66789385 29.0534302,9.42993855 C28.2361047,9.19198324 26.8777326,9.81373743 25.968314,9.72930168 C25.0588953,9.64486592 24.109186,8.80242737 23.192093,8.88302514 C22.275,8.96362291 21.8490698,9.92887709 21.0106395,10.1745084 C20.2048256,10.4105447 18.5874419,10.0401788 17.9140116,10.4297346 C17.2405814,10.8192905 17.8813953,11.7519218 17.470814,12.2182374 C17.0602326,12.6845531 15.3776163,12.9512933 15.2375581,13.4770978 C15.0975,14.0029022 16.5556395,14.5498156 16.7033721,15.0794581 C16.8511047,15.6091006 15.7440698,16.3786173 16.1815116,16.8622039 C16.6189535,17.3457905 18.3188372,17.2709497 18.994186,17.6547486 C19.6695349,18.0385475 19.5697674,19.0421816 20.3890116,19.2801369 C21.2082558,19.5180922 22.5647093,18.896338 23.4741279,18.9788547 C24.3835465,19.0613715 25.3332558,19.907648 26.2503488,19.8270503 C27.1674419,19.7464525 27.5933721,18.7811983 28.4318023,18.535567 C29.2376163,18.2995307 30.8530814,18.6698966 31.5284302,18.2803408 C32.2037791,17.8907849 31.5629651,16.9639106 31.9735465,16.503352 Z M20.8111047,16.6184916 C18.6373256,15.3634693 18.625814,13.3350922 20.7861628,12.0877458 C22.9465116,10.8403994 26.4594767,10.8461564 28.6332558,12.1011788 C30.8070349,13.3562011 30.8185465,15.3864972 28.6581977,16.6338436 C26.4978488,17.8811899 22.9848837,17.869676 20.8111047,16.6127346 L20.8111047,16.6184916 Z" id="Shape" fill="#454445"></path>
                        <path d="M23.163314,31.9167151 C23.2186127,31.949174 23.2756132,31.9786409 23.3340698,32.0049888 L23.3935465,32.0318547 L23.5105814,32.0817486 C23.5911628,32.1124525 23.6755814,32.1412374 23.76,32.1661844 L23.8405814,32.1872933 C23.8885465,32.2007263 23.934593,32.2122402 23.9844767,32.2218352 L24.080407,32.2429441 L24.2031977,32.2640531 L24.3068023,32.277486 L24.4238372,32.290919 L24.5312791,32.290919 L24.648314,32.290919 L24.7557558,32.290919 L24.9840698,32.290919 L25.1394767,32.279405 L25.2219767,32.279405 C25.3121512,32.279405 25.400407,32.2582961 25.4867442,32.2429441 L25.575,32.2237542 L25.7035465,32.1968883 L25.7937209,32.1719413 C25.8339346,32.1624618 25.8736375,32.1509328 25.9126744,32.1373994 C25.935439,32.130883 25.9578525,32.1231969 25.9798256,32.1143715 C26.0431395,32.0932626 26.1045349,32.0702346 26.171686,32.0472067 L26.2388372,32.0184218 C26.3136628,31.9838799 26.3884884,31.947419 26.4575581,31.9071201 L49.3081395,18.6257598 L49.3081395,14.3579162 C49.3081395,14.3790251 49.3081395,14.4001341 49.3081395,14.421243 C49.3081395,14.442352 49.3081395,14.4672989 49.3081395,14.4903268 C49.3041678,14.5091741 49.2990419,14.5277594 49.2927907,14.5459777 C49.2875439,14.5680478 49.2811397,14.5898265 49.2736047,14.6112235 C49.2677343,14.6295701 49.2606848,14.6475181 49.2525,14.6649553 C49.2525,14.6879832 49.2313953,14.7110112 49.2198837,14.7340391 C49.2083721,14.757067 49.2006977,14.764743 49.1911047,14.782014 C49.1751685,14.8084746 49.1578781,14.8340953 49.1393023,14.8587737 C49.1220349,14.8818017 49.1028488,14.9067486 49.0817442,14.9297765 L49.0663953,14.9470475 C49.0381019,14.9794732 49.0073099,15.0096299 48.9743023,15.0372402 C48.9531963,15.0572809 48.9307615,15.0758735 48.9071512,15.0928911 C48.8879098,15.1103904 48.8673875,15.1264267 48.8457558,15.1408659 C48.8227326,15.1600559 48.7939535,15.1773268 48.7690116,15.1945978 C48.7440698,15.2118687 48.7152907,15.2310587 48.684593,15.2483296 L26.3635465,28.2226508 C26.298314,28.2610307 26.2273256,28.2936536 26.1563372,28.3262765 L26.0949419,28.3531425 C26.0393023,28.3761704 25.9817442,28.3972793 25.9222674,28.4183883 L25.8589535,28.4394972 L25.7476744,28.4721201 L25.6613372,28.495148 L25.5404651,28.520095 C25.5136047,28.520095 25.4867442,28.5335279 25.4579651,28.5373659 C25.3748256,28.5527179 25.2923256,28.5642318 25.2104651,28.5719078 L25.1318023,28.5719078 L24.9840698,28.5719078 L24.6694186,28.5719078 L24.5581395,28.5719078 L24.4564535,28.5719078 C24.42,28.5719078 24.3854651,28.5719078 24.3490116,28.5603939 L24.2511628,28.5469609 L24.1341279,28.525852 L24.0439535,28.508581 L23.9077326,28.4740391 L23.832907,28.4548492 C23.7523256,28.4318212 23.6755814,28.4049553 23.5988372,28.3761704 C23.5604651,28.3608184 23.5240116,28.3454665 23.4894767,28.3281955 L23.4319186,28.3032486 C23.3774778,28.2784509 23.3243283,28.25091 23.2726744,28.2207318 L0.786627907,15.2579246 C0.468411722,15.1057012 0.234808335,14.8192678 0.149651163,14.4768939 C0.146723836,14.4360077 0.146723836,14.3949644 0.149651163,14.3540782 L0.149651163,18.6200028 L23.163314,31.9167151 Z" id="Path" fill="#454445"></path>
                        <path d="M23.163314,53.6838687 C23.2186127,53.7163276 23.2756132,53.7457946 23.3340698,53.7721425 L23.3935465,53.7990084 L23.5105814,53.8489022 C23.5911628,53.8796061 23.6755814,53.9083911 23.76,53.933338 L23.8405814,53.9544469 C23.8885465,53.9678799 23.934593,53.9793939 23.9844767,53.9889888 L24.080407,54.0100978 L24.2031977,54.0312067 L24.3068023,54.0446397 L24.4238372,54.0580726 L24.5312791,54.0580726 L24.648314,54.0580726 L24.7557558,54.0580726 L24.9840698,54.0580726 L25.1394767,54.0465587 L25.2219767,54.0465587 C25.3121512,54.0465587 25.400407,54.0254497 25.4867442,54.0100978 L25.575,53.9909078 L25.7035465,53.9640419 L25.7937209,53.939095 C25.8339346,53.9296155 25.8736375,53.9180865 25.9126744,53.9045531 C25.935439,53.8980367 25.9578525,53.8903505 25.9798256,53.8815251 C26.0431395,53.8604162 26.1045349,53.8373883 26.171686,53.8124413 L26.2388372,53.7855754 C26.3136628,53.7510335 26.3884884,53.7145726 26.4575581,53.6742737 L49.3081395,40.3929134 L49.3081395,36.1250698 C49.3081395,36.1461788 49.3081395,36.1672877 49.3081395,36.1883966 C49.3081395,36.2095056 49.3081395,36.2344525 49.3081395,36.2574804 C49.3041678,36.2763277 49.2990419,36.294913 49.2927907,36.3131313 C49.2875439,36.3352014 49.2811397,36.3569801 49.2736047,36.3783771 C49.2677343,36.3967237 49.2606848,36.4146717 49.2525,36.4321089 C49.2525,36.4551369 49.2313953,36.4781648 49.2198837,36.5011927 C49.2083721,36.5242207 49.2006977,36.5318966 49.1911047,36.5491676 C49.1751685,36.5756282 49.1578781,36.6012489 49.1393023,36.6259274 C49.1220349,36.6489553 49.1028488,36.6739022 49.0817442,36.6969302 L49.0663953,36.7142011 C49.0381019,36.7466269 49.0073099,36.7767835 48.9743023,36.8043939 C48.9531963,36.8244345 48.9307615,36.8430271 48.9071512,36.8600447 C48.8879098,36.8775441 48.8673875,36.8935804 48.8457558,36.9080196 C48.8227326,36.9272095 48.7939535,36.9444804 48.7690116,36.9617514 C48.7440698,36.9790223 48.7152907,36.9982123 48.684593,37.0135642 L26.3635465,49.9898045 C26.298314,50.0281844 26.2273256,50.0608073 26.1563372,50.0934302 L26.0949419,50.1202961 C26.0393023,50.143324 25.9817442,50.164433 25.9222674,50.1855419 L25.8589535,50.2066508 L25.7476744,50.2392737 L25.6613372,50.2623017 L25.5404651,50.2872486 L25.4579651,50.3045196 C25.3748256,50.3198715 25.2923256,50.3313855 25.2104651,50.3390615 L25.1318023,50.3390615 L24.9840698,50.3505754 L24.6694186,50.3505754 L24.5581395,50.3505754 L24.4564535,50.3505754 L24.3490116,50.3390615 L24.2511628,50.3256285 L24.1341279,50.3045196 L24.0439535,50.2872486 L23.9077326,50.2527067 L23.832907,50.2335168 C23.7523256,50.2104888 23.6755814,50.1836229 23.5988372,50.154838 C23.5604651,50.139486 23.5240116,50.1241341 23.4894767,50.1068631 L23.4319186,50.0819162 C23.3774778,50.0571185 23.3243283,50.0295776 23.2726744,49.9993994 L0.786627907,37.0250782 C0.468411722,36.8728549 0.234808335,36.5864215 0.149651163,36.2440475 C0.146723836,36.2031613 0.146723836,36.162118 0.149651163,36.1212318 L0.149651163,40.3871564 L23.163314,53.6838687 Z" id="Path" fill="#454445"></path>
                    </g>
                    <g id="box_code" transform="translate(133.534884, 171.558101)">
                        <path d="M20.7209302,6.00645251 C20.7209302,6.01604749 20.7209302,6.02564246 20.7209302,6.03523743 L20.7209302,6.05826536 C20.7209302,6.05826536 20.7209302,6.07745531 20.7209302,6.08705028 L20.7209302,6.10815922 C20.7172565,6.11810893 20.7127644,6.12773688 20.7075,6.13694413 L20.6940698,6.15805307 L20.6729651,6.18875698 L20.6499419,6.21946089 L20.6499419,6.21946089 L20.6115698,6.25784078 L20.5847093,6.28086872 L20.5578488,6.30005866 L20.5252326,6.32308659 C20.5144372,6.33123322 20.5028704,6.33830325 20.4906977,6.34419553 L11.1432558,11.7787877 L11.0569186,11.8229246 L11.0300581,11.8344385 L10.9590698,11.8613045 L10.9322093,11.8613045 L10.8842442,11.8747374 L10.8497093,11.8747374 L10.797907,11.8862514 L10.7633721,11.8862514 L10.6597674,11.8996844 L10.6271512,11.8996844 L10.5657558,11.8996844 L10.3604651,11.8996844 L10.3182558,11.8996844 L10.2722093,11.8996844 L10.2319186,11.8996844 L10.1820349,11.8996844 L10.1436628,11.8996844 L10.0880233,11.8862514 L10.0573256,11.8766564 L9.95755814,11.8440335 L9.91151163,11.8248436 L9.88848837,11.8133296 C9.86552905,11.8029713 9.8431159,11.7914422 9.82133721,11.7787877 L0.420174419,6.34419553 C0.286270674,6.2817178 0.188108842,6.16163938 0.153488372,6.01796648 C0.151650891,6.00138597 0.151650891,5.98465314 0.153488372,5.96807263 L0.14005814,18.2323659 C0.153355745,18.4001248 0.257074519,18.5472735 0.410581395,18.6161648 L9.81174419,24.050757 L9.87889535,24.0852989 L9.90383721,24.0948939 L9.94412791,24.1140838 L9.94412791,24.1140838 C9.97600517,24.1275937 10.0086832,24.1391295 10.0419767,24.1486257 L10.0419767,24.1486257 L10.065,24.1486257 L10.1225581,24.1620587 L10.137907,24.1620587 L10.1609302,24.1620587 L10.2088953,24.1620587 L10.2280814,24.1620587 L10.249186,24.1620587 L10.2952326,24.1620587 L10.3182558,24.1620587 L10.3374419,24.1620587 L10.3834884,24.1620587 L10.5158721,24.1620587 L10.5772674,24.1620587 L10.6098837,24.1620587 L10.715407,24.1467067 L10.715407,24.1467067 L10.7461047,24.1467067 L10.7959884,24.1351927 L10.8324419,24.1351927 L10.8784884,24.1217598 L10.89,24.1217598 C10.89,24.1217598 10.899593,24.1217598 10.9053488,24.1217598 L10.9782558,24.0948939 L11.0031977,24.0833799 C11.032705,24.0708489 11.0615249,24.0567564 11.0895349,24.041162 L20.4523256,18.6142458 L20.4619186,18.6142458 L20.4868605,18.5969749 L20.5194767,18.5758659 L20.5444186,18.554757 L20.5731977,18.5317291 L20.5731977,18.5317291 L20.605814,18.4971872 L20.605814,18.4971872 L20.625,18.4760782 L20.625,18.4664832 C20.6331203,18.4563512 20.6401914,18.4454208 20.6461047,18.4338603 L20.6461047,18.4204274 L20.6461047,18.4204274 C20.651369,18.4112201 20.6558612,18.4015922 20.6595349,18.3916425 C20.6602572,18.3859081 20.6602572,18.3801058 20.6595349,18.3743715 C20.6606386,18.3654502 20.6606386,18.3564269 20.6595349,18.3475056 L20.6595349,18.3283156 L20.6595349,18.3283156 C20.6604715,18.3187435 20.6604715,18.3091028 20.6595349,18.2995307 C20.6595349,18.2995307 20.6595349,18.2860978 20.6595349,18.2803408 L20.6595349,18.2803408 L20.6729651,6.01412849 C20.7305233,5.98918156 20.7209302,5.99877654 20.7209302,6.00645251 Z" id="Path" fill="#828282"></path>
                        <path d="M20.7209302,6.03523743 L20.7209302,6.05826536 C20.7209302,6.05826536 20.7209302,6.07745531 20.7209302,6.08705028 L20.7209302,6.10815922 C20.7172565,6.11810893 20.7127644,6.12773688 20.7075,6.13694413 L20.6940698,6.15805307 L20.6729651,6.18875698 L20.6499419,6.21946089 L20.6499419,6.21946089 L20.6115698,6.25784078 L20.5847093,6.28086872 L20.5578488,6.30005866 L20.5252326,6.32308659 C20.5144372,6.33123322 20.5028704,6.33830325 20.4906977,6.34419553 L11.1432558,11.7787877 L11.0569186,11.8229246 L11.0300581,11.8344385 L10.9590698,11.8613045 L10.9322093,11.8613045 L10.8842442,11.8747374 L10.8497093,11.8747374 L10.797907,11.8862514 L10.7633721,11.8862514 L10.6597674,11.8996844 L10.6271512,11.8996844 L10.5657558,11.8996844 L10.4506395,11.8996844 L10.4506395,24.1658966 L10.5523256,24.1658966 L10.6137209,24.1658966 L10.6463372,24.1658966 L10.7518605,24.1505447 L10.7518605,24.1505447 L10.7825581,24.1505447 L10.8324419,24.1390307 L10.8688953,24.1390307 L10.9149419,24.1255978 L10.9264535,24.1255978 C10.9264535,24.1255978 10.9360465,24.1255978 10.9418023,24.1255978 L11.0147093,24.0987318 L11.0396512,24.0872179 C11.0691585,24.0746869 11.0979783,24.0605944 11.1259884,24.045 L20.4523256,18.6142458 L20.4619186,18.6142458 L20.4868605,18.5969749 L20.5194767,18.5758659 L20.5444186,18.554757 L20.5731977,18.5317291 L20.5731977,18.5317291 L20.605814,18.4971872 L20.605814,18.4971872 L20.625,18.4760782 L20.625,18.4664832 C20.6331203,18.4563512 20.6401914,18.4454208 20.6461047,18.4338603 L20.6461047,18.4204274 L20.6461047,18.4204274 C20.651369,18.4112201 20.6558612,18.4015922 20.6595349,18.3916425 C20.6602572,18.3859081 20.6602572,18.3801058 20.6595349,18.3743715 C20.6606386,18.3654502 20.6606386,18.3564269 20.6595349,18.3475056 L20.6595349,18.3283156 L20.6595349,18.3283156 C20.6604715,18.3187435 20.6604715,18.3091028 20.6595349,18.2995307 C20.6595349,18.2995307 20.6595349,18.2860978 20.6595349,18.2803408 L20.6595349,18.2803408 L20.6729651,6.01412849 C20.6729651,6.02372346 20.6729651,6.03331844 20.6729651,6.04099441 C20.6729651,6.04867039 20.7209302,6.02564246 20.7209302,6.03523743 Z" id="Path" fill="#828282"></path>
                        <path d="M11.127907,17.512743 C11.0988537,17.5299884 11.0687349,17.5453713 11.0377326,17.5587989 L11.0108721,17.5703128 C10.9860787,17.5818909 10.9604193,17.5915151 10.9341279,17.5990978 L10.9187791,17.5990978 L10.9072674,17.5990978 L10.8573837,17.6125307 L10.8209302,17.6240447 L10.7672093,17.6355587 L10.7365116,17.6355587 L10.7365116,17.6355587 L10.6271512,17.6489916 L10.5926163,17.6489916 L10.5293023,17.6489916 L10.2971512,17.6489916 L10.249186,17.6489916 L10.2261628,17.6489916 L10.2069767,17.6489916 L10.1551744,17.6489916 L10.1321512,17.6489916 L10.1168023,17.6489916 L10.0573256,17.6355587 L10.0323837,17.6355587 L10.0323837,17.6355587 C9.99783505,17.6260668 9.96388001,17.6145325 9.93069767,17.6010168 L9.93069767,17.6010168 L9.88656977,17.5818268 L9.86354651,17.5818268 C9.83860465,17.5703128 9.8155814,17.5568799 9.79255814,17.5434469 L0.143895349,11.9783631 L0.143895349,13.064514 C0.156373444,13.2325677 0.260358695,13.3800945 0.414418605,13.4483128 L9.8155814,18.882905 L9.88273256,18.9174469 L9.90767442,18.9174469 L9.94796512,18.9366369 L9.94796512,18.9366369 L10.045814,18.9692598 L10.045814,18.9692598 L10.0688372,18.9692598 L10.1263953,18.9846117 L10.1417442,18.9846117 L10.1647674,18.9846117 L10.2127326,18.9846117 L10.2319186,18.9846117 L10.2530233,18.9846117 L10.2990698,18.9846117 L10.3412791,18.9846117 L10.3873256,18.9846117 L10.5197093,18.9846117 L10.5811047,18.9846117 L10.6137209,18.9846117 L10.7192442,18.9711788 L10.7192442,18.9711788 L10.7499419,18.9711788 L10.7998256,18.9596648 L10.8362791,18.9596648 L10.8823256,18.9462318 L10.8938372,18.9462318 L10.909186,18.9462318 L10.982093,18.9193659 C10.9907551,18.9163323 10.9991071,18.9124767 11.0070349,18.907852 C11.0365423,18.895321 11.0653621,18.8812284 11.0933721,18.8656341 L20.4427326,13.4310419 L20.4523256,13.4310419 L20.4772674,13.4156899 L20.5098837,13.392662 L20.5348256,13.3734721 L20.5636047,13.3485251 L20.5636047,13.3485251 L20.5962209,13.3159022 L20.5962209,13.3159022 L20.615407,13.2947933 L20.615407,13.2947933 L20.6365116,13.2640894 C20.6356328,13.2596549 20.6356328,13.2550909 20.6365116,13.2506564 C20.6365116,13.2506564 20.6365116,13.2506564 20.6365116,13.2506564 C20.641776,13.2414492 20.6462681,13.2318212 20.6499419,13.2218715 C20.6507697,13.2161372 20.6507697,13.2103349 20.6499419,13.2046006 C20.6510456,13.1956793 20.6510456,13.1866559 20.6499419,13.1777346 L20.6499419,13.1604637 L20.6499419,13.1604637 C20.6507697,13.1508916 20.6507697,13.1412509 20.6499419,13.1316788 C20.6499419,13.1316788 20.6499419,13.1182458 20.6499419,13.1124888 L20.6499419,12.014824 L11.127907,17.512743 Z" id="Path" fill="#454445"></path>
                        <path d="M20.46,5.60346369 C20.8187791,5.80879609 20.8206977,6.14462011 20.46,6.35187151 L11.1125581,11.7864637 C10.7057091,11.9935979 10.224349,11.9935979 9.8175,11.7864637 L0.416337209,6.35187151 C0.0575581395,6.14462011 0.0556395349,5.80879609 0.416337209,5.60346369 L9.76569767,0.168871508 C10.1725467,-0.0382626687 10.6539068,-0.0382626687 11.0607558,0.168871508 L20.46,5.60346369 Z" id="Path" fill="#828282"></path>
                        <path d="M7.73005814,4.64396648 L8.11377907,4.42328212 C8.59534884,4.61518156 8.96180233,4.57104469 9.23232558,4.42328212 C9.6525,4.18148883 10.1302326,3.7785 10.5887791,3.51559777 C11.083849,3.22459423 11.6976627,3.22459423 12.1927326,3.51559777 L12.5073837,3.69598324 L12.0814535,3.94161453 L11.8588953,3.8130419 C11.6099217,3.65073304 11.2886249,3.65073304 11.0396512,3.8130419 C10.6290698,4.04907821 10.1398256,4.45014804 9.69662791,4.70921229 C9.29395051,4.9396747 8.80732796,4.97084754 8.37854651,4.79364804 L8.36895349,4.79364804 C8.68744186,5.0853352 8.5819186,5.34631844 8.21546512,5.56124581 C7.76843023,5.82031006 7.06430233,6.10240223 6.66331395,6.32884358 C6.37360465,6.49771508 6.40622093,6.64739665 6.67674419,6.8028352 L6.89930233,6.93140782 L6.47337209,7.17703911 L6.15872093,6.99665363 C5.68290698,6.72031844 5.62151163,6.37489944 6.15872093,6.06977933 C6.61726744,5.8049581 7.30988372,5.52862291 7.73197674,5.28682961 C7.98523256,5.13331006 8.05813953,4.92222067 7.73005814,4.64396648 Z" id="Path" fill="#454445"></path>
                        <path d="M11.6171512,7.53397207 C11.1969767,7.77576536 10.7192442,8.17875419 10.2606977,8.44165642 C9.76562777,8.73265996 9.15181409,8.73265996 8.65674419,8.44165642 L8.34209302,8.26127095 L8.76802326,8.01563966 L8.9905814,8.14421229 C9.24128301,8.30300058 9.56104258,8.30300058 9.81174419,8.14421229 C10.220407,7.90625698 10.7096512,7.50518715 11.1547674,7.2480419 C11.5588783,7.01617677 12.0472977,6.98360886 12.4786047,7.15976816 L12.4786047,7.15976816 C12.1543605,6.87383799 12.2598837,6.61093575 12.6263372,6.39217039 C13.0733721,6.13310615 13.7775,5.85101397 14.1784884,5.61497765 C14.4701163,5.44610615 14.4355814,5.29642458 14.1650581,5.14098603 L13.9425,5.01241341 L14.3684302,4.76678212 L14.6830814,4.9471676 C15.1588953,5.22350279 15.2202907,5.56892179 14.6926744,5.8740419 C14.2360465,6.13886313 13.5415116,6.41519832 13.1194186,6.65891061 C12.850814,6.81434916 12.7759884,7.02543855 13.1059884,7.30369274 L12.7222674,7.52437709 C12.2541279,7.33631564 11.8953488,7.37853352 11.6171512,7.53397207 Z" id="Path" fill="#454445"></path>
                    </g>
                </g>
            </g>
        </g>
    </g>
</svg>