<?xml version="1.0" encoding="UTF-8"?>
<svg width="30px" height="30px" viewBox="0 0 30 30" version="1.1" xmlns="http://www.w3.org/2000/svg" xmlns:xlink="http://www.w3.org/1999/xlink">
    <!-- Generator: Sketch 55.2 (78181) - https://sketchapp.com -->
    <title>dingding</title>
    <desc>Created with Sketch.</desc>
    <g id="页面1" stroke="none" stroke-width="1" fill="none" fill-rule="evenodd">
        <g id="切图画板" transform="translate(-1884.000000, -122.000000)">
            <g id="编组-11" transform="translate(1884.000000, 122.000000)">
                <g id="编组">
                    <circle id="椭圆形" fill="#4285F4" cx="15" cy="15" r="15"></circle>
                    <path d="M20.9616736,12.4918567 C20.9099321,12.6543001 20.8581906,12.8708913 20.7547076,13.0874826 C20.0820684,14.6036211 18.3228581,17.5276027 18.3228581,17.5276027 L17.8054433,18.4481154 L20.2890343,18.4481154 L15.5805596,25 L16.6671307,20.5598799 L14.7526959,20.5598799 L15.4253352,17.6358983 C14.8561789,17.7983417 14.2352811,17.9607851 13.4591589,18.2315242 C13.4591589,18.2315242 12.4243293,18.8812978 10.5098945,17.0402724 C10.5098945,17.0402724 9.21635754,15.8490207 9.94073827,15.5241339 C10.2511871,15.4158382 11.4929827,15.2533948 12.4760708,15.0909514 C13.8213493,14.928508 14.5974715,14.8202123 14.5974715,14.8202123 C14.5974715,14.8202123 10.5098946,14.8743601 9.57854789,14.7119168 C8.59545977,14.5494733 7.40540572,12.8708913 7.14669833,11.3547527 C7.14669833,11.3547527 6.73276648,10.5425356 8.02630348,10.9215703 C9.31984048,11.3006049 14.54573,12.4377089 14.54573,12.4377089 C14.54573,12.4377089 7.7158546,10.2176488 7.25018128,9.67617074 C6.78450795,9.13469268 5.90490278,6.75218918 6.00838575,5.2901984 C6.00838575,5.2901984 6.06012722,4.91116377 6.4223176,5.01945936 C6.4223176,5.01945936 11.4929827,7.45611066 14.9596618,8.75565802 C18.3745996,10.1093532 21.3756054,10.8132747 20.9616736,12.4918567 Z" id="路径" fill="#FFFFFF" fill-rule="nonzero"></path>
                </g>
            </g>
        </g>
    </g>
</svg>