<?xml version="1.0" encoding="UTF-8"?>
<svg width="14px" height="16px" viewBox="0 0 14 16" version="1.1" xmlns="http://www.w3.org/2000/svg" xmlns:xlink="http://www.w3.org/1999/xlink">
    <!-- Generator: Sketch 55.2 (78181) - https://sketchapp.com -->
    <title>document</title>
    <desc>Created with Sketch.</desc>
    <g id="页面1" stroke="none" stroke-width="1" fill="none" fill-rule="evenodd">
        <g id="切图画板" transform="translate(-427.000000, -127.000000)" fill-rule="nonzero">
            <g id="编组-10" transform="translate(427.000000, 127.000000)">
                <g id="wendang">
                    <path d="M0.878080986,0.00964506173 C0.398602553,0.00964506173 0.00770246479,0.401234568 0.00770246479,0.881558642 L0.00770246479,15.1099537 C0.00770246479,15.5902778 0.398602553,15.9818673 0.878080986,15.9818673 L13.0518266,15.9818673 C13.531305,15.9818673 13.9222051,15.5902778 13.9222051,15.1099537 L13.9222051,3.49537037 L10.4426166,0.00964506173 L0.878080986,0.00964506173 Z" id="路径" fill="#3E3E3E"></path>
                    <path d="M13.9222051,3.49537037 L11.3129952,3.49537037 C10.8354423,3.49537037 10.4426166,3.10378086 10.4426166,2.62345679 L10.4426166,0.00964506173 L13.9222051,3.49537037 Z" id="路径" fill="#CDCDCD"></path>
                    <path d="M6.52976452,5.96257716 L3.92055458,5.96257716 C3.68177817,5.96257716 3.48536532,5.7658179 3.48536532,5.52662037 C3.48536532,5.28742284 3.68177817,5.09066358 3.92055458,5.09066358 L6.52976452,5.09066358 C6.76854093,5.09066358 6.96495379,5.28742284 6.96495379,5.52662037 C6.96495379,5.76774691 6.76854093,5.96257716 6.52976452,5.96257716 Z M10.0074274,8.57638889 L3.92055458,8.57638889 C3.68177817,8.57638889 3.48536532,8.37962963 3.48536532,8.1404321 C3.48536532,7.90123457 3.68177817,7.70447531 3.92055458,7.70447531 L10.0074274,7.70447531 C10.2462038,7.70447531 10.4426166,7.90123457 10.4426166,8.1404321 C10.4426166,8.37962963 10.2481294,8.57638889 10.0074274,8.57638889 Z M10.0074274,11.1902006 L3.92055458,11.1902006 C3.68177817,11.1902006 3.48536532,10.9934414 3.48536532,10.7542438 C3.48536532,10.5150463 3.68177817,10.318287 3.92055458,10.318287 L10.0074274,10.318287 C10.2462038,10.318287 10.4426166,10.5150463 10.4426166,10.7542438 C10.4426166,10.9934414 10.2481294,11.1902006 10.0074274,11.1902006 Z" id="形状" fill="#CDCDCD"></path>
                </g>
            </g>
        </g>
    </g>
</svg>