<?xml version="1.0" encoding="UTF-8"?>
<svg width="14px" height="14px" viewBox="0 0 14 14" version="1.1" xmlns="http://www.w3.org/2000/svg" xmlns:xlink="http://www.w3.org/1999/xlink">
    <!-- Generator: Sketch 55.2 (78181) - https://sketchapp.com -->
    <title>doubt</title>
    <desc>Created with Sketch.</desc>
    <g id="页面1" stroke="none" stroke-width="1" fill="none" fill-rule="evenodd">
        <g id="切图画板" transform="translate(-784.000000, -770.000000)" fill="#666666">
            <g id="编组-26" transform="translate(784.000000, 770.000000)">
                <path d="M7,14 C3.13400675,14 0,10.8659932 0,7 C0,3.13400675 3.13400675,0 7,0 C10.8659932,0 14,3.13400675 14,7 C14,10.8659932 10.8659932,14 7,14 Z M6.99064383,3 C6.18278357,3 5.5495958,3.23076923 5.08016348,3.69230769 C4.59981414,4.15384615 4.3705565,4.79120879 4.3705565,5.6043956 L5.61509798,5.6043956 C5.61509798,5.14285714 5.70243422,4.78021978 5.88802374,4.52747253 C6.09544733,4.21978022 6.43387527,4.07692308 6.91422462,4.07692308 C7.28540366,4.07692308 7.58016348,4.17582418 7.78758706,4.38461538 C7.98409361,4.59340659 8.09326392,4.87912088 8.09326392,5.24175824 C8.09326392,5.51648352 7.99501064,5.78021978 7.79850409,6.02197802 L7.66749973,6.17582418 C6.95789274,6.81318681 6.53212855,7.27472527 6.39020715,7.57142857 C6.23736872,7.86813187 6.17186654,8.23076923 6.17186654,8.64835165 L6.17186654,8.8021978 L7.42732505,8.8021978 L7.42732505,8.64835165 C7.42732505,8.38461538 7.48191021,8.15384615 7.59108051,7.93406593 C7.68933379,7.73626374 7.83125519,7.54945055 8.02776174,7.38461538 C8.5517792,6.92307692 8.86837309,6.62637363 8.96662636,6.51648352 C9.2286351,6.16483516 9.3705565,5.71428571 9.3705565,5.16483516 C9.3705565,4.49450549 9.15221588,3.96703297 8.71553466,3.58241758 C8.27885344,3.18681319 7.70025082,3 6.99064383,3 Z M6.79413728,9.34065934 C6.55396261,9.34065934 6.35745606,9.41758242 6.1937006,9.57142857 C6.02994514,9.72527473 5.95352593,9.92307692 5.95352593,10.1648352 C5.95352593,10.4065934 6.02994514,10.6043956 6.1937006,10.7582418 C6.35745606,10.9120879 6.55396261,11 6.79413728,11 C7.03431195,11 7.2308185,10.9230769 7.39457396,10.7692308 C7.55832942,10.6153846 7.64566567,10.4065934 7.64566567,10.1648352 C7.64566567,9.92307692 7.55832942,9.72527473 7.40549099,9.57142857 C7.24173553,9.41758242 7.03431195,9.34065934 6.79413728,9.34065934 Z" id="形状备份"></path>
            </g>
        </g>
    </g>
</svg>