<?xml version="1.0" encoding="UTF-8"?>
<svg width="14px" height="13px" viewBox="0 0 14 13" version="1.1" xmlns="http://www.w3.org/2000/svg" xmlns:xlink="http://www.w3.org/1999/xlink">
    <!-- Generator: Sketch 55.2 (78181) - https://sketchapp.com -->
    <title>filter</title>
    <desc>Created with Sketch.</desc>
    <g id="页面1" stroke="none" stroke-width="1" fill="none" fill-rule="evenodd">
        <g id="切图画板" transform="translate(-1708.000000, -764.000000)" fill="#666666">
            <g id="编组-31" transform="translate(1708.000000, 764.000000)">
                <g id="编组-30">
                    <path d="M11.0526316,0 L0.947368422,0 C0.410526311,0 0,0.371428567 0,0.857142857 L0,1.37142857 C0,1.6 0.0947368422,1.8 0.252631569,1.94285715 L4.42105263,5.42857142 C4.61052631,5.6 4.73684209,5.82857143 4.73684211,6.05714286 L4.73684211,10.3142857 C4.73684211,10.6 4.89473685,10.8857143 5.17894736,11.0285714 L6.78947368,11.9142857 C6.82105262,12 6.88421052,12 6.94736842,12 C7.10526316,12 7.26315789,11.8857143 7.26315789,11.7142857 L7.26315789,6.05714286 C7.26315789,5.82857143 7.38947368,5.60000001 7.57894737,5.42857142 L11.7473684,1.94285715 C11.9052632,1.77142858 12,1.57142858 12,1.37142857 L12,0.857142857 C12,0.371428567 11.5894737,0 11.0526316,0 Z" id="路径" fill-rule="nonzero"></path>
                    <rect id="矩形" stroke="#0F0F0F" x="6.5" y="4.5" width="7" height="2" rx="0.5"></rect>
                    <rect id="矩形备份" stroke="#0F0F0F" x="6.5" y="7.5" width="7" height="2" rx="0.5"></rect>
                    <rect id="矩形备份-2" stroke="#0F0F0F" x="6.5" y="10.5" width="7" height="2" rx="0.5"></rect>
                </g>
            </g>
        </g>
    </g>
</svg>