<?xml version="1.0" encoding="UTF-8"?>
<svg width="11px" height="12px" viewBox="0 0 11 12" version="1.1" xmlns="http://www.w3.org/2000/svg" xmlns:xlink="http://www.w3.org/1999/xlink">
    <!-- Generator: Sketch 55.2 (78181) - https://sketchapp.com -->
    <title>funnel</title>
    <desc>Created with Sketch.</desc>
    <g id="页面1" stroke="none" stroke-width="1" fill="none" fill-rule="evenodd">
        <g id="切图画板" transform="translate(-1015.000000, -771.000000)" fill="#666666" fill-rule="nonzero">
            <g id="编组-27" transform="translate(1015.000000, 771.000000)">
                <path d="M10.1315789,0 L0.868421053,0 C0.376315785,0 0,0.371428567 0,0.857142857 L0,1.37142857 C0,1.6 0.0868421053,1.8 0.231578939,1.94285715 L4.05263157,5.42857142 C4.22631578,5.6 4.34210525,5.82857143 4.34210527,6.05714286 L4.34210527,10.3142857 C4.34210527,10.6 4.48684211,10.8857143 4.74736842,11.0285714 L6.22368421,11.9142857 C6.25263157,12 6.31052631,12 6.36842105,12 C6.5131579,12 6.65789473,11.8857143 6.65789473,11.7142857 L6.65789473,6.05714286 C6.65789473,5.82857143 6.7736842,5.60000001 6.94736843,5.42857142 L10.7684211,1.94285715 C10.9131579,1.77142858 11,1.57142858 11,1.37142857 L11,0.857142857 C11,0.371428567 10.6236842,0 10.1315789,0 Z" id="路径"></path>
            </g>
        </g>
    </g>
</svg>