<?xml version="1.0" encoding="UTF-8"?>
<svg width="15px" height="16px" viewBox="0 0 15 16" version="1.1" xmlns="http://www.w3.org/2000/svg" xmlns:xlink="http://www.w3.org/1999/xlink">
    <!-- Generator: Sketch 55.2 (78181) - https://sketchapp.com -->
    <title>search</title>
    <desc>Created with Sketch.</desc>
    <g id="页面1" stroke="none" stroke-width="1" fill="none" fill-rule="evenodd">
        <g id="切图画板" transform="translate(-637.000000, -127.000000)" fill="#828282" fill-rule="nonzero">
            <g id="编组-2" transform="translate(637.000000, 127.000000)">
                <path d="M10.0988792,10.1628792 L14.12,14.184 C14.32,14.384 14.32,14.72 14.12,14.92 C13.92,15.12 13.584,15.12 13.384,14.92 L9.29277722,10.8287772 C8.3372644,11.4865391 7.18061873,11.872 5.936,11.872 C2.664,11.872 2.66453526e-14,9.208 2.66453526e-14,5.936 C2.66453526e-14,2.664 2.664,-2.23820962e-13 5.936,-2.23820962e-13 C9.208,-2.23820962e-13 11.872,2.664 11.872,5.936 C11.872,7.58823331 11.1927176,9.08543519 10.0988792,10.1628792 Z M5.936,1.04 C3.24,1.04 1.04,3.232 1.04,5.936 C1.04,8.632 3.232,10.832 5.936,10.832 C8.632,10.832 10.832,8.64 10.832,5.936 C10.832,3.24 8.632,1.04 5.936,1.04 Z" id="形状结合"></path>
            </g>
        </g>
    </g>
</svg>