<?xml version="1.0" encoding="UTF-8"?>
<svg width="16px" height="16px" viewBox="0 0 16 16" version="1.1" xmlns="http://www.w3.org/2000/svg" xmlns:xlink="http://www.w3.org/1999/xlink">
    <!-- Generator: Sketch 59.1 (86144) - https://sketch.com -->
    <title>file-storage</title>
    <desc>Created with Sketch.</desc>
    <g id="页面1" stroke="none" stroke-width="1" fill="none" fill-rule="evenodd">
        <g id="配置管理" transform="translate(-28.000000, -179.000000)">
            <g id="编组-6" transform="translate(28.000000, 179.000000)">
                <g id="tabicon/文件存储">
                    <circle id="椭圆形" fill="#232323" cx="8" cy="8" r="8"></circle>
                    <g id="cunchu-" stroke-width="1" transform="translate(3.200000, 3.200000)">
                        <path d="M1.37122339,9.06973109 C0.625754044,9.06973109 0.0192642846,8.47200868 0.0192642846,7.73731484 C0.0192642846,7.6071271 0.0428234668,7.47245772 0.0912642803,7.32556793 L1.25019482,0.767200975 C1.30742747,0.347984673 1.65550092,0.0339765286 2.07787641,0.0201153049 L7.4886271,0.0201153049 C7.9008883,0.0337071408 8.24736992,0.339560184 8.31207195,0.747388731 L9.47303515,7.32346181 C9.52321474,7.47669445 9.54638208,7.60769036 9.54638208,7.73733933 C9.54638208,8.47200868 8.93945151,9.06973109 8.19346788,9.06973109 L1.37122339,9.06973109 L1.37122339,9.06973109 Z" id="路径" fill="#006064" fill-rule="nonzero"></path>
                        <path d="M7.48823527,0.0320663246 C7.89501075,0.0456336707 8.23652094,0.347201 8.30036583,0.749666282 L9.46128005,7.32551895 L9.46157393,7.32720875 L9.4621127,7.32882507 C9.51148413,7.47916792 9.53445555,7.60898832 9.53445555,7.73733933 C9.53445555,8.46542092 8.93288824,9.05778007 8.19349237,9.05778007 L1.37122339,9.05778007 C0.632317309,9.05778007 0.0311908145,8.46544541 0.0311908145,7.73733933 C0.0311908145,7.60844955 0.0545540784,7.47500466 0.102603055,7.32933936 L0.103141831,7.32769854 L0.103435708,7.32600875 L1.26209686,0.768351995 C1.31732363,0.356578323 1.66222943,0.0451323708 2.07748457,0.0320663246 L7.48823527,0.0320663246 M7.4886271,0.00818877502 L2.07748457,0.00818877502 C1.65067643,0.0222214272 1.29618666,0.341984673 1.23843972,0.765119342 L0.0799255054,7.32184548 C0.0364316305,7.45367405 0.00731326487,7.59169853 0.00731326487,7.73733933 C0.00731326487,8.47994337 0.618578535,9.08165762 1.37122339,9.08165762 L8.19349237,9.08165762 C8.94662702,9.08165762 9.5583331,8.47996786 9.5583331,7.73733933 C9.5583331,7.59123322 9.52823515,7.45369854 9.48479025,7.32138018 L8.32387603,0.745503017 C8.25816992,0.331331613 7.90779443,0.0219765293 7.4886271,0.00818877502 Z" id="形状" fill-rule="nonzero"></path>
                        <path d="M1.53283418,7.17145365 C1.11863038,7.17145365 0.782810939,7.49214751 0.782810939,7.88775565 C0.782810939,8.28336379 1.11863038,8.60410663 1.53283418,8.60410663 L8.0327877,8.60410663 C8.44701714,8.60410663 8.78281094,8.28338828 8.78281094,7.88775565 C8.78281094,7.49212302 8.44701714,7.17145365 8.0327877,7.17145365 L1.53283418,7.17145365 Z M3.85120691,3.91328242 C3.50898653,3.91328242 3.23078246,4.15773955 3.23078246,4.46038443 C3.23078246,4.76229461 3.50898653,5.0070946 3.85120691,5.0070946 L5.71368027,5.0070946 C6.05744352,5.0070946 6.33486391,4.76268645 6.33486391,4.45999259 C6.33486391,4.15813138 6.05744352,3.91328242 5.71404762,3.91328242 C5.71404762,3.46161714 5.29730479,3.09419675 4.78279869,3.09419675 C4.26834158,3.09419675 3.85120691,3.46161714 3.85120691,3.91328242 Z" id="形状" fill="#232323" fill-rule="nonzero"></path>
                        <path d="M7.40932915,8.11460462 C7.28428426,8.11460462 7.18252916,8.01284952 7.18252916,7.88778014 C7.18252916,7.76271076 7.28428426,7.66093118 7.40932915,7.66093118 C7.53442302,7.66093118 7.63617812,7.76268627 7.63617812,7.88778014 C7.63617812,8.01284952 7.53442302,8.11460462 7.40932915,8.11460462 Z" id="路径" fill="#006064" fill-rule="nonzero"></path>
                        <path d="M7.40932915,7.67285771 C7.52783527,7.67285771 7.62425159,7.76927403 7.62425159,7.88775565 C7.62425159,8.00626177 7.52783527,8.1026536 7.40932915,8.1026536 C7.29084752,8.1026536 7.19445569,8.00623728 7.19445569,7.88775565 C7.19445569,7.76927403 7.29084752,7.67285771 7.40932915,7.67285771 M7.40932915,7.64898016 C7.27745161,7.64898016 7.17057814,7.75587811 7.17057814,7.88775565 C7.17057814,8.0196332 7.27745161,8.12653115 7.40932915,8.12653115 C7.54120669,8.12653115 7.64812914,8.01960871 7.64812914,7.88775565 C7.64812914,7.7559026 7.54120669,7.64898016 7.40932915,7.64898016 Z" id="形状" fill-rule="nonzero"></path>
                    </g>
                </g>
            </g>
        </g>
    </g>
</svg>