<?xml version="1.0" encoding="UTF-8"?>
<svg width="14px" height="14px" viewBox="0 0 14 14" version="1.1" xmlns="http://www.w3.org/2000/svg" xmlns:xlink="http://www.w3.org/1999/xlink">
    <!-- Generator: Sketch 55.2 (78181) - https://sketchapp.com -->
    <title>icon-accout</title>
    <desc>Created with Sketch.</desc>
    <g id="页面1" stroke="none" stroke-width="1" fill="none" fill-rule="evenodd">
        <g id="切图画板" transform="translate(-532.000000, -770.000000)">
            <g id="编组-25" transform="translate(532.000000, 770.000000)">
                <g id="小icon/人头">
                    <g id="分组-3">
                        <path d="M11.9725493,11.0645161 C11.9908498,11.2510688 12,11.1018267 12,11.2883793 C12,11.474932 11.9862747,11.652157 11.9611116,11.8200544 C11.9336609,11.9879518 11.8924849,12.1138748 11.8398712,12.2001555 C11.8009827,12.2561213 11.6888926,12.314419 11.5058882,12.3797124 C11.3228839,12.4450058 9.41277589,13 6.72718693,13 C4.27264098,13 2.15894064,12.594248 1.82267013,12.517295 C1.48639963,12.440342 1.28509483,12.3750486 1.21418064,12.3214147 C1.12725357,12.2561213 1.06320205,12.0625729 1.02202606,11.7384376 C0.980850077,11.4119704 0.996862952,11.3303537 1.07463981,10.8219977 C1.12267846,10.5281772 2.56612533,11.1717839 2.75141724,11.0225418 C2.93899671,10.8709677 3.1608895,10.7520404 3.41252048,10.6657598 C3.66643902,10.5771473 4.84224203,10.1643995 5.11217345,10.0921104 C5.38210488,10.0198212 5.61772299,9.91721724 5.81902778,9.78196656 C5.9837317,9.6793626 6.10954719,9.57909054 6.19876182,9.4834823 C6.28797645,9.38787406 5.02524637,8.42479594 5.05955969,8.32918771 C5.09387302,8.23357947 5.11217345,8.13563932 5.11217345,8.03070345 C5.11217345,7.92809949 5.10759834,7.81616788 5.10073567,7.69490866 C5.08472279,7.50369217 5.02524637,7.35678196 4.92001887,7.25417799 C4.81479137,7.15157403 4.69812609,7.04430624 4.56316037,6.93237464 C4.49910885,6.87640885 4.44649509,6.79945587 4.39845646,6.69918381 C4.35041781,6.59891175 4.30924183,6.4986397 4.27035341,6.39603573 C4.23146498,6.27710841 4.19257656,6.15351727 4.15368813,6.02759423 C4.09878682,6.01127086 4.04388552,5.98561988 3.98898421,5.94364553 C3.94094556,5.90400309 3.89061937,5.84803729 3.83571806,5.77574814 C3.78081676,5.70345898 3.73506567,5.60085502 3.69388969,5.46560434 C3.65500126,5.33268557 3.64127593,5.20909443 3.65500126,5.10182665 C3.66643904,4.99455888 3.68702702,4.90128254 3.71905278,4.82199766 C3.74879099,4.73338514 3.79682963,4.65176835 3.86088115,4.57015156 C3.85401848,4.26933539 3.86774382,3.96618732 3.9089198,3.66303924 C3.93865801,3.40886124 3.99584687,3.13835988 4.07819883,2.85153516 C4.16055079,2.56471045 4.27950363,2.30586862 4.43505733,2.07734161 C4.58374837,1.86280605 4.74845228,1.68558102 4.93145665,1.54566653 C5.11446101,1.40575204 5.29975292,1.29615235 5.48733238,1.21686747 C5.67491186,1.13758259 5.86249132,1.0839487 6.0546459,1.04897008 C6.24451292,1.01865527 6.42980483,1 6.61052164,1 C6.83470198,1 7.0543072,1.0279829 7.26018711,1.0839487 C7.46606702,1.13991449 7.65822159,1.20987174 7.83893839,1.29848426 C8.01736764,1.38709677 8.179784,1.48270502 8.31703728,1.58997279 C8.45886565,1.69724057 8.57095582,1.80684026 8.65788289,1.91877186 C8.85232502,2.17294986 8.9987285,2.45277885 9.09709334,2.75825883 C9.19545819,3.06373881 9.26408482,3.35056354 9.30068569,3.62106489 C9.34872434,3.93820442 9.36702478,4.25767585 9.36016211,4.57481538 C9.41506341,4.60513019 9.45852695,4.65410025 9.48826515,4.71939368 C9.51800337,4.77535948 9.54545402,4.84531673 9.56375445,4.93392925 C9.58205489,5.02254176 9.58434245,5.12747764 9.56832956,5.25573259 C9.54545402,5.42362998 9.50656559,5.55421686 9.45852695,5.65448891 C9.40591319,5.75476097 9.35101189,5.83171394 9.28924793,5.88767975 C9.21833373,5.95297318 9.14513199,5.99494752 9.06735514,6.01826661 C9.03761693,6.14418965 9.00101606,6.2701127 8.96212764,6.38670811 C8.92323921,6.48931207 8.87748812,6.59191605 8.82944949,6.68985619 C8.77683573,6.79012825 8.72193442,6.86708121 8.66017046,6.92304702 C8.58925627,6.98834045 8.52520474,7.03964243 8.46115322,7.0839487 C8.3971017,7.12592304 8.34448794,7.17256121 8.2964493,7.21919937 C8.24841066,7.26816945 8.20952224,7.32413525 8.17978402,7.39176058 C8.15004581,7.45938592 8.12488272,7.5410027 8.10886983,7.63661095 C8.08599429,7.75553827 8.07913162,7.8767975 8.08599429,8.00038864 C8.09285696,8.12164786 7.19156048,9.11270889 7.24646178,9.23396812 C7.30136309,9.35522734 7.39057772,9.47415467 7.51639321,9.58608626 C7.63992115,9.69801786 7.80920019,9.79595801 8.01965519,9.88457052 C8.21409732,9.9638554 8.42912745,10.0338126 8.65788289,10.0921104 C8.88892589,10.15274 9.81538545,10.558492 10.028128,10.6424407 C10.2408706,10.7263894 9.4427554,11.2160902 11.1538462,10.6424407 C11.3162625,10.7823552 11.4352154,10.9479207 11.5061296,11.1554605 C11.545018,11.2743879 11.9542489,10.8779635 11.9725493,11.0645161 Z" id="形状" fill="#FFFFFF" fill-rule="nonzero"></path>
                        <path d="M12.8648263,11.2059852 C12.9107854,11.3447338 12.9459305,11.5242907 12.9675583,11.7419355 C12.9891861,11.9595803 13,11.7854644 13,12.0031092 C13,12.220754 12.9837792,12.4275165 12.9540409,12.6233968 C12.9215993,12.8192771 12.8729367,12.9661873 12.8107568,13.066848 C12.7647978,13.1321415 12.6323276,13.2001555 12.4160497,13.2763311 C12.1997718,13.3525068 9.9423715,14 6.76849364,14 C3.86766661,14 1.36965713,13.5266226 0.972246518,13.4368441 C0.574835924,13.3470657 0.336930253,13.27089 0.253122571,13.2083171 C0.150390582,13.1321415 0.0746933277,12.906335 0.0260307932,12.5281772 C-0.0226317277,12.1472989 -0.00370742077,12.0520793 0.0882106878,11.4589973 C0.144983636,11.1162067 0.282860771,10.855033 0.501842122,10.6809172 C0.723526953,10.5040808 0.985763878,10.3653323 1.28314595,10.2646716 C1.5832315,10.1612903 2.97281688,9.67975125 3.29182674,9.5954139 C3.61083661,9.51107654 3.88929437,9.39137192 4.12720003,9.23357947 C4.32185011,9.11387485 4.47054116,8.99689078 4.57597663,8.88534783 C4.68141209,8.77380488 4.75710935,8.66226193 4.79766146,8.550719 C4.83821356,8.43917605 4.85984135,8.32491254 4.85984135,8.20248736 C4.85984135,8.08278274 4.8544344,7.95219586 4.84632398,7.81072677 C4.82739966,7.58764087 4.75710935,7.41624562 4.63274957,7.29654099 C4.5083898,7.17683637 4.37051265,7.05169061 4.21100771,6.92110375 C4.13531046,6.85581032 4.07313056,6.76603185 4.01635763,6.64904778 C3.95958468,6.53206371 3.91092216,6.41507964 3.86496312,6.29537502 C3.81900407,6.15662648 3.77304502,6.01243681 3.72708597,5.8655266 C3.66220261,5.84648267 3.59731925,5.81655653 3.53243589,5.76758645 C3.47566294,5.72133693 3.41618652,5.6560435 3.35130316,5.57170616 C3.2864198,5.48736881 3.23235033,5.36766419 3.18368781,5.20987173 C3.13772876,5.05479983 3.12150792,4.91061017 3.13772876,4.78546443 C3.15124613,4.66031869 3.17557739,4.55149629 3.21342601,4.45899727 C3.24857117,4.355616 3.30534411,4.26039641 3.38104136,4.16517682 C3.37293094,3.81422463 3.38915179,3.46055187 3.43781431,3.10687911 C3.47295947,2.81033811 3.5405463,2.49475319 3.63787134,2.16012435 C3.73519638,1.82549552 3.87577701,1.52351339 4.0596132,1.25689855 C4.23533898,1.00660705 4.42998906,0.799844527 4.64626695,0.636610953 C4.86254483,0.473377379 5.08152618,0.345511072 5.303211,0.253012047 C5.52489583,0.160513021 5.74658065,0.0979401445 5.97367243,0.0571317578 C6.19806072,0.0217644766 6.41704207,0 6.63061648,0 C6.89555688,0 7.15509033,0.0326467148 7.39840295,0.0979401445 C7.64171556,0.163233574 7.86880733,0.244850361 8.08238173,0.348231639 C8.29325267,0.451612902 8.48519927,0.563155852 8.64740769,0.688301592 C8.81502304,0.813447332 8.94749324,0.941313639 9.05022523,1.0719005 C9.28002048,1.3684415 9.45304277,1.69490866 9.56929213,2.05130197 C9.6855415,2.40769528 9.7666457,2.74232413 9.80990127,3.05790904 C9.86667422,3.42790515 9.88830201,3.80062182 9.88019158,4.17061794 C9.94507494,4.20598522 9.99644094,4.26311696 10.0315861,4.33929263 C10.0667313,4.40458606 10.0991729,4.48620285 10.1208007,4.58958413 C10.1424285,4.69296539 10.145132,4.81539058 10.1262077,4.96502136 C10.0991729,5.16090165 10.0532139,5.313253 9.99644094,5.43023707 C9.93426105,5.54722113 9.86937769,5.63699959 9.79638391,5.70229304 C9.71257623,5.77846871 9.62606508,5.82743878 9.53414699,5.85464437 C9.49900183,6.00155459 9.45574625,6.14846482 9.40978721,6.2844928 C9.36382816,6.40419742 9.30975869,6.52390205 9.25298576,6.63816556 C9.19080586,6.75514963 9.1259225,6.84492808 9.05292872,6.91022153 C8.96912104,6.9863972 8.89342379,7.04624951 8.81772653,7.09794014 C8.74202928,7.14691022 8.67984938,7.20132141 8.62307645,7.2557326 C8.5663035,7.31286436 8.52034446,7.37815779 8.4851993,7.45705401 C8.45005414,7.53595024 8.42031594,7.63116982 8.40139162,7.74271277 C8.37435689,7.88146131 8.36624646,8.02293041 8.37435689,8.16712008 C8.38246731,8.30858917 8.42031594,8.4554994 8.4851993,8.5969685 C8.55008266,8.7384376 8.65551813,8.87718614 8.80420917,9.007773 C8.95019674,9.13835986 9.15025378,9.25262338 9.39897333,9.35600464 C9.62876858,9.44850367 9.88289509,9.53012046 10.1532424,9.59813445 C10.4262932,9.668869 11.5212,10.1422464 11.772623,10.2401865 C12.0240461,10.3381267 12.2511378,10.4605519 12.4484914,10.6074621 C12.640438,10.7706957 12.7810186,10.9638554 12.8648263,11.2059852 L12.8648263,11.2059852 Z M6.72253461,13.0967742 C6.76849367,13.0967742 6.83878398,13.066848 6.93610902,13.0069957 C7.03343406,12.9444228 7.12805564,12.8764088 7.21997373,12.7920715 C7.31189183,12.7077341 7.39299603,12.6233968 7.46058287,12.54178 C7.53087318,12.4574426 7.56331486,12.3948698 7.56331486,12.3458997 C7.56331486,12.288768 7.54979748,12.1935484 7.52276275,12.0520793 C7.49572802,11.9133307 7.46058285,11.7582588 7.42543771,11.5950252 C7.39029255,11.4263506 7.34974045,11.263117 7.31459529,11.0998834 C7.27945013,10.9366498 7.24430498,10.8060629 7.21727025,10.7026817 C7.30918835,10.626506 7.38758908,10.5476098 7.45247244,10.4605519 C7.5173558,10.3707734 7.54979748,10.2809949 7.54979748,10.1884959 C7.54979748,10.1123202 7.52546622,10.0388651 7.47410023,9.95996888 C7.42543771,9.88107265 7.36596129,9.81577922 7.30107793,9.75864747 C7.22538068,9.69335404 7.14968342,9.62806061 7.06587574,9.56276718 L6.37649001,9.56276718 C6.28457191,9.62806061 6.20617118,9.69335404 6.14128782,9.75864747 C6.08451487,9.81577923 6.03585235,9.87835209 5.98989331,9.95452776 C5.94393425,10.0307034 5.919603,10.101438 5.919603,10.1776137 C5.919603,10.2347454 5.95204468,10.3082005 6.02233499,10.4006996 C6.0926253,10.4931986 6.17643298,10.5829771 6.2764615,10.6645938 C6.24942677,10.7489312 6.21157814,10.8686358 6.16561908,11.0264283 C6.11966003,11.1815002 6.07640446,11.3474543 6.03585236,11.5215701 C5.99530025,11.6929654 5.95745163,11.856199 5.92500995,12.0085503 C5.89256827,12.1609016 5.87905089,12.2724446 5.87905089,12.3486203 C5.87905089,12.3948698 5.91149257,12.4601632 5.98178288,12.5445006 C6.05207319,12.6288379 6.13317739,12.7131752 6.23050245,12.794792 C6.32782749,12.8791294 6.42244906,12.949864 6.51436716,13.0097163 C6.60898872,13.0641275 6.67927904,13.0967742 6.72253461,13.0967742 L6.72253461,13.0967742 Z" id="形状" fill="#006064" fill-rule="nonzero"></path>
                    </g>
                </g>
            </g>
        </g>
    </g>
</svg>