<?xml version="1.0" encoding="UTF-8"?>
<svg width="14px" height="10px" viewBox="0 0 14 10" version="1.1" xmlns="http://www.w3.org/2000/svg" xmlns:xlink="http://www.w3.org/1999/xlink">
    <!-- Generator: Sketch 55.2 (78181) - https://sketchapp.com -->
    <title>invisible</title>
    <desc>Created with Sketch.</desc>
    <g id="页面1" stroke="none" stroke-width="1" fill="none" fill-rule="evenodd">
        <g id="切图画板" transform="translate(-2232.000000, -132.000000)" fill="#3E3E3E" fill-rule="nonzero">
            <g id="编组-13" transform="translate(2232.000000, 132.000000)">
                <g id="dengluzhucezhaohuimimatongyong--bukejian">
                    <path d="M4.00574684,9.17966061 L4.66712122,8.50796427 C5.40830571,8.8124291 6.2008325,8.96719863 7.0003409,8.96360982 C9.2776506,8.96360982 10.8369941,7.77879288 11.7445088,6.78440532 C12.2478723,6.22995818 12.6789166,5.61205097 13.0270297,4.94589626 C12.6834603,4.29861582 12.2587839,3.69925897 11.7636001,3.16278484 C11.4976867,2.87610208 11.1738178,2.57349249 10.7913115,2.28888714 L11.4138217,1.65666162 C11.7983733,1.95303898 12.1276969,2.26395821 12.4024741,2.56033556 C13.4143087,3.64820664 13.9249988,4.7693163 14,4.94243392 C13.896362,5.18272117 13.3863537,6.28859648 12.3888375,7.38131485 C11.3626845,8.50519438 9.59470121,9.84512471 7.0003409,9.84512471 C5.96600018,9.85065039 4.94329933,9.62338395 4.00574684,9.17966061 Z M2.79549992,8.45118169 C2.36805984,8.1342224 1.97188221,7.77592424 1.61252618,7.38131485 C0.594555101,6.26643742 0.0763648628,5.11901388 0,4.94243392 C0.102274385,4.70699396 0.60410072,3.62812499 1.59752593,2.55964309 C2.6202698,1.46069248 4.38688939,0.150538381 7.0003409,0.150538381 C8.27127062,0.150538381 9.34242437,0.460765149 10.2247114,0.905331182 L9.57015536,1.57010281 C8.75982919,1.21006831 7.88412105,1.02676738 6.99965908,1.03205327 C4.70053084,1.03205327 3.14050552,2.19055633 2.23639993,3.16278484 C1.74061332,3.69799098 1.31586902,4.2967454 0.972970331,4.94381886 C1.19115568,5.36207102 1.61388982,6.08154781 2.25549115,6.78440532 C2.60605944,7.16976188 2.99624384,7.51589219 3.41937368,7.81687875 L2.7948181,8.45118169 L2.79549992,8.45118169 Z M5.80509424,7.35223108 L8.13490479,4.98605955 C8.70356994,5.0652132 9.25677655,4.75931607 9.49992695,4.23126676 C9.5735645,4.47570882 9.62538352,4.72984548 9.62538352,4.99783155 C9.62538352,6.45825174 8.44990989,7.64168688 7.0003409,7.64168688 C6.58501857,7.6423313 6.1754412,7.54314403 5.80509424,7.35223108 L5.80509424,7.35223108 Z M4.78985048,6.42432067 C4.51865142,5.99958832 4.37464371,5.50405256 4.37529607,4.99783155 C4.37529607,3.53741136 5.55009009,2.35397937 7.0003409,2.35397937 C7.26625431,2.35397937 7.51853113,2.40591465 7.76126236,2.48000898 C7.15369754,2.76176647 6.85556925,3.4655604 7.07193298,4.10731454 L4.78985048,6.42501315 L4.78985048,6.42432067 Z M11.9804218,0.102065447 C12.1135087,0.237270251 12.1135087,0.456437261 11.9804218,0.591642066 L2.82004578,9.89429011 C2.73445079,9.98429611 2.60769764,10.0203931 2.48850393,9.98870722 C2.36931023,9.95702134 2.27622527,9.86248362 2.2450263,9.74142968 C2.21382733,9.62037574 2.24936962,9.49164436 2.33799249,9.40471351 L11.4983685,0.101372983 C11.6314956,-0.0337909943 11.8472946,-0.0337909943 11.9804218,0.101372983 L11.9804218,0.102065447 Z" id="形状"></path>
                </g>
            </g>
        </g>
    </g>
</svg>