<?xml version="1.0" encoding="UTF-8"?>
<svg width="12px" height="12px" viewBox="0 0 12 12" version="1.1" xmlns="http://www.w3.org/2000/svg" xmlns:xlink="http://www.w3.org/1999/xlink">
    <!-- Generator: Sketch 55.2 (78181) - https://sketchapp.com -->
    <title>magnifyingglass</title>
    <desc>Created with Sketch.</desc>
    <g id="页面1" stroke="none" stroke-width="1" fill="none" fill-rule="evenodd">
        <g id="切图画板" transform="translate(-1255.000000, -771.000000)" fill="#666666" fill-rule="nonzero">
            <g id="编组-28" transform="translate(1255.000000, 771.000000)">
                <path d="M11.6698379,11.6698271 C11.2296217,12.1100576 10.5162758,12.1100576 10.0760596,11.6698271 L8.08706498,9.68076763 C7.26924112,10.2051311 6.3023307,10.5177927 5.25911614,10.5177927 C2.35447186,10.5177927 0,8.16363533 0,5.25889633 C0,2.35415733 2.35447186,0 5.25911614,0 C8.16376042,0 10.517841,2.35454864 10.517841,5.25889633 C10.517841,6.30253622 10.2051897,7.26908685 9.68084326,8.0873287 L11.6698379,10.0763882 C12.110054,10.5166187 12.110054,11.2303792 11.6698379,11.6702184 L11.6698379,11.6702184 L11.6698379,11.6698271 Z M5.25950745,1.50265361 C3.18481743,1.50265361 1.50299592,3.18452997 1.50299592,5.25889633 C1.50299592,7.33326268 3.18481743,9.01513904 5.25950745,9.01513904 C7.33380616,9.01513904 9.01562795,7.33326268 9.01562795,5.25889633 C9.01641028,3.18452997 7.33380616,1.50265361 5.25950745,1.50265361 L5.25950745,1.50265361 Z" id="形状"></path>
            </g>
        </g>
    </g>
</svg>