<?xml version="1.0" encoding="UTF-8"?>
<svg width="14px" height="2px" viewBox="0 0 14 2" version="1.1" xmlns="http://www.w3.org/2000/svg" xmlns:xlink="http://www.w3.org/1999/xlink">
    <!-- Generator: Sketch 55.2 (78181) - https://sketchapp.com -->
    <title>more</title>
    <desc>Created with Sketch.</desc>
    <g id="页面1" stroke="none" stroke-width="1" fill="none" fill-rule="evenodd">
        <g id="切图画板" transform="translate(-374.000000, -776.000000)" fill="#CDCDCD">
            <g id="编组-24" transform="translate(374.000000, 776.000000)">
                <path d="M13,2 C12.4477153,2 12,1.55228475 12,1 C12,0.44771525 12.4477153,0 13,0 C13.5522847,0 14,0.44771525 14,1 C14,1.55228475 13.5522847,2 13,2 Z M7,2 C6.44771525,2 6,1.55228475 6,1 C6,0.44771525 6.44771525,0 7,0 C7.55228475,0 8,0.44771525 8,1 C8,1.55228475 7.55228475,2 7,2 Z M1,2 C0.44771525,2 0,1.55228475 0,1 C0,0.44771525 0.44771525,0 1,0 C1.55228475,0 2,0.44771525 2,1 C2,1.55228475 1.55228475,2 1,2 Z" id="形状结合"></path>
            </g>
        </g>
    </g>
</svg>