<?xml version="1.0" encoding="UTF-8"?>
<svg width="185px" height="158px" viewBox="0 0 185 158" version="1.1" xmlns="http://www.w3.org/2000/svg" xmlns:xlink="http://www.w3.org/1999/xlink">
    <!-- Generator: Sketch 55.2 (78181) - https://sketchapp.com -->
    <title>netdisconnection</title>
    <desc>Created with Sketch.</desc>
    <g id="页面1" stroke="none" stroke-width="1" fill="none" fill-rule="evenodd">
        <g id="切图画板" transform="translate(-2062.000000, -390.000000)">
            <g id="编组-20" transform="translate(2062.000000, 390.000000)">
                <g id="编组-4">
                    <g id="编组-2">
                        <path d="M-1.02318154e-12,34.6752569 C46.2238753,-11.558419 121.167585,-11.558419 167.39146,34.6752569 L154.028276,48.041274 C115.184683,9.18944554 52.2067764,9.18944554 13.3631838,48.041274 L-1.02318154e-12,34.6752569 Z M23.2097402,57.8899182 C56.6152299,24.4773457 110.77623,24.4773457 144.18172,57.8899182 L131.521566,70.5527556 C105.191107,44.4063462 62.6549914,44.4648632 36.3970926,70.7283293 C36.3384574,70.786977 36.2799528,70.8457059 36.2215788,70.9045156 L23.2097402,57.8899182 Z M47.1228059,81.808054 C67.3214741,61.6051032 100.069986,61.6051032 120.268654,81.808054 L108.312121,93.767122 C94.7168636,80.168982 72.6745962,80.168982 59.0793388,93.767122 L47.1228059,81.808054 Z M67.5192443,102.208817 C76.4532706,93.2728964 90.9381892,93.2728964 99.8722155,102.208817 L83.6957299,118.388732 L67.5192443,102.208817 Z" id="形状" fill="#828282"></path>
                        <g id="laptop-3" transform="translate(32.968457, 65.385116)">
                            <path d="M46.2167416,91.5868123 L2.39586867,72.2755093 C1.27126372,71.7800035 0.761405684,70.4665081 1.25681001,69.3417724 C1.53129795,68.7186988 2.07576534,68.2555941 2.73480161,68.0848402 L86.6279969,46.3438693 L131.836691,66.9368219 L46.2167416,91.5868123 Z" id="" fill="#2A2A2A"></path>
                            <path d="M148.614342,0.880940349 L69.1652601,16.1786232 C66.5988392,16.6726941 64.5573583,18.6191686 63.9408516,21.1590467 L46.7931996,91.7944288 L128.338107,71.4775337 C130.313226,70.9854994 131.884218,69.4916223 132.475413,67.5436666 L151.674117,4.2788928 C152.102173,2.86749972 151.305511,1.37621472 149.894681,0.947964394 C149.479919,0.821970299 149.040271,0.798919211 148.614342,0.880940349 Z" id="" fill="#454445"></path>
                            <path d="M104.983464,51.7852139 C101.186708,54.2864518 96.9131819,54.8353118 94.6829574,51.4481389 C92.4523123,48.0609478 95.1032395,43.5576247 98.9004962,41.0564233 C102.697292,38.5552036 106.529551,38.0634048 108.759715,41.4505594 C110.990361,44.8377687 108.780721,49.2840307 104.983464,51.7852139 Z" id="" fill="#2A2A2A"></path>
                        </g>
                    </g>
                </g>
            </g>
        </g>
    </g>
</svg>