<?xml version="1.0" encoding="UTF-8"?>
<svg width="165px" height="104px" viewBox="0 0 165 104" version="1.1" xmlns="http://www.w3.org/2000/svg" xmlns:xlink="http://www.w3.org/1999/xlink">
    <!-- Generator: Sketch 55.2 (78181) - https://sketchapp.com -->
    <title>nogroup</title>
    <desc>Created with Sketch.</desc>
    <defs>
        <linearGradient x1="50%" y1="0%" x2="50%" y2="100%" id="linearGradient-1">
            <stop stop-color="#454445" offset="0%"></stop>
            <stop stop-color="#1B1B1B" offset="100%"></stop>
        </linearGradient>
        <linearGradient x1="21.2671716%" y1="19.3394391%" x2="67.2644625%" y2="60.9862086%" id="linearGradient-2">
            <stop stop-color="#454445" offset="0%"></stop>
            <stop stop-color="#454445" stop-opacity="0" offset="100%"></stop>
        </linearGradient>
        <linearGradient x1="21.2671716%" y1="21.040319%" x2="67.2644625%" y2="60.376754%" id="linearGradient-3">
            <stop stop-color="#454445" offset="0%"></stop>
            <stop stop-color="#454445" stop-opacity="0" offset="100%"></stop>
        </linearGradient>
    </defs>
    <g id="页面1" stroke="none" stroke-width="1" fill="none" fill-rule="evenodd">
        <g id="切图画板" transform="translate(-1066.000000, -412.000000)">
            <g id="编组-17" transform="translate(1066.000000, 412.000000)">
                <g id="消息列表-空状态插画">
                    <g id="页面" transform="translate(42.933673, 0.000000)">
                        <polygon id="路径" fill="#2A2A2A" points="57.6679422 0 81.6581633 23.9011078 81.6581633 96.4516129 0 96.4516129 0 0"></polygon>
                        <polygon id="矩形" fill="#454445" points="56.5612245 2.35483871 79.2908163 24.1612903 56.5612245 24.1612903"></polygon>
                        <rect id="矩形" fill="#454445" x="10.9438776" y="35.2258065" width="58.9285714" height="5.03225806"></rect>
                        <rect id="矩形备份" fill="#454445" x="10.9438776" y="45.2903226" width="58.9285714" height="5.03225806"></rect>
                        <rect id="矩形备份-2" fill="#454445" x="10.9438776" y="55.3548387" width="30.3061224" height="5.03225806"></rect>
                        <ellipse id="椭圆形" fill="#454445" cx="19.3622449" cy="17.6129032" rx="8.41836735" ry="8.38709677"></ellipse>
                    </g>
                    <path d="M2.5255102,104 C27.4720634,93.7305601 54.8135361,88.0645161 83.4833183,88.0645161 C112.153101,88.0645161 139.494573,93.7305601 164.441126,104 L2.5255102,104 Z" id="路径" fill="url(#linearGradient-1)"></path>
                    <path d="M20.650007,18.5879112 C21.8543769,17.4630386 23.4739954,16.7741935 25.255102,16.7741935 C28.9745708,16.7741935 31.9897959,19.7782185 31.9897959,23.483871 C31.9897959,27.1895235 28.9745708,30.1935484 25.255102,30.1935484 C25.1159335,30.1935484 24.977751,30.1893428 24.8406754,30.1810523 C23.6078328,34.4203345 19.7611103,37.5531069 15.1530568,37.7337018 C15.1530598,37.736446 15.1530612,37.7391906 15.1530612,37.7419355 C15.1530612,41.9107946 11.7609329,45.2903226 7.57653061,45.2903226 C3.3921283,45.2903226 0,41.9107946 0,37.7419355 C0,34.5511477 1.98716389,31.8227628 4.79578002,30.7181625 C4.41576752,29.6348889 4.20918367,28.4705122 4.20918367,27.2580645 C4.20918367,21.4679825 8.92047298,16.7741935 14.7321429,16.7741935 C16.9264101,16.7741935 18.9638144,17.4433085 20.650007,18.5879112 Z" id="形状结合" fill="url(#linearGradient-2)"></path>
                    <path d="M146.350729,29.5830218 C147.07969,28.921332 148.059985,28.516129 149.138024,28.516129 C151.389281,28.516129 153.214286,30.2832025 153.214286,32.4629981 C153.214286,34.6427937 151.389281,36.4098672 149.138024,36.4098672 C149.05379,36.4098672 148.970153,36.4073933 148.887186,36.4025165 C148.140992,38.8962119 145.812713,40.7390192 143.023628,40.8452516 C143.02363,40.8468658 143.023631,40.8484802 143.023631,40.8500949 C143.023631,43.3023649 140.9705,45.2903226 138.437836,45.2903226 C135.905171,45.2903226 133.852041,43.3023649 133.852041,40.8500949 C133.852041,38.9731609 135.054798,37.3682286 136.75475,36.7184637 C136.524742,36.0812439 136.399705,35.3963165 136.399705,34.683112 C136.399705,31.2771813 139.251274,28.516129 142.768864,28.516129 C144.096973,28.516129 145.330139,28.909726 146.350729,29.5830218 Z" id="形状结合备份" fill="url(#linearGradient-3)" transform="translate(143.533163, 36.903226) rotate(-285.000000) translate(-143.533163, -36.903226) "></path>
                </g>
            </g>
        </g>
    </g>
</svg>