<?xml version="1.0" encoding="UTF-8"?>
<svg width="70px" height="22px" viewBox="0 0 70 22" version="1.1" xmlns="http://www.w3.org/2000/svg" xmlns:xlink="http://www.w3.org/1999/xlink">
    <!-- Generator: Sketch 55.2 (78181) - https://sketchapp.com -->
    <title>oneid-logo</title>
    <desc>Created with Sketch.</desc>
    <g id="页面1" stroke="none" stroke-width="1" fill="none" fill-rule="evenodd">
        <g id="切图画板" transform="translate(-193.000000, -124.000000)" fill="#006064">
            <g id="编组" transform="translate(193.000000, 124.000000)">
                <path d="M0.39800568,8.91461954 L22.6878375,8.91461954 L22.2898318,11.8122626 L5.68434189e-14,11.8122626 L0.39800568,8.91461954 Z M29.7819685,2.51532067 L28.1902952,16.8372681 L25.7903838,16.8372681 L27.5422842,0.019549912 L33.9134026,0.019549912 L33.6805145,2.51532067 L29.7819685,2.51532067 Z M44.3604927,-5.68434189e-14 L47.2011447,-5.68434189e-14 C46.5778199,1.25390703 44.5485498,4.68917266 41.9846853,8.2491976 L47.0111081,8.2491976 L46.7869533,10.6473357 L41.4116642,10.6473357 C42.2624043,14.5278529 44.2533642,18.9013273 46.6601458,21.9381114 L43.4993892,21.9381114 C41.3655524,18.8157379 39.5513545,14.4145523 38.8033181,10.6473357 L38.798311,10.6473357 L37.8435864,19.0436254 C37.8209963,19.2422815 37.9757504,19.4165002 38.1749861,19.4165002 L40.2209076,19.4165002 L39.8869462,21.9381114 L37.3645357,21.9381114 L35.962666,21.9381114 C35.3874326,21.9381114 34.9408697,21.4342803 35.0075922,20.8606447 L36.1956705,10.6473357 L34.2429042,10.6473357 L34.467059,8.2491976 L36.5085556,8.2491976 L37.3761801,-5.68434189e-14 L40.004904,-5.68434189e-14 L39.1180663,8.1845379 C41.1581656,5.66912369 43.1837094,2.28121281 44.3604927,-5.68434189e-14 Z M32.1600234,14.7434398 L32.314661,16.4105609 C32.6161346,18.3775954 33.2990788,20.2747086 34.3094636,21.981935 L31.4010412,21.981935 C31.0314479,21.2209851 30.7169326,20.4338439 30.4560979,19.6285793 C30.324982,19.8450081 30.1873451,20.0574613 30.043071,20.2653546 L29.8092514,20.6022164 C29.4713308,21.0890934 29.0992922,21.549896 28.6967452,21.981935 L24.8106587,21.981935 L25.8290781,21.1559746 C26.5474213,20.5733358 27.1794795,19.8922459 27.7075532,19.1314129 L27.9413728,18.7945511 C28.8315873,17.5121143 29.409499,16.0157041 29.6136254,14.4658591 L30.7387076,3.50773594 L33.3139837,3.50773594 L32.1600234,14.7434398 Z M54.8429586,0.0195849896 L54.0836271,5.67467764 L51.5080017,5.67467764 L52.2672167,0.0195849896 L54.8429586,0.0195849896 Z M49.4125798,7.14218384 L53.98883,7.14218384 L52.3742172,19.4276432 L70,19.4276432 L69.6507844,22 L49.3630911,22 L50.8613764,10.0455562 L49.0631313,10.0455562 L49.4125798,7.14218384 Z M66.7690858,7.95589046 C66.7940049,7.77208387 66.6518267,7.60850536 66.4671465,7.60850536 L63.6686472,7.60850536 L63.4307521,9.42482314 L66.5691514,9.42482314 L66.7690858,7.95589046 Z M66.0279196,13.4019207 L66.2509099,11.7633294 L63.1242714,11.7633294 L62.9095486,13.4019207 L66.0279196,13.4019207 Z M61.0817267,9.42482314 L61.3198548,7.60850536 L58.19473,7.60850536 L57.9481016,9.42482314 L61.0817267,9.42482314 Z M60.5606397,13.4019207 L60.7753625,11.7633294 L57.6306751,11.7633294 L57.4082671,13.4019207 L60.5606397,13.4019207 Z M68.0172494,5.26999914 C68.7936981,5.26999914 69.3915217,5.95798767 69.2864892,6.7305132 L67.6884114,18.3801327 L65.3377559,18.3801327 L65.7095617,15.7404269 L62.6031844,15.7404269 L62.2429066,18.3801327 L59.8938812,18.3801327 L60.254159,15.7404269 L57.0907242,15.7404269 L56.7197335,18.3801327 L54.3693109,18.3801327 L56.1617338,5.26999914 L60.2815234,5.26999914 L58.742832,3.34692856 L61.5530922,3.34692856 L62.6485975,4.71612395 C62.8561008,4.97546429 63.2492158,4.97628276 63.4577671,4.71764398 L64.7657828,3.09588992 C64.9844647,2.82474012 64.7922156,2.42017854 64.4448631,2.42017854 L56.5805829,2.42017854 L56.929915,0.0816723296 L67.8580704,0.0816723296 C68.7950954,0.0816723296 69.3133878,1.17281933 68.7237153,1.90407022 L66.0091721,5.26999914 L68.0172494,5.26999914 Z" id="形状结合"></path>
            </g>
        </g>
    </g>
</svg>