<?xml version="1.0" encoding="UTF-8"?>
<svg width="16px" height="16px" viewBox="0 0 16 16" version="1.1" xmlns="http://www.w3.org/2000/svg" xmlns:xlink="http://www.w3.org/1999/xlink">
    <!-- Generator: Sketch 55.2 (78181) - https://sketchapp.com -->
    <title>synchronous</title>
    <desc>Created with Sketch.</desc>
    <g id="页面1" stroke="none" stroke-width="1" fill="none" fill-rule="evenodd">
        <g id="切图画板" transform="translate(-1757.000000, -129.000000)">
            <g id="编组-9" transform="translate(1757.000000, 129.000000)">
                <g id="tabicon/账号配置">
                    <g id="外部账号" fill="#232323">
                        <circle id="椭圆形-copy-6" cx="8" cy="8" r="8"></circle>
                    </g>
                    <g id="拼图" transform="translate(4.400000, 3.200000)" fill="#006064">
                        <path d="M7.40000992,4 L6.80001199,4 L6.80001199,2.40000138 C6.80001199,1.95799958 6.4420101,1.5999977 6,1.5999977 L4.40000092,1.5999977 L4.40000092,1 C4.40000092,0.447996255 3.95200467,0 3.40000115,0 C2.84799763,0 2.40000138,0.447996255 2.40000138,1 L2.40000138,1.5999977 L0.80000368,1.5999977 C0.358001879,1.5999977 0.00399952043,1.95799959 0.00399952043,2.40000138 L0.00199491488,3.91999871 L0.599997915,3.91999871 C1.19599631,3.91999871 1.67999805,4.40400045 1.67999805,5 C1.67999805,5.59599724 1.19599631,6.07999898 0.599997915,6.07999898 L0.00200460555,6.07999899 L0,7.59999631 C0,8.04199811 0.358001898,8.4 0.800003689,8.4 L2.32000101,8.4 L2.32000101,7.80000208 C2.32000101,7.20400368 2.80400276,6.72000194 3.40000115,6.72000194 C3.99599955,6.72000194 4.48000129,7.20400368 4.48000129,7.80000208 L4.48000129,8.4 L6,8.4 C6.44200041,8.4 6.8000023,8.0419981 6.8000023,7.59999631 L6.8000023,6 L7.40000023,6 C7.95200374,6 8.4,5.55201205 8.4,5 C8.4,4.44800502 7.95200374,4 7.40000992,4 Z" id="路径" fill-rule="nonzero"></path>
                    </g>
                </g>
            </g>
        </g>
    </g>
</svg>