<?xml version="1.0" encoding="UTF-8"?>
<svg width="18px" height="14px" viewBox="0 0 18 14" version="1.1" xmlns="http://www.w3.org/2000/svg" xmlns:xlink="http://www.w3.org/1999/xlink">
    <!-- Generator: Sketch 55.2 (78181) - https://sketchapp.com -->
    <title>thechild</title>
    <desc>Created with Sketch.</desc>
    <g id="页面1" stroke="none" stroke-width="1" fill="none" fill-rule="evenodd">
        <g id="切图画板" transform="translate(-1323.000000, -129.000000)" fill="#006064">
            <g id="编组-6" transform="translate(1323.000000, 129.000000)">
                <g id="copy">
                    <path d="M1.07438017,1.01169591 L1.07438017,5.00389863 L7.4214876,5.00389863 L7.4214876,1.01169591 L1.07438017,1.01169591 Z M0.0165289277,0.0136452281 L8.47933884,0.0136452281 L8.47933884,6.00194932 L0.0165289277,6.00194932 L0.0165289277,0.0136452281 Z M9.53719008,9.99415205 L10.5950413,9.99415205 L10.5950413,11.9902534 L9.53719008,11.9902534 L9.53719008,9.99415205 Z M16.9421488,9.99415205 L18,9.99415205 L18,11.9902534 L16.9421488,11.9902534 L16.9421488,9.99415205 Z M11.6528926,7.99805068 L11.6528926,8.99610137 L9.53719008,8.99610137 L9.53719008,7.99805068 L11.6528926,7.99805068 Z M11.6528926,12.9883041 L11.6528926,13.9863548 L9.53719008,13.9863548 L9.53719008,12.9883041 L11.6528926,12.9883041 Z M14.8264463,12.9883041 L14.8264463,13.9863548 L12.7107438,13.9863548 L12.7107438,12.9883041 L14.8264463,12.9883041 Z M14.8264463,7.99805068 L14.8264463,8.99610137 L12.7107438,8.99610137 L12.7107438,7.99805068 L14.8264463,7.99805068 Z M18,12.9883041 L18,13.9863548 L15.8842975,13.9863548 L15.8842975,12.9883041 L18,12.9883041 Z M18,7.99805068 L18,8.99610137 L15.8842975,8.99610137 L15.8842975,7.99805068 L18,7.99805068 Z" id="形状" fill-rule="nonzero"></path>
                    <polygon id="路径" points="3.71900826 11.4912281 9.49699173 11.4912281 9.49699173 12.4892788 2.66115702 12.4892788 2.66115702 5.00389863 3.71900826 5.00389863"></polygon>
                </g>
            </g>
        </g>
    </g>
</svg>