<?xml version="1.0" encoding="UTF-8"?>
<svg width="14px" height="10px" viewBox="0 0 14 10" version="1.1" xmlns="http://www.w3.org/2000/svg" xmlns:xlink="http://www.w3.org/1999/xlink">
    <!-- Generator: Sketch 55.2 (78181) - https://sketchapp.com -->
    <title>visible</title>
    <desc>Created with Sketch.</desc>
    <g id="页面1" stroke="none" stroke-width="1" fill="none" fill-rule="evenodd">
        <g id="切图画板" transform="translate(-2079.000000, -132.000000)" fill="#CDCDCD" fill-rule="nonzero">
            <g id="编组-12" transform="translate(2079.000000, 132.000000)">
                <g id="kejian">
                    <path d="M7,0 C11.696875,0 14,5 14,5 C14,5 11.71875,9.9625 7,9.9625 C1.79375,9.9625 0,4.98125 0,4.98125 C0,4.98125 2.371875,0.0015625 7,0 Z M7.0109375,8.09375 C8.703125,8.09375 9.925,6.7296875 9.9265625,4.98125 C9.9265625,3.228125 8.7015625,1.8671875 7.0109375,1.8671875 C5.3203125,1.8671875 4.096875,3.228125 4.096875,4.98125 C4.096875,6.734375 5.3203125,8.09375 7.0109375,8.09375 L7.0109375,8.09375 Z M7.0109375,3.11248327 C7.978125,3.109375 8.7609375,3.9796875 8.7609375,4.9796875 C8.7609375,5.978125 7.9765625,6.846875 7.0109375,6.846875 C6.0453125,6.846875 5.2625,5.978125 5.2625,4.9796875 C5.2625,3.98125 6.0453125,3.11248327 7.0109375,3.11248327 Z" id="形状"></path>
                </g>
            </g>
        </g>
    </g>
</svg>