<?xml version="1.0" standalone="no"?><!DOCTYPE svg PUBLIC "-//W3C//DTD SVG 1.1//EN" "http://www.w3.org/Graphics/SVG/1.1/DTD/svg11.dtd"><svg t="1615290206653" class="icon" viewBox="0 0 1024 1024" version="1.1" xmlns="http://www.w3.org/2000/svg" p-id="6619" xmlns:xlink="http://www.w3.org/1999/xlink" width="200" height="200"><defs><style type="text/css"></style></defs><path d="M2.569 535.198c0-105.557 72.617-198.305 169.626-225.76C225.893 173.365 358.917 75.731 514.509 75.731c156.817 0 286.17 97.634 339.864 233.708C954.444 337.505 1024 429.029 1024 535.198c0 130.575-105.56 236.746-239.182 236.746-25.019 0-47.598-22.57-47.598-47.587 0-28.681 22.579-47.599 47.598-47.599 80.541 0 144.609-62.845 144.609-141.561 0-42.1-18.92-81.151-50.036-106.169l-8.535-7.936c-2.448-3.049-6.109-5.485-10.983-8.535-2.45-3.061-7.936-3.061-10.985-5.499l-3.049 0c-2.447-3.048-5.497-3.048-7.934-5.486l-3.049 0c-2.45 0-5.498-3.062-8.548-3.062-2.438 0-5.487 0-5.487-2.436l-7.935 0c-3.051 0-5.487 0-8.547-3.049l-5.487 0-14.034 0-3.048 0c-2.449-9.148-5.498-15.859-5.498-25.018-2.437 0-2.437-3.049-2.437-5.486-3.049-5.499-3.049-10.985-5.486-16.483 0-3.049-3.061-3.049-3.061-6.098-2.437-5.486-5.488-10.984-8.536-16.471l0-5.498c-2.448-5.486-7.936-10.985-10.983-16.471-46.988-78.102-133.624-131.187-231.26-131.187-100.071 0-186.708 53.085-233.694 131.187l-7.935 16.471c0 1.837-1.225 1.837-1.825 3.661l-1.225 1.837-8.547 16.471 0 6.098-7.923 16.483 0 5.486c-3.062 9.159-6.11 15.87-6.11 25.018l-5.486 0-13.421 0-6.11 0c-2.437 3.049-5.486 3.049-7.923 3.049l-5.499 0c-2.437 1.836-3.661 2.436-4.273 2.436-0.612 0.612-1.212 0.612-1.825 0-2.437 0-5.498 3.062-7.935 3.062l-5.486 0c-3.062 2.438-5.498 2.438-8.547 5.486l-3.049 0c-2.437 2.438-5.499 2.438-7.936 5.499l-3.049 0c-2.437 3.05-5.486 5.486-8.547 8.535-5.486 2.437-7.923 5.498-10.984 7.936-31.116 25.018-46.974 64.069-46.974 106.169 0 78.716 64.069 141.561 141.559 141.561 28.68 0 50.036 18.918 50.036 47.599 0 25.018-21.356 47.587-50.036 47.587C111.188 771.944 2.569 665.773 2.569 535.198L2.569 535.198zM322.916 693.841c0-14.033 5.486-24.406 10.984-33.555l144.608-158.653c9.16-9.148 21.969-14.034 36.002-14.034 14.034 0 25.019 4.886 36.616 14.034l141.558 158.653c9.147 9.147 14.034 20.746 14.034 33.555 0 25.018-21.356 46.987-50.037 46.987-14.033 0-24.404-7.322-33.564-16.471l-61.007-66.519 0 239.193c0 28.678-21.356 46.987-47.6 46.987-27.454 0-46.985-18.308-46.985-46.987L467.525 657.839l-61.021 66.519c-9.147 9.147-22.568 16.471-36.602 16.471C344.883 740.827 322.916 718.857 322.916 693.841z" p-id="6620"></path></svg>