<?xml version="1.0" standalone="no"?><!DOCTYPE svg PUBLIC "-//W3C//DTD SVG 1.1//EN" "http://www.w3.org/Graphics/SVG/1.1/DTD/svg11.dtd"><svg t="1615017093314" class="icon" viewBox="0 0 1152 1024" version="1.1" xmlns="http://www.w3.org/2000/svg" p-id="5275" xmlns:xlink="http://www.w3.org/1999/xlink" width="225" height="200"><defs><style type="text/css"></style></defs><path d="M0 1024 0 896 1152 896 1152 1024 0 1024ZM0 0 1152 0 1152 832 0 832 0 0ZM1024 704 1024 128 135.552 128 128 704 1024 704ZM248.256 402.752 384 267.008 429.248 312.256 293.504 448 429.248 583.744 384 628.992 248.256 493.248 248.256 493.248 203.008 448 248.256 402.752 248.256 402.752ZM680.576 180.16 532.672 670.336 471.36 651.84 619.328 161.664 680.576 180.16ZM755.648 257.024 908.096 400.256 908.096 400.256 958.912 448 908.096 495.744 908.096 495.744 755.648 638.976 704.832 591.232 857.28 448 704.832 304.768 755.648 257.024Z" p-id="5276"></path></svg>