<?xml version="1.0" standalone="no"?><!DOCTYPE svg PUBLIC "-//W3C//DTD SVG 1.1//EN" "http://www.w3.org/Graphics/SVG/1.1/DTD/svg11.dtd"><svg t="1611803165383" class="icon" viewBox="0 0 1024 1024" version="1.1" xmlns="http://www.w3.org/2000/svg" p-id="2522" xmlns:xlink="http://www.w3.org/1999/xlink" width="128" height="128"><defs><style type="text/css"></style></defs><path d="M534.87 490.496a1403.307 1403.307 0 0 0 50.858-25.813c16.043-8.619 29.013-15.062 38.57-19.03 9.558-3.925 17.067-6.058 22.87-6.058 9.557 0 17.75 3.2 24.917 10.026 6.827 6.827 10.582 15.062 10.582 25.088 0 5.76-1.707 11.819-5.12 17.92-3.414 6.102-7.168 10.07-10.923 11.862-35.157 14.677-74.41 25.429-116.736 31.872 7.85 7.168 17.067 17.237 28.33 29.781 11.265 12.544 17.067 18.987 17.75 20.053 4.096 6.102 9.899 13.654 17.408 22.614 7.51 8.96 12.63 15.786 15.36 20.778 2.73 5.035 4.437 11.094 4.437 18.304a33.707 33.707 0 0 1-9.898 24.022 33.835 33.835 0 0 1-25.6 10.41c-10.24 0-22.187-8.618-35.158-25.472-12.97-16.512-30.037-46.933-50.517-91.05-20.821 39.424-34.816 65.962-41.643 78.506-7.168 12.544-13.994 22.187-20.48 28.672a30.976 30.976 0 0 1-22.528 9.686 32.256 32.256 0 0 1-25.258-11.094 35.413 35.413 0 0 1-9.899-23.68c0-7.893 1.365-13.653 4.096-17.578 25.259-35.84 51.541-67.414 78.848-93.568a756.65 756.65 0 0 1-61.44-12.544 383.061 383.061 0 0 1-57.685-20.48c-3.414-1.75-6.486-5.718-9.558-11.819a30.208 30.208 0 0 1-5.12-16.853 32.427 32.427 0 0 1 10.582-25.088 33.152 33.152 0 0 1 24.234-10.027c6.486 0 14.678 2.133 24.576 6.101 9.899 4.267 22.187 10.027 37.547 18.262 15.36 7.893 32.427 16.853 51.883 26.538-3.414-18.261-6.486-39.082-8.875-62.378-2.39-23.296-3.413-39.424-3.413-48.043 0-10.752 3.072-19.712 9.557-27.264a30.677 30.677 0 0 1 24.917-11.819c9.899 0 18.091 3.926 24.576 11.478 6.486 7.893 9.558 17.92 9.558 30.464 0 3.584-0.683 10.41-1.366 20.48-0.682 10.368-2.389 22.57-4.096 36.906-2.048 14.678-4.096 31.147-6.144 49.835z" fill="#FF3838" p-id="2523"></path></svg>