<?xml version="1.0" standalone="no"?><!DOCTYPE svg PUBLIC "-//W3C//DTD SVG 1.1//EN" "http://www.w3.org/Graphics/SVG/1.1/DTD/svg11.dtd"><svg t="1623758718005" class="icon" viewBox="0 0 1024 1024" version="1.1" xmlns="http://www.w3.org/2000/svg" p-id="5844" xmlns:xlink="http://www.w3.org/1999/xlink" width="200" height="200"><defs><style type="text/css"></style></defs><path d="M359.594667 128c17.92 0 32.426667 14.250667 32.426666 31.872 0 17.578667-14.506667 31.829333-32.426666 31.829333l-69.546667 0.042667c-57.642667 0.085333-104.576 46.165333-104.576 102.784v79.317333a32.256 32.256 0 0 1-32.512 31.872 32.213333 32.213333 0 0 1-32.469333-31.872v-79.36c0-91.690667 76.074667-166.4 169.557333-166.442666L359.552 128zM665.6 128h67.968c93.738667 0 169.941333 74.752 169.941333 166.656v79.189333c0 17.578667-14.506667 31.914667-32.469333 31.914667a32.213333 32.213333 0 0 1-32.469333-31.914667V294.656c0-56.746667-47.104-102.954667-105.002667-102.954667H665.6a32.128 32.128 0 0 1-32.469333-31.786666c0-17.621333 14.506667-31.914667 32.426666-31.914667z m-35.797333 159.701333H394.154667c-53.888 0.512-97.28 43.733333-96.768 96.682667v53.12a11.861333 11.861333 0 0 0 11.52 11.477333h406.186666a11.946667 11.946667 0 0 0 11.605334-11.477333V384.426667a96.682667 96.682667 0 0 0-28.16-68.394667 96.938667 96.938667 0 0 0-68.693334-28.288z m-554.666667 226.048h873.685333c17.92 0 32.469333 14.293333 32.469334 31.914667a32.128 32.128 0 0 1-32.469334 31.786667h-45.312v151.893333c0 91.946667-76.245333 166.656-169.941333 166.656h-67.968a32.213333 32.213333 0 0 1-32.512-31.872c0-17.578667 14.549333-31.872 32.512-31.872h67.968c57.898667 0 105.002667-46.122667 105.002667-102.954667v-151.893333h-111.914667v42.325333c0.426667 52.906667-42.88 96.170667-96.853333 96.682667H394.154667c-53.930667-0.512-97.237333-43.733333-96.810667-96.682667v-42.282666H185.429333v152.021333c0 56.618667 46.976 102.698667 104.704 102.784h69.461334c17.92 0 32.469333 14.293333 32.469333 31.872a32.213333 32.213333 0 0 1-32.512 31.872l-69.504-0.042667c-93.482667-0.085333-169.6-74.752-169.6-166.485333v-152.021333H75.178667A32.170667 32.170667 0 0 1 42.666667 545.664c0-17.621333 14.592-31.914667 32.512-31.914667z" fill="#200E32" p-id="5845"></path></svg>