<?xml version="1.0" standalone="no"?><!DOCTYPE svg PUBLIC "-//W3C//DTD SVG 1.1//EN" "http://www.w3.org/Graphics/SVG/1.1/DTD/svg11.dtd"><svg t="1632979283672" class="icon" viewBox="0 0 1024 1024" version="1.1" xmlns="http://www.w3.org/2000/svg" p-id="2491" xmlns:xlink="http://www.w3.org/1999/xlink" width="200" height="200"><defs><style type="text/css"></style></defs><path d="M256 312.32l256 122.88 256-122.88-256-122.88-256 122.88z m286.72-220.16l373.76 174.08c30.72 15.36 40.96 46.08 25.6 71.68-10.24 5.12-20.48 15.36-30.72 20.48l-373.76 179.2c-15.36 10.24-40.96 10.24-56.32 0L112.64 358.4c-30.72-10.24-40.96-46.08-25.6-66.56 5.12-10.24 15.36-20.48 25.6-20.48l373.76-179.2c15.36-10.24 35.84-10.24 56.32 0z m-35.84 640c-10.24 0-15.36 0-20.48-5.12l-368.64-179.2c-25.6-10.24-35.84-40.96-25.6-66.56 10.24-25.6 40.96-35.84 66.56-25.6l348.16 168.96 348.16-168.96c25.6-10.24 56.32 0 66.56 25.6 10.24 25.6 0 56.32-25.6 66.56l-368.64 179.2c-5.12 5.12-10.24 10.24-20.48 5.12z m0 204.8c-10.24 0-15.36 0-20.48-5.12l-368.64-179.2c-25.6-10.24-35.84-40.96-25.6-66.56 10.24-25.6 40.96-35.84 66.56-25.6l348.16 168.96 348.16-168.96c25.6-10.24 56.32 0 66.56 25.6 10.24 25.6 0 56.32-25.6 66.56l-368.64 179.2c-5.12 5.12-10.24 10.24-20.48 5.12z" fill="#000000" p-id="2492"></path></svg>