<?xml version="1.0" standalone="no"?><!DOCTYPE svg PUBLIC "-//W3C//DTD SVG 1.1//EN" "http://www.w3.org/Graphics/SVG/1.1/DTD/svg11.dtd"><svg t="1623751997574" class="icon" viewBox="0 0 1024 1024" version="1.1" xmlns="http://www.w3.org/2000/svg" p-id="4325" xmlns:xlink="http://www.w3.org/1999/xlink" width="200" height="200"><defs><style type="text/css"></style></defs><path d="M900.224 66.304a87.68 87.68 0 0 1 85.952 88.896v533.44a87.744 87.744 0 0 1-86.528 88.896H597.952l86.528 133.376v44.416h-344.96v-44.416l86.528-133.376H123.776a87.68 87.68 0 0 1-85.952-88.96V155.264a87.68 87.68 0 0 1 85.952-88.96z m0 88.896H123.776V599.68h776.448V155.2z m-98.56 101.12L770.56 432l-56.064-56.064-142.336 112a28.032 28.032 0 0 1-32.128 1.728l-4.032-3.072-119.04-108.672-143.232 110.208a28.032 28.032 0 0 1-35.84-1.408l-3.392-3.712a28.032 28.032 0 0 1 1.408-35.84l3.712-3.456 161.792-124.48a28.032 28.032 0 0 1 32-1.536l3.968 3.072L556.16 429.12l118.528-93.056-48.512-48.512 175.552-31.168z" p-id="4326"></path></svg>