<svg width="40" height="40" viewBox="0 0 40 40" fill="none" xmlns="http://www.w3.org/2000/svg">
<rect opacity="0.01" width="40" height="40" fill="black"/>
<path fill-rule="evenodd" clip-rule="evenodd" d="M20 0.0739746C8.96297 0.0739746 0 8.96288 0 19.9999C0 31.0369 8.96297 39.9258 20 39.9258C31.037 39.9258 39.9259 31.0369 39.9259 19.9999C39.9259 8.96288 31.037 0.0739746 20 0.0739746ZM16.4445 24.6666C15.524 24.6666 14.7202 24.4915 13.826 24.2968C13.7127 24.2721 13.598 24.2471 13.4815 24.2221L10.5185 25.7036L11.4074 23.111C9.25926 21.6296 8 19.7036 8 17.3332C8 13.2592 11.8518 10.074 16.5185 10.074C20.7407 10.074 24.3704 12.5925 25.1111 16.074C24.9629 16.074 24.8333 16.0555 24.7037 16.0369C24.5741 16.0184 24.4444 15.9999 24.2963 15.9999C20.2222 15.9999 17.037 19.0369 17.037 22.7407C17.037 23.3332 17.1111 23.9258 17.3333 24.5184C17.037 24.6666 16.7407 24.6666 16.4445 24.6666V24.6666ZM29.7037 29.8517L29.037 27.7036H29.0371C30.8148 26.3703 32.0741 24.6666 32.0741 22.8148C32.0741 19.3332 28.6667 16.5925 24.8148 16.5925C20.7407 16.5925 17.5555 19.4073 17.5555 22.8147C17.5555 26.2221 20.7407 28.9629 24.8148 28.9629C25.6399 28.9629 26.4011 28.7714 27.217 28.5662C27.2801 28.5504 27.3436 28.5344 27.4074 28.5184L29.7037 29.8517Z" fill="#46BB36"/>
<path fill-rule="evenodd" clip-rule="evenodd" d="M13.6296 16C12.963 16 12.4445 15.4815 12.4445 14.8148V14.8148C12.4445 14.1482 12.963 13.6296 13.6296 13.6296C14.2963 13.6296 14.8148 14.1482 14.8148 14.8148C14.8148 15.4815 14.2963 16 13.6296 16ZM22.5926 22C22.0741 22 21.6296 21.5555 21.6296 21.037H21.6296C21.6296 20.4444 22.0741 20 22.5926 20.0741C23.1111 20.0741 23.5555 20.5185 23.5555 21.037C23.5555 21.5555 23.1111 22 22.5926 22ZM18.4445 14.8148C18.4445 15.4815 18.963 16 19.6296 16C20.2963 16 20.8148 15.4815 20.8148 14.8148C20.8148 14.1482 20.2963 13.6296 19.6296 13.6296C18.963 13.6296 18.4445 14.1482 18.4445 14.8148ZM27.3333 22C26.8148 22 26.3703 21.5556 26.3703 21.0371V21.0371C26.3703 20.4445 26.8148 20 27.3333 20.0741C27.8518 20.0741 28.2963 20.5185 28.2963 21.0371C28.2963 21.5556 27.8518 22 27.3333 22Z" fill="#46BB36"/>
</svg>
