<?xml version="1.0" encoding="UTF-8"?>
<svg width="114px" height="36px" viewBox="0 0 114 36" version="1.1" xmlns="http://www.w3.org/2000/svg" xmlns:xlink="http://www.w3.org/1999/xlink">
    <!-- Generator: Sketch 55.2 (78181) - https://sketchapp.com -->
    <title>oneid-logo</title>
    <desc>Created with Sketch.</desc>
    <g id="页面1" stroke="none" stroke-width="1" fill="none" fill-rule="evenodd">
        <g id="一账通官网切图画板" transform="translate(-115.000000, -903.000000)" fill="#006064">
            <g id="编组" transform="translate(115.000000, 903.000000)">
                <path d="M0.653866474,14.5875593 L37.2728759,14.5875593 L36.6190095,19.329157 L5.68434189e-14,19.329157 L0.653866474,14.5875593 Z M48.9275197,4.11597928 L46.3126278,27.5518933 L42.3699162,27.5518933 L45.2480383,0.031990765 L55.7148757,0.031990765 L55.3322739,4.11597928 L48.9275197,4.11597928 Z M72.8779524,-5.68434189e-14 L77.5447378,-5.68434189e-14 C76.5207041,2.05184787 73.1869033,7.67319163 68.9748401,13.498687 L77.2325347,13.498687 L76.8642805,17.422913 L68.0334484,17.422913 C69.4310928,23.7728503 72.7019555,30.9294446 76.6559538,35.8987278 L71.4632822,35.8987278 C67.9576932,30.7893893 64.9772252,23.5874492 63.7483082,17.422913 L63.7400823,17.422913 L62.1716062,31.1622961 C62.1344938,31.4873697 62.3887327,31.7724548 62.7160486,31.7724548 L66.0772054,31.7724548 L65.5285544,35.8987278 L61.3845943,35.8987278 L59.0815228,35.8987278 C58.1364964,35.8987278 57.4028574,35.0742768 57.5124728,34.1356004 L59.4643159,17.422913 L56.2561998,17.422913 L56.624454,13.498687 L59.9783414,13.498687 L61.4037244,-5.68434189e-14 L65.7223422,-5.68434189e-14 L64.2653946,13.3928802 C67.6169863,9.27674786 70.9446655,3.73289369 72.8779524,-5.68434189e-14 Z M52.8343241,24.1256288 L53.0883717,26.8536451 C53.5836497,30.0724289 54.7056295,33.1767959 56.3655474,35.9704392 L51.5874248,35.9704392 C50.9802358,34.7252484 50.4635321,33.4371991 50.035018,32.1194934 C49.8196132,32.4736496 49.5934956,32.8213004 49.3564738,33.1614893 L48.9723415,33.7127177 C48.4171863,34.5094255 47.80598,35.2634662 47.1446528,35.9704392 L40.7603678,35.9704392 L42.4334855,34.6188676 C43.6136208,33.6654586 44.652002,32.5509478 45.5195516,31.3059484 L45.9036838,30.7547199 C47.3661792,28.656187 48.3156056,26.2075159 48.650956,23.6714059 L50.4993053,5.73993153 L54.730116,5.73993153 L52.8343241,24.1256288 Z M90.0991463,0.0320481647 L88.8516731,9.28583615 L84.6202885,9.28583615 L85.8675704,0.0320481647 L90.0991463,0.0320481647 Z M81.1778097,11.6872099 L88.695935,11.6872099 L86.0433568,31.7906888 L114,31.7906888 L113.426289,36 L81.0965068,36 L83.5579755,16.4381829 L80.6037157,16.4381829 L81.1778097,11.6872099 Z M109.363606,15.4224379 L109.69207,13.0187298 C109.733008,12.7179554 109.49943,12.4502815 109.196026,12.4502815 L104.598492,12.4502815 L104.207664,15.4224379 L109.363606,15.4224379 Z M108.474439,21.9304156 L108.840781,19.2490844 L103.70416,19.2490844 L103.351401,21.9304156 L108.474439,21.9304156 Z M100.348551,15.4224379 L100.739761,12.4502815 L95.6056279,12.4502815 L95.2004526,15.4224379 L100.348551,15.4224379 Z M99.4924795,21.9304156 L99.8452384,19.2490844 L94.6789663,19.2490844 L94.3135816,21.9304156 L99.4924795,21.9304156 Z M108.44364,8.62363496 L111.742624,8.62363496 C113.018218,8.62363496 114.000357,9.74943437 113.827804,11.0135671 L111.20239,30.0765808 L107.340599,30.0765808 L107.951423,25.7570622 L102.848089,25.7570622 L102.256204,30.0765808 L98.3970906,30.0765808 L98.9889756,25.7570622 L93.791904,25.7570622 L93.1824194,30.0765808 L89.3210107,30.0765808 L92.2657055,8.62363496 L99.0339313,8.62363496 L96.5060812,5.47679219 L101.122937,5.47679219 L102.922696,7.71729373 C103.263594,8.14166883 103.909426,8.14300816 104.252046,7.71978105 L106.400929,5.06600168 C106.760192,4.62230201 106.444354,3.96029216 105.873704,3.96029216 L92.9538148,3.96029216 L93.5277175,0.13364563 L111.481116,0.13364563 C113.020514,0.13364563 113.871994,1.9191589 112.903246,3.11575127 L108.44364,8.62363496 Z" id="形状结合"></path>
            </g>
        </g>
    </g>
</svg>